<svg xmlns="http://www.w3.org/2000/svg" xmlns:xlink="http://www.w3.org/1999/xlink" width="308" height="308" viewBox="0 0 308 308" fill="none"><defs><rect id="path_0" x="0" y="0" width="308" height="308" /></defs><g opacity="1" transform="translate(0 0)  rotate(0 154 154)"><mask id="bg-mask-0" fill="white"><use xlink:href="#path_0"></use></mask><g mask="url(#bg-mask-0)" ><path  id="path80319" style="stroke:#000000; stroke-width:22; stroke-opacity:1; stroke-dasharray:0 0" transform="translate(23.5 81)  rotate(0 130.5 73)" d="M214.23,0.6C212.16,-0.62 209.46,0.09 208.27,2.18L186.33,40.08C169.6,32.45 150.76,28.2 130.5,28.2C110.24,28.2 91.4,32.45 74.67,40.08L52.73,2.18C51.51,0.09 48.84,-0.62 46.74,0.6C44.64,1.82 43.93,4.48 45.15,6.58L66.8,43.99C29.46,64.17 4.18,101.87 0,146L261,146C256.82,101.87 231.54,64.17 194.17,43.99L215.82,6.58C217.05,4.48 216.31,1.82 214.23,0.6Z " /><path id="path80319" fill-rule="evenodd" style="fill:#000000" transform="translate(90 166)  rotate(0 16 16)" opacity="1" d="M32,16C32,7.19 24.85,0 16,0C7.19,0 0,7.15 0,16C0,24.81 7.15,32 16,32C24.85,32 32.04,24.81 32,16Z " /><path id="path80319" fill-rule="evenodd" style="fill:#000000" transform="translate(186 166)  rotate(0 16 16)" opacity="1" d="M32,16C32,7.19 24.85,0 16,0C7.19,0 0,7.15 0,16C0,24.81 7.15,32 16,32C24.85,32 32.04,24.81 32,16Z " /></g></g></svg>