<svg xmlns="http://www.w3.org/2000/svg" xmlns:xlink="http://www.w3.org/1999/xlink" width="308" height="308" viewBox="0 0 308 308" fill="none"><defs><rect id="path_0" x="0" y="0" width="308" height="308" /></defs><g opacity="1" transform="translate(0 0)  rotate(0 154 154)"><mask id="bg-mask-0" fill="white"><use xlink:href="#path_0"></use></mask><g mask="url(#bg-mask-0)" ><path  id="路径 2" style="stroke:#000000; stroke-width:22; stroke-opacity:1; stroke-dasharray:0 0" transform="translate(56 87)  rotate(0 98 91.5)" d="M189.76,23.93C173.53,0.63 148.87,0 142,0C123.9,0 109.08,11.11 99.56,11.11C89.57,11.11 76.31,0.63 60.39,0.63C30.43,0.63 0,25.5 0,72.42C0,101.67 11.24,132.48 25.12,152.34C37.14,169.24 47.59,183 62.58,183C77.56,183 84.11,173.15 102.53,173.15C121.41,173.15 125.62,182.69 142.01,182.69C158.39,182.69 169.16,167.83 179.46,152.97C191.01,136.08 195.84,119.5 196,118.72C195.06,118.4 163.7,105.73 163.7,69.92C163.7,38.95 188.35,25.03 189.76,23.93Z " /><path  id="路径 3" style="stroke:#000000; stroke-width:22; stroke-opacity:1; stroke-dasharray:0 0" transform="translate(153 28)  rotate(0 24.5 27.5)" d="M49,4.79C49,3.09 48.84,1.39 48.53,0C36.4,0.46 21.93,8.03 13.22,18.08C6.38,25.8 0,38 0,50.36C0,52.22 0.31,54.07 0.47,54.69C1.24,54.84 2.49,55 3.73,55C14.62,55 28.31,47.74 36.24,38C43.71,29.2 49,16.99 49,4.79Z " /></g></g></svg>