<svg xmlns="http://www.w3.org/2000/svg" xmlns:xlink="http://www.w3.org/1999/xlink" width="308" height="308" viewBox="0 0 308 308" fill="none"><defs><rect id="path_0" x="0" y="0" width="308" height="308" /></defs><g opacity="1" transform="translate(0 0)  rotate(0 154 154)"><mask id="bg-mask-0" fill="white"><use xlink:href="#path_0"></use></mask><g mask="url(#bg-mask-0)" ><path id="路径 1"  style="fill:#000000" transform="translate(193.6938566333274 58.28614336667306)  rotate(-90 34.83782856624565 39.459668589734775)" opacity="1" d="M-5.15155 10.8304L5.84717 10.9987L6.18378 -10.9987L-4.81493 -11.167L-5.15155 10.8304ZM52.39 67.92L0 67.92L0 78.9193L-11 78.9193L-11 89.9193L0 89.9193L0 89.92L52.39 89.92Q56.0288 89.92 59.5081 89.0824Q62.9296 88.2587 66.0203 86.6685Q69.0933 85.0874 71.6619 82.8409Q74.2601 80.5684 76.1804 77.7574Q78.1552 74.8666 79.2848 71.5948Q80.454 68.2083 80.6409 64.6364Q80.8325 60.9744 79.9788 57.346Q79.1211 53.7011 77.2507 50.2815L76.9182 49.6735L33.3203 -10.5846L6.18788 -10.9987L5.85212 10.9987L21.9597 11.2446L58.1939 61.3251Q58.7235 62.4824 58.671 63.4867Q58.62 64.4614 58.0146 65.3476Q57.2785 66.4251 55.9553 67.1059Q54.373 67.92 52.39 67.92Z " /><path  id="路径 1" style="stroke:#000000; stroke-width:22; stroke-opacity:1; stroke-dasharray:0 0" transform="translate(193.6938566333274 58.28614336667306)  rotate(-90 34.83782856624565 39.459668589734775)" d="" /><path id="路径 1"  style="fill:#000000" transform="translate(21.180698771562675 75.13930122843522)  rotate(-90 90.12973132272978 77.89500000000042)" opacity="1" d="M0 133.52L0 144.519L-11 144.519L-11 122.519L-6.32794 122.519L-3.07967 116.931L-3.07539 116.924L3.35034 105.871L63.6945 2.25421Q65.3929 -0.749038 67.7764 -3.24227Q70.172 -5.74814 73.0718 -7.49754Q75.9638 -9.24218 79.1857 -10.1327Q82.3827 -11.0163 85.6975 -11.0024Q88.9875 -10.9886 92.1759 -10.0913Q95.3512 -9.19777 98.2235 -7.48421Q101.091 -5.77341 103.491 -3.34273Q105.822 -0.982304 107.599 1.94607L187.643 126.589L187.827 126.925Q189.701 130.345 190.56 133.991Q191.416 137.62 191.225 141.284Q191.039 144.857 189.87 148.244Q188.74 151.516 186.765 154.407Q184.845 157.218 182.247 159.491Q179.679 161.737 176.607 163.318Q173.517 164.908 170.096 165.732Q166.618 166.57 162.98 166.57L111.21 166.79L111.207 166.79L100.21 166.836L100.118 144.836L111.113 144.79L111.118 144.79L162.98 144.57Q164.959 144.57 166.54 143.756Q167.863 143.075 168.6 141.998Q169.205 141.112 169.255 140.139Q169.312 139.043 168.673 137.763L88.9103 13.5577L88.8211 13.4086Q87.9978 12.0328 86.9524 11.4092Q86.2668 11.0002 85.605 10.9974Q85.0081 10.9949 84.436 11.34Q83.5161 11.895 82.7055 13.3258L22.3697 116.929L15.9505 127.97L15.9397 127.989L9.50967 139.049L0 133.52Z " /><path  id="路径 1" style="stroke:#000000; stroke-width:22; stroke-opacity:1; stroke-dasharray:0 0" transform="translate(21.180698771562675 75.13930122843522)  rotate(-90 90.12973132272978 77.89500000000042)" d="" /><path  id="路径 1" style="stroke:#000000; stroke-width:22; stroke-opacity:1; stroke-dasharray:0 0" transform="translate(236 162)  rotate(0 20 41.5)" d="M40,19.76C40,6.32 30.1,0 19.41,0C8.71,0 0,8.3 0,19.76L0,24.11L0,66.4C0,73.12 3.17,83 19.41,83C35.64,83 40,73.12 40,66.4L40,63.63L40,19.76Z " /><path id="路径 1"  style="fill:#000000" transform="translate(165 162)  rotate(0 14.000000000000002 46.99999999999999)" opacity="1" d="M17 26.7322L17 94L16.9997 94L16.9997 105L38.9997 105L38.9997 94L17 94L39 94L39 -11L19.3889 -11L16.9379 -3.51979Q16.9035 -3.42701 16.8499 -3.29471Q16.5962 -2.66808 16.231 -1.94909Q14.996 0.481901 13.2505 2.49148Q10.9566 5.13233 8.11599 6.58863Q4.56334 8.41 0 8.41L0 8.41304L-11 8.41304L-11 30.413L0 30.413L0 30.41Q5.09104 30.41 9.80284 29.2648Q13.5538 28.3531 17 26.7322Z " /><path  id="路径 1" style="stroke:#000000; stroke-width:22; stroke-opacity:1; stroke-dasharray:0 0" transform="translate(165 162)  rotate(0 14.000000000000002 46.99999999999999)" d="" /></g></g></svg>