<svg xmlns="http://www.w3.org/2000/svg" xmlns:xlink="http://www.w3.org/1999/xlink" width="308" height="308" viewBox="0 0 308 308" fill="none"><defs><rect id="path_0" x="0" y="0" width="308" height="308" /></defs><g opacity="1" transform="translate(0 0)  rotate(0 154 154)"><mask id="bg-mask-0" fill="white"><use xlink:href="#path_0"></use></mask><g mask="url(#bg-mask-0)" ><path  id="路径 1" style="stroke:#000000; stroke-width:22; stroke-opacity:1; stroke-dasharray:0 0" transform="translate(137.44 114.54)  rotate(-90 91.0916851995739 39.459668589734775)" d="M164.9,78.92C177.55,78.92 186.4,67.06 180.11,55.56L140.14,0.33L38.52,0L1.92,56.87C-3.71,66.63 3.91,78.92 13.51,78.92C13.51,78.92 164.9,78.92 164.9,78.92Z " /><path  id="路径 1" style="stroke:#000000; stroke-width:22; stroke-opacity:1; stroke-dasharray:0 0" transform="translate(20.11 76.21)  rotate(-90 91.09168519957392 77.78625510528222)" d="M164.9,155.57C177.55,155.57 186.4,143.71 180.11,132.21L100.18,7.76C94.04,-2.5 81.05,-2.69 75.12,7.79C75.12,7.79 1.92,133.52 1.92,133.52C-3.71,143.28 3.91,155.57 13.51,155.57C13.51,155.57 164.9,155.57 164.9,155.57Z " /></g></g></svg>