<svg xmlns="http://www.w3.org/2000/svg" xmlns:xlink="http://www.w3.org/1999/xlink" width="308" height="308" viewBox="0 0 308 308" fill="none"><defs><rect id="path_0" x="0" y="0" width="308" height="308" /></defs><g opacity="1" transform="translate(0 0)  rotate(0 154 154)"><mask id="bg-mask-0" fill="white"><use xlink:href="#path_0"></use></mask><g mask="url(#bg-mask-0)" ><path  id="并集" style="stroke:#000000; stroke-width:22; stroke-opacity:1; stroke-dasharray:0 0" transform="translate(34 58.5)  rotate(0 41.5 95.5)" d="M0,154.14C0,180.11 17,191 40.97,191L42.37,191C71.27,191 83,177.6 83,154.14L83,91.31L83,36.86C83,13.4 71.27,0 42.37,0L40.97,0C17,0 0,10.89 0,36.86L0,91.31L0,154.14Z " /><path  id="并集" style="stroke:#000000; stroke-width:22; stroke-opacity:1; stroke-dasharray:0 0" transform="translate(190 58.5)  rotate(0 41.5 95.5)" d="M0,154.14C0,180.11 17,191 40.97,191L42.37,191C71.27,191 83,177.6 83,154.14L83,91.31L83,36.86C83,13.4 71.27,0 42.37,0L40.97,0C17,0 0,10.89 0,36.86L0,91.31L0,154.14Z " /><path id="路径 2"  style="fill:#000000" transform="translate(153.99949999999808 44)  rotate(0 0.0005 110)" opacity="1" d="M11.001 5e-05L11.001 -11L-10.999 -11L-10.999 -5e-05L0.000994002 0L-11 0L-11 220L-11 231L11 231L11 220L11 4.99955e-05L11.001 5e-05Z " /><path  id="路径 2" style="stroke:#000000; stroke-width:22; stroke-opacity:1; stroke-dasharray:0 0" transform="translate(153.99949999999808 44)  rotate(0 0.0005 110)" d="" /></g></g></svg>