<svg xmlns="http://www.w3.org/2000/svg" xmlns:xlink="http://www.w3.org/1999/xlink" width="308" height="308" viewBox="0 0 308 308" fill="none"><defs><rect id="path_0" x="0" y="0" width="308" height="308" /></defs><g opacity="1" transform="translate(0 0)  rotate(0 154 154)"><mask id="bg-mask-0" fill="white"><use xlink:href="#path_0"></use></mask><g mask="url(#bg-mask-0)" ><path id="并集" fill-rule="evenodd" style="fill:#000000" transform="translate(78 108)  rotate(90 31 63)" opacity="1" d="M-0.242445 -15.5545L7.65598 -7.89848L7.65601 -7.89845L67.586 50.1915Q70.284 52.72 71.7234 56.2924Q73.0676 59.6286 72.994 63.2605Q72.924 66.7134 71.5811 69.9115Q70.21 73.1768 67.723 75.6733L7.65598 133.898L-0.242447 141.554L-15.5545 125.758L-7.65601 118.102L1.95739 128.019L-7.65598 118.102L49.192 63.0011L-7.65598 7.89848L0 0L-7.65601 7.89845L-15.5545 0.242445L-0.242445 -15.5545ZM52.274 65.9885Q52.2339 65.951 52.1947 65.9116L52.274 65.9885Z " /><path  id="并集" style="stroke:#000000; stroke-width:22; stroke-opacity:1; stroke-dasharray:0 0" transform="translate(78 108)  rotate(90 31 63)" d="" /><path id="并集" fill-rule="evenodd" style="fill:#000000" transform="translate(192 164)  rotate(90 21.5 43.5)" opacity="1" d="M-0.276952 -15.5539L7.63847 -7.91542L0 0L7.63887 -7.91502L49.1989 32.195Q51.5707 34.3999 52.8574 37.5634Q54.063 40.5272 53.9977 43.7491Q53.9359 46.802 52.7397 49.6242Q51.5224 52.496 49.3167 54.6896L7.63887 94.915L-0.0184638 86.9809L7.63847 94.9154L-0.276951 102.554L-15.5539 86.723L-7.63888 79.085L-7.63847 79.0846L29.2333 43.5008L-7.63847 7.91542L-7.63887 7.91502L-15.5539 0.276952L-0.276952 -15.5539ZM33.9211 48.025Q33.8504 47.9594 33.782 47.8907L33.9211 48.025Z " /><path  id="并集" style="stroke:#000000; stroke-width:22; stroke-opacity:1; stroke-dasharray:0 0" transform="translate(192 164)  rotate(90 21.5 43.5)" d="" /><path id="路径 1"  style="fill:#000000" transform="translate(213.31 114.87)  rotate(0 0 55.914785329359795)" opacity="1" d="M11 -11L11 122.83L-11 122.83L-11 -11L11 -11Z " /><path  id="路径 1" style="stroke:#000000; stroke-width:22; stroke-opacity:1; stroke-dasharray:0 0" transform="translate(213.31 114.87)  rotate(0 0 55.914785329359795)" d="" /><path id="路径 1"  style="fill:#000000" transform="translate(108.57 38)  rotate(0 0 80.41495198902605)" opacity="1" d="M11 -11L11 171.83L-11 171.83L-11 -11L11 -11Z " /><path  id="路径 1" style="stroke:#000000; stroke-width:22; stroke-opacity:1; stroke-dasharray:0 0" transform="translate(108.57 38)  rotate(0 0 80.41495198902605)" d="" /><path id="路径 2"  style="fill:#000000" transform="translate(44 264)  rotate(0 110 0.0005)" opacity="1" d="M-11 -11L0 -11L220 -11L220 11L0 11L0 0L-5e-05 11L-11 11L-11 -11ZM220 11L220 -10.999L231 -10.999L231 11.001L220 11.001L220 11Z " /><path  id="路径 2" style="stroke:#000000; stroke-width:22; stroke-opacity:1; stroke-dasharray:0 0" transform="translate(44 264)  rotate(0 110 0.0005)" d="" /></g></g></svg>