<svg xmlns="http://www.w3.org/2000/svg" xmlns:xlink="http://www.w3.org/1999/xlink" width="308" height="308" viewBox="0 0 308 308" fill="none"><defs><rect id="path_0" x="0" y="0" width="308" height="308" /></defs><g opacity="1" transform="translate(0 0)  rotate(0 154 154)"><mask id="bg-mask-0" fill="white"><use xlink:href="#path_0"></use></mask><g mask="url(#bg-mask-0)" ><path  id="并集" style="stroke:#000000; stroke-width:22; stroke-opacity:1; stroke-dasharray:0 0" transform="translate(116 30)  rotate(0 38 31.684999999999995)" d="M37.5,0L26.5,0C8.5,0 0,12.5 0,27.87L0,35.5C0,50.87 8.5,63.37 26.5,63.37L37.5,63.37L48.5,63.37C65.5,63.37 76,50.38 76,35.5L76,27.87C76,12.99 65.5,0 48.5,0L37.5,0Z " /><path id="并集" fill-rule="evenodd" style="fill:#000000" transform="translate(58 65)  rotate(0 96.00000000000001 104.5)" opacity="1" d="M32.8748 13.1576Q40.3113 11 49.94 11L49.94 -11Q37.1843 -11 26.7446 -7.97105Q15.2418 -4.63366 6.97848 2.23915Q2.59639 5.88386 -0.76072 10.4428Q-4.16974 15.0722 -6.45829 20.5592Q-11 31.4485 -11 45.37L-11 163.63Q-11 177.551 -6.45829 188.441Q-4.16976 193.928 -0.760721 198.557Q2.59642 203.116 6.97848 206.761Q15.2418 213.634 26.7446 216.971Q37.1843 220 49.94 220L142.47 220Q157.232 220 168.399 216.455Q180.184 212.715 188.102 205.04Q203 190.599 203 163.63L203 45.37Q203 18.4006 188.102 3.96025Q180.184 -3.71504 168.399 -7.45534Q157.233 -10.9996 142.474 -11L142.47 -11L131.474 -11L131.474 11L142.474 11Q153.825 11.0004 161.744 13.5138Q168.591 15.6871 172.79 19.7572Q176.766 23.6112 178.792 29.617Q181 36.1631 181 45.37L181 163.63Q181 172.837 178.792 179.383Q176.766 185.389 172.79 189.243Q168.591 193.313 161.744 195.486Q153.824 198 142.47 198L49.94 198Q40.3113 198 32.8748 195.842Q25.7806 193.784 21.0465 189.847Q16.3281 185.922 13.8464 179.972Q11 173.147 11 163.63L11 45.37Q11 35.8526 13.8464 29.0279Q16.3281 23.0778 21.0465 19.1534Q25.7806 15.2159 32.8748 13.1576ZM49.9408 11L60.9408 11L60.9408 -11L49.9408 -11L49.9408 11Z " /><path  id="并集" style="stroke:#000000; stroke-width:22; stroke-opacity:1; stroke-dasharray:0 0" transform="translate(58 65)  rotate(0 96.00000000000001 104.5)" d="" /><path id="路径 1"  style="fill:#000000" transform="translate(146.5 84.5)  rotate(-90 0.5 55.00000000000001)" opacity="1" d="M-11 -11L-11 121L11 121L11 -11L-11 -11Z " /><path  id="路径 1" style="stroke:#000000; stroke-width:22; stroke-opacity:1; stroke-dasharray:0 0" transform="translate(146.5 84.5)  rotate(-90 0.5 55.00000000000001)" d="" /><path id="路径 1"  style="fill:#000000" transform="translate(124.5 151.5)  rotate(-90 0.5 33)" opacity="1" d="M-11 -11L-11 77L11 77L11 -11L-11 -11Z " /><path  id="路径 1" style="stroke:#000000; stroke-width:22; stroke-opacity:1; stroke-dasharray:0 0" transform="translate(124.5 151.5)  rotate(-90 0.5 33)" d="" /></g></g></svg>