<svg xmlns="http://www.w3.org/2000/svg" xmlns:xlink="http://www.w3.org/1999/xlink" width="308" height="308" viewBox="0 0 308 308" fill="none"><defs><rect id="path_0" x="0" y="0" width="308" height="308" /></defs><g opacity="1" transform="translate(0 0)  rotate(0 154 154)"><mask id="bg-mask-0" fill="white"><use xlink:href="#path_0"></use></mask><g mask="url(#bg-mask-0)" ><path  id="路径 1" style="stroke:#000000; stroke-width:22; stroke-opacity:1; stroke-dasharray:0 0" transform="translate(49.5 36)  rotate(0 104.5 116.49999999999999)" d="M0,29.09L0,84C0,143 15.17,209.55 104.5,233C193.95,209.89 209,142 209,84L209,29.09L104.5,0L0,29.09Z " /><path  id="并集" style="stroke:#000000; stroke-width:22; stroke-opacity:1; stroke-dasharray:0 0" transform="translate(101 103)  rotate(0 53.50000000000045 42.004574380165614)" d="M41.93,17.07C39.27,16.38 36.48,16.02 33.6,16.02C15.05,16.02 0,31.23 0,50.01C0,68.79 15.05,84.01 33.6,84.01C43.35,84.01 56.6,84.01 56.6,84.01C56.6,84.01 71.41,84.01 80.25,84.01C95.02,84.01 107,72.03 107,57.26C107,45.63 99.57,35.73 88.76,32.04C89.41,29.8 89.76,27.43 89.76,24.98C89.76,11.19 78.77,0 65.22,0C54.38,0 45.19,7.15 41.93,17.07Z " /></g></g></svg>