<svg xmlns="http://www.w3.org/2000/svg" xmlns:xlink="http://www.w3.org/1999/xlink" width="308" height="308" viewBox="0 0 308 308" fill="none"><defs><rect id="path_0" x="0" y="0" width="308" height="308" /></defs><g opacity="1" transform="translate(0 0)  rotate(0 154 154)"><mask id="bg-mask-0" fill="white"><use xlink:href="#path_0"></use></mask><g mask="url(#bg-mask-0)" ><path id="并集" fill-rule="evenodd" style="fill:#000000" transform="translate(2 121)  rotate(90 72.5 32.99999999999999)" opacity="1" d="M145.269 -15.554L137.357 -7.91146L145 0L137.357 -7.91137L73.0543 54.2076L7.56074 -7.7697L7.55902 -7.76789L-0.428645 -15.327L-15.5504 0.65208L-7.5609 8.21298L-7.55918 8.21117L59.3111 71.4912L59.5115 71.6634Q62.4162 74.159 65.6687 75.5056Q69.3675 77.0369 73.2545 76.9969Q77.1443 76.9569 80.8245 75.3468Q84.071 73.9264 86.96 71.3508L87.1243 71.2043L152.643 7.91137L160.554 0.26889L145.269 -15.554Z " /><path  id="并集" style="stroke:#000000; stroke-width:22; stroke-opacity:1; stroke-dasharray:0 0" transform="translate(2 121)  rotate(90 72.5 32.99999999999999)" d="" /><path id="并集" fill-rule="evenodd" style="fill:#000000" transform="translate(161 121.5)  rotate(-90 72 32.99999999999999)" opacity="1" d="M-15.554 0.26889L-7.64266 7.91137L-7.64257 7.91146L57.8757 71.2043L58.04 71.3508Q60.929 73.9264 64.1755 75.3468Q67.8557 76.9569 71.7455 76.9969Q75.6325 77.0369 79.3313 75.5056Q82.5838 74.159 85.4885 71.6634L85.7204 71.4642L151.619 8.15391L151.621 8.15569L159.553 0.534714L144.311 -15.3298L136.381 -7.71063L136.379 -7.71241L71.9366 54.1988L7.64266 -7.91137L0 0L7.64257 -7.91146L-0.26889 -15.554L-15.554 0.26889Z " /><path  id="并集" style="stroke:#000000; stroke-width:22; stroke-opacity:1; stroke-dasharray:0 0" transform="translate(161 121.5)  rotate(-90 72 32.99999999999999)" d="" /></g></g></svg>