<svg xmlns="http://www.w3.org/2000/svg" xmlns:xlink="http://www.w3.org/1999/xlink" width="308" height="308" viewBox="0 0 308 308" fill="none"><defs><rect id="path_0" x="0" y="0" width="308" height="308" /></defs><g opacity="1" transform="translate(0 0)  rotate(0 154 154)"><mask id="bg-mask-0" fill="white"><use xlink:href="#path_0"></use></mask><g mask="url(#bg-mask-0)" ><path id="圆形 2" fill-rule="evenodd" style="fill:#000000" transform="translate(44 39)  rotate(0 102.49999999999999 113.5)" opacity="1" d="M75.11,151.89C67.15,143.92 56.15,139 44,139C19.7,139 0,158.7 0,183C0,207.3 19.7,227 44,227C68.3,227 88,207.3 88,183C88,170.85 83.08,159.85 75.11,151.89Z M78.7323 177.075L195.732 -5.92528L214.268 5.92528L97.2677 188.925L78.7323 177.075Z " /><path  id="圆形 2" style="stroke:#000000; stroke-width:22; stroke-opacity:1; stroke-dasharray:0 0" transform="translate(44 39)  rotate(0 102.49999999999999 113.5)" d="" /><path id="圆形 2" fill-rule="evenodd" style="fill:#000000" transform="translate(58 38)  rotate(0 103 114)" opacity="1" d="M162,140C149.85,140 138.85,144.92 130.89,152.89C122.92,160.85 118,171.85 118,184C118,208.3 137.7,228 162,228C186.3,228 206,208.3 206,184C206,159.7 186.3,140 162,140Z M108.741 189.938L-9.2595 5.93816L9.2595 -5.93816L127.259 178.062L108.741 189.938Z " /><path  id="圆形 2" style="stroke:#000000; stroke-width:22; stroke-opacity:1; stroke-dasharray:0 0" transform="translate(58 38)  rotate(0 103 114)" d="" /></g></g></svg>