<svg xmlns="http://www.w3.org/2000/svg" xmlns:xlink="http://www.w3.org/1999/xlink" width="308" height="308" viewBox="0 0 308 308" fill="none"><defs><rect id="path_0" x="0" y="0" width="308" height="308" /></defs><g opacity="1" transform="translate(0 0)  rotate(0 154 154)"><mask id="bg-mask-0" fill="white"><use xlink:href="#path_0"></use></mask><g mask="url(#bg-mask-0)" ><path  id="路径 1" style="stroke:#000000; stroke-width:22; stroke-opacity:1; stroke-dasharray:0 0" transform="translate(55 64)  rotate(0 93.5 100)" d="M155.95,116.22C152.66,114.32 148.68,114.23 145.31,115.98L118.44,129.95C118.44,129.95 98.49,125.97 82.2,109.02C65.91,92.07 62.01,71.25 62.01,71.25L75.45,43.3C77.13,39.8 77.04,35.66 75.22,32.24L61.27,6.1C59.26,2.34 55.45,0 51.3,0L33.89,0C-10.71,0 -14.12,99.31 40.71,156.34C95.53,213.38 187,213.99 187,161.36L187,141.16C187,136.85 184.76,132.88 181.14,130.79L155.95,116.22Z " /><path id="并集" fill-rule="evenodd" style="fill:#000000" transform="translate(173.63 74)  rotate(-45 19.5 41.5)" opacity="1" d="M46.8361 7.7198L54.5559 -0.11632L38.8837 -15.5559L31.1647 -7.72062L31.1639 -7.7198L-6.53531 30.5394Q-8.78607 32.7641 -9.96947 35.8508Q-11.0538 38.6793 -10.9955 41.7362Q-10.9401 44.6369 -9.86186 47.3341Q-8.74166 50.1362 -6.68306 52.3077L31.1639 90.7198L31.1647 90.7206L38.8837 98.5559L54.5559 83.1163L46.8361 75.2802L38.9724 83.0272L46.8353 75.2794L13.5491 41.5013L46.8353 7.72062L39 0L46.8361 7.7198ZM9.24342 45.8709L9.1353 45.9806Q9.19009 45.9265 9.24342 45.8709Z " /><path  id="并集" style="stroke:#000000; stroke-width:22; stroke-opacity:1; stroke-dasharray:0 0" transform="translate(173.63 74)  rotate(-45 19.5 41.5)" d="" /><path id="路径 1"  style="fill:#000000" transform="translate(181.06 52)  rotate(0 37.65051497579374 37.750383715782604)" opacity="1" d="M75.2804 -15.5563L67.5126 -7.76787L83.0895 7.76786L90.8574 -0.0206108L75.2804 -15.5563ZM67.5115 -7.76785L-7.78848 67.7321L7.78848 83.2679L83.0885 7.76785L67.5115 -7.76785ZM-15.5563 75.5214L0.0206108 91.0571L7.78848 83.2686L-7.78846 67.7329L-15.5563 75.5214Z " /><path  id="路径 1" style="stroke:#000000; stroke-width:22; stroke-opacity:1; stroke-dasharray:0 0" transform="translate(181.06 52)  rotate(0 37.65051497579374 37.750383715782604)" d="" /></g></g></svg>