<svg xmlns="http://www.w3.org/2000/svg" xmlns:xlink="http://www.w3.org/1999/xlink" width="308" height="308" viewBox="0 0 308 308" fill="none"><defs><rect id="path_0" x="0" y="0" width="308" height="308" /></defs><g opacity="1" transform="translate(0 0)  rotate(0 154 154)"><mask id="bg-mask-0" fill="white"><use xlink:href="#path_0"></use></mask><g mask="url(#bg-mask-0)" ><path  id="路径 1" style="stroke:#000000; stroke-width:22; stroke-opacity:1; stroke-dasharray:0 0" transform="translate(49.5 46.5)  rotate(0 104.49999999999999 107.49999999999999)" d="M174.29,124.94C170.62,122.89 166.17,122.79 162.4,124.68L132.38,139.7C132.38,139.7 110.08,135.42 91.87,117.2C73.66,98.98 69.31,76.59 69.31,76.59L84.32,46.54C86.2,42.78 86.11,38.33 84.07,34.65L68.48,6.56C66.23,2.51 61.97,0 57.34,0L37.87,0C-11.97,0 -15.78,106.75 45.5,168.07C106.77,229.38 209,230.04 209,173.46L209,151.74C209,147.11 206.49,142.85 202.45,140.6L174.29,124.94Z " /></g></g></svg>