<svg xmlns="http://www.w3.org/2000/svg" xmlns:xlink="http://www.w3.org/1999/xlink" width="308" height="308" viewBox="0 0 308 308" fill="none"><defs><rect id="path_0" x="0" y="0" width="308" height="308" /></defs><g opacity="1" transform="translate(0 0)  rotate(0 154 154)"><mask id="bg-mask-0" fill="white"><use xlink:href="#path_0"></use></mask><g mask="url(#bg-mask-0)" ><path  id="并集" style="stroke:#000000; stroke-width:22; stroke-opacity:1; stroke-dasharray:0 0" transform="translate(40 40)  rotate(0 114 114)" d="M48.63,0C20.18,0 0,13 0,44L0,109L0,184C0,215 20.18,228 48.63,228L179.78,228C214.08,228 228,212 228,184L228,109L228,44C228,16 214.08,0 179.78,0L48.63,0Z " /><path  id="路径 1" style="stroke:#000000; stroke-width:22; stroke-opacity:1; stroke-dasharray:0 0" transform="translate(83.55000000000018 83)  rotate(0 70.22636592886668 72.20075467690182)" d="M117.13,83.91C114.66,82.54 111.67,82.47 109.14,83.74L88.96,93.83C88.96,93.83 73.98,90.95 61.74,78.71C49.5,66.48 46.58,51.44 46.58,51.44L56.67,31.26C57.93,28.73 57.87,25.74 56.49,23.27L46.02,4.41C44.51,1.69 41.64,0 38.53,0L25.45,0C-8.05,0 -10.61,71.7 30.57,112.88C71.75,154.06 140.45,154.5 140.45,116.5L140.45,101.92C140.45,98.81 138.77,95.94 136.05,94.43L117.13,83.91Z " /></g></g></svg>