<svg xmlns="http://www.w3.org/2000/svg" xmlns:xlink="http://www.w3.org/1999/xlink" width="308" height="308" viewBox="0 0 308 308" fill="none"><defs><rect id="path_0" x="0" y="0" width="308" height="308" /></defs><g opacity="1" transform="translate(0 0)  rotate(0 154 154)"><mask id="bg-mask-0" fill="white"><use xlink:href="#path_0"></use></mask><g mask="url(#bg-mask-0)" ><path id="并集" fill-rule="evenodd" style="fill:#000000" transform="translate(43 89)  rotate(0 112 64)" opacity="1" d="M109.64,64Z M175.83 11L235 11L235 -11L175.83 -11Q166.816 -11 159.355 -10.3022Q151.177 -9.53738 144.376 -7.89133Q136.951 -6.09441 130.844 -3.17321Q124.263 -0.0251905 119.058 4.49328Q108.379 13.7633 103.362 28.9497Q100.95 36.2514 99.7782 45.1064Q98.64 53.7049 98.64 64L120.64 64Q120.64 46.7852 124.252 35.8503Q125.883 30.9149 128.274 27.1742Q130.496 23.6966 133.48 21.1067Q136.439 18.5379 140.337 16.6732Q144.366 14.7462 149.551 13.4913Q154.808 12.2191 161.403 11.6022Q167.842 11 175.83 11ZM-11 117L-11 139L0 139L0 117L-11 117Z M235 -11L224 -11L224 11L235 11L235 -11ZM51.13 117L-11 117L-11 139L51.13 139Q63.3224 139 73.7241 135.749Q83.4565 132.708 91.4373 126.888Q98.5619 121.692 104.105 114.416Q108.849 108.19 112.331 100.573Q115.214 94.2656 117.163 87.1595Q118.704 81.541 119.6 75.6569Q120.243 71.4392 120.502 67.4668Q120.64 65.3586 120.64 64L98.64 64Q98.64 64.0823 98.6308 64.3837Q98.6081 65.1299 98.5491 66.0332Q98.3514 69.0611 97.8513 72.3431Q97.1479 76.9591 95.9463 81.3405Q94.4669 86.7343 92.3219 91.4269Q87.1193 102.808 78.4749 109.112Q67.6581 117 51.13 117Z " /><path  id="并集" style="stroke:#000000; stroke-width:22; stroke-opacity:1; stroke-dasharray:0 0" transform="translate(43 89)  rotate(0 112 64)" d="" /><path id="并集" fill-rule="evenodd" style="fill:#000000" transform="translate(39 89)  rotate(0 112 64)" opacity="1" d="M114.36,64Z M-11 -11L48.17 -11Q57.1843 -11 64.6454 -10.3022Q72.8231 -9.53738 79.6243 -7.89133Q87.0488 -6.09441 93.1559 -3.17321Q99.7372 -0.0251985 104.942 4.49328Q115.621 13.7633 120.638 28.9497Q123.05 36.2514 124.222 45.1064Q125.36 53.7049 125.36 64L103.36 64Q103.36 46.7852 99.7478 35.8503Q98.1174 30.9149 95.7265 27.1742Q93.5037 23.6966 90.5203 21.1067Q87.5611 18.5379 83.6628 16.6732Q79.6342 14.7462 74.4492 13.4913Q69.1924 12.2191 62.5968 11.6022Q56.1578 11 48.17 11L-11 11L-11 -11ZM235 117L224 117L224 139L235 139L235 117Z M-11 -11L0 -11L0 11L-11 11L-11 -11ZM224 139L172.87 139Q160.678 139 150.276 135.749Q140.543 132.708 132.563 126.888Q125.438 121.692 119.895 114.416Q115.151 108.19 111.669 100.573Q108.786 94.2657 106.837 87.1595Q105.296 81.5409 104.4 75.6569Q103.757 71.439 103.498 67.4668Q103.36 65.3587 103.36 64L125.36 64Q125.36 64.0825 125.369 64.3837Q125.392 65.1299 125.451 66.0332Q125.649 69.061 126.149 72.3431Q126.852 76.959 128.054 81.3405Q129.533 86.7343 131.678 91.4269Q136.881 102.809 145.525 109.112Q156.342 117 172.87 117L235 117L235 139L224 139Z " /><path  id="并集" style="stroke:#000000; stroke-width:22; stroke-opacity:1; stroke-dasharray:0 0" transform="translate(39 89)  rotate(0 112 64)" d="" /><path id="并集" fill-rule="evenodd" style="fill:#000000" transform="translate(235 54)  rotate(0 17 36)" opacity="1" d="M0.0776391 -15.5562L7.8169 -7.73926L0 0L7.81694 -7.73922L40.6769 25.4508Q42.8332 27.5507 43.9914 30.5332Q45.0559 33.2742 44.9979 36.2376Q44.943 39.0428 43.8881 41.6476Q42.7963 44.3435 40.7953 46.4278L7.81694 79.7392L0 72L7.8169 79.7393L0.0776405 87.5562L-15.5562 72.0776L-7.8169 64.2607L20.1636 36.0008L-7.8169 7.73926L-7.81694 7.73922L-15.5562 -0.0776391L0.0776391 -15.5562ZM25.0431 40.9292Q24.9644 40.8527 24.8884 40.773L25.0431 40.9292Z " /><path  id="并集" style="stroke:#000000; stroke-width:22; stroke-opacity:1; stroke-dasharray:0 0" transform="translate(235 54)  rotate(0 17 36)" d="" /><path id="并集" fill-rule="evenodd" style="fill:#000000" transform="translate(235 182)  rotate(0 17 36)" opacity="1" d="M0.0776391 -15.5562L7.8169 -7.73926L0 0L7.81694 -7.73922L40.6769 25.4508Q42.8332 27.5507 43.9914 30.5332Q45.0559 33.2742 44.9979 36.2376Q44.943 39.0428 43.8881 41.6476Q42.7963 44.3435 40.7953 46.4278L7.81694 79.7392L0 72L7.8169 79.7393L0.0776405 87.5562L-15.5562 72.0776L-7.8169 64.2607L20.1636 36.0008L-7.8169 7.73926L-7.81694 7.73922L-15.5562 -0.0776391L0.0776391 -15.5562ZM25.0431 40.9292Q24.9644 40.8527 24.8884 40.773L25.0431 40.9292Z " /><path  id="并集" style="stroke:#000000; stroke-width:22; stroke-opacity:1; stroke-dasharray:0 0" transform="translate(235 182)  rotate(0 17 36)" d="" /><path id="并集" fill-rule="evenodd" style="fill:#000000" transform="translate(42 54)  rotate(0 17 36)" opacity="1" d="M41.8169 7.73926L49.5562 -0.0776386L33.9224 -15.5562L26.1831 -7.73926L34.0601 0.0594945L26.1831 -7.73922L-6.67694 25.4508Q-8.83317 27.5507 -9.99142 30.5332Q-11.0559 33.2742 -10.9979 36.2376Q-10.943 39.0428 -9.88808 41.6476Q-8.79627 44.3435 -6.79526 46.4279L26.1831 79.7392L34.096 71.9049L26.1831 79.7393L33.9224 87.5562L49.5562 72.0776L41.8169 64.2607L13.8364 36.0008L41.8169 7.73926ZM9.1116 40.773L8.95694 40.9292Q9.0356 40.8527 9.1116 40.773Z " /><path  id="并集" style="stroke:#000000; stroke-width:22; stroke-opacity:1; stroke-dasharray:0 0" transform="translate(42 54)  rotate(0 17 36)" d="" /><path id="并集" fill-rule="evenodd" style="fill:#000000" transform="translate(42 182)  rotate(0 17 36)" opacity="1" d="M41.8169 7.73926L49.5562 -0.0776386L33.9224 -15.5562L26.1831 -7.73926L34.0601 0.0594945L26.1831 -7.73922L-6.67694 25.4508Q-8.83317 27.5507 -9.99142 30.5332Q-11.0559 33.2742 -10.9979 36.2376Q-10.943 39.0428 -9.88808 41.6476Q-8.79627 44.3435 -6.79526 46.4279L26.1831 79.7392L34.096 71.9049L26.1831 79.7393L33.9224 87.5562L49.5562 72.0776L41.8169 64.2607L13.8364 36.0008L41.8169 7.73926ZM9.1116 40.773L8.95694 40.9292Q9.0356 40.8527 9.1116 40.773Z " /><path  id="并集" style="stroke:#000000; stroke-width:22; stroke-opacity:1; stroke-dasharray:0 0" transform="translate(42 182)  rotate(0 17 36)" d="" /></g></g></svg>