<svg xmlns="http://www.w3.org/2000/svg" xmlns:xlink="http://www.w3.org/1999/xlink" width="308" height="308" viewBox="0 0 308 308" fill="none"><defs><rect id="path_0" x="0" y="0" width="308" height="308" /></defs><g opacity="1" transform="translate(0 0)  rotate(0 154 154)"><mask id="bg-mask-0" fill="white"><use xlink:href="#path_0"></use></mask><g mask="url(#bg-mask-0)" ><path id="路径 1"  style="fill:#000000" transform="translate(134 135.5)  rotate(0 20.5 30.5)" opacity="1" d="M32.9315 12.1298Q36.6885 11 41 11L52 11L52 -11L41 -11Q33.4521 -11 26.5958 -8.93811Q20.2797 -7.0387 14.7036 -3.43697Q9.79695 -0.267716 5.57363 4.1507Q1.97682 7.91367 -1.05711 12.5129Q-3.5691 16.3208 -5.63768 20.6128Q-7.27623 24.0126 -8.57259 27.579Q-9.50775 30.1518 -10.1875 32.5893Q-10.5591 33.9218 -10.7534 34.8237L-12.7284 43.993L-3.98645 47.3922Q-3.80571 47.4625 -3.34878 47.6563Q-2.31064 48.0966 -1.11811 48.6539Q2.79008 50.4803 6.58949 52.7265Q11.8373 55.829 16.039 59.2565Q21.0304 63.3282 24.1659 67.5543L30.7202 76.3884L48.3884 63.2798L41.8341 54.4457Q37.0633 48.0155 29.9453 42.2091Q24.4596 37.7342 17.7855 33.7885Q15.7043 32.5581 13.5925 31.4271Q13.8784 30.7916 14.1806 30.1645Q15.6082 27.2026 17.3071 24.6271Q21.3939 18.4318 26.6402 15.0432Q29.5992 13.132 32.9315 12.1298Z " /><path  id="路径 1" style="stroke:#000000; stroke-width:22; stroke-opacity:1; stroke-dasharray:0 0" transform="translate(134 135.5)  rotate(0 20.5 30.5)" d="" /><path id="圆形 1"  style="fill:#000000" transform="translate(62 198)  rotate(0 92.5 31)" opacity="1" d="M5.96558 -14.367L10.1663 -4.20073L0.0023529 -0.000972219L10.1675 -4.19782Q13.5351 3.95875 18.4502 11.3154Q23.3186 18.6021 29.511 24.8147Q35.5946 30.9184 42.7093 35.7415Q49.8866 40.6072 57.8376 43.9818Q65.9306 47.4167 74.5405 49.1845Q83.3828 51 92.5 51Q101.617 51 110.459 49.1845Q119.069 47.4167 127.162 43.9818Q135.113 40.6072 142.291 35.7415Q149.405 30.9184 155.489 24.8145Q161.681 18.6021 166.55 11.3154Q171.465 3.95873 174.832 -4.19783L184.954 -0.0188492L174.834 -4.20071L179.034 -14.367L199.367 -5.96558L195.168 4.19783L195.166 4.20074Q190.967 14.3699 184.843 23.5371Q178.78 32.611 171.071 40.3455Q163.497 47.944 154.636 53.9516Q145.683 60.0207 135.758 64.2332Q125.644 68.5256 114.884 70.7349Q103.852 73 92.5 73Q81.1475 73 70.1157 70.7349Q59.3558 68.5256 49.2424 64.2332Q39.3171 60.0207 30.3645 53.9516Q21.5026 47.944 13.929 40.3453Q6.21971 32.611 0.157328 23.5371Q-5.96746 14.3699 -10.1663 4.20073L-10.1675 4.19782L-14.367 -5.96558L5.96558 -14.367Z " /><path  id="圆形 1" style="stroke:#000000; stroke-width:22; stroke-opacity:1; stroke-dasharray:0 0" transform="translate(62 198)  rotate(0 92.5 31)" d="" /><path id="路径 1"  style="fill:#000000" transform="translate(86.66666666666661 48)  rotate(0 0 40.08333333333326)" opacity="1" d="M11 -11L11 91.1667L-11 91.1667L-11 -11L11 -11Z " /><path  id="路径 1" style="stroke:#000000; stroke-width:22; stroke-opacity:1; stroke-dasharray:0 0" transform="translate(86.66666666666661 48)  rotate(0 0 40.08333333333326)" d="" /><path id="路径 1"  style="fill:#000000" transform="translate(222.333333333333 48)  rotate(0 0 40.08333333333326)" opacity="1" d="M11 -11L11 91.1667L-11 91.1667L-11 -11L11 -11Z " /><path  id="路径 1" style="stroke:#000000; stroke-width:22; stroke-opacity:1; stroke-dasharray:0 0" transform="translate(222.333333333333 48)  rotate(0 0 40.08333333333326)" d="" /></g></g></svg>