<svg xmlns="http://www.w3.org/2000/svg" xmlns:xlink="http://www.w3.org/1999/xlink" width="308" height="308" viewBox="0 0 308 308" fill="none"><defs><rect id="path_0" x="0" y="0" width="308" height="308" /></defs><g opacity="1" transform="translate(0 0)  rotate(0 154 154)"><mask id="bg-mask-0" fill="white"><use xlink:href="#path_0"></use></mask><g mask="url(#bg-mask-0)" ><path id="路径 1"  style="fill:#000000" transform="translate(173 162)  rotate(0 20 41.5)" opacity="1" d="M12.28 54.67L8.32 54.67L8.32 32.67L12.28 32.67L12.28 54.67Z M11 62.79L11 67.84Q11 68.7462 11.2185 69.4241Q11.3779 69.9186 11.6546 70.2149Q12.1464 70.7415 13.2959 71.1609Q15.596 72 19.41 72Q23.3031 72 25.8415 71.1119Q27.3516 70.5835 28.1359 69.8234Q28.5928 69.3806 28.8085 68.8241Q29 68.3299 29 67.84L29 65.32Q29 63.3786 28.4784 61.9529Q28.0753 60.8507 27.3022 59.9451Q25.6301 57.9861 22.1386 56.6227Q19.0578 55.4195 15.1913 54.9163Q13.9693 54.7572 12.8584 54.6952Q12.5479 54.6779 12.305 54.6716Q12.2521 54.6702 12.221 54.6698Q12.2376 54.67 12.28 54.67L12.28 32.67Q13.0198 32.67 14.0838 32.7294Q16.0047 32.8365 18.0311 33.1003Q24.5597 33.9501 30.1414 36.1298Q34.0089 37.6402 37.2296 39.7364Q41.1617 42.2956 44.0353 45.6621Q47.3769 49.577 49.1394 54.3947Q51 59.4809 51 65.32L51 67.84Q51 70.0304 50.6053 72.2124Q50.1812 74.5566 49.3218 76.774Q48.3871 79.186 46.9755 81.3482Q45.4587 83.6716 43.4466 85.6216Q39.1862 89.7505 33.107 91.8775Q27.0407 94 19.41 94Q11.7083 94 5.75602 91.8285Q-0.33942 89.6048 -4.42462 85.2301Q-8.0539 81.3437 -9.7204 76.174Q-11 72.2046 -11 67.84L-11 62.79L11 62.79Z M-11 22.01L-11 20.7064L-11 18.04Q-11 14.9388 -10.3604 11.9557Q-9.73004 9.01548 -8.49949 6.2866Q-7.29513 3.61582 -5.55832 1.2413Q-3.86091 -1.07934 -1.71582 -3.03372Q2.51081 -6.88459 7.9868 -8.94656Q13.4401 -11 19.41 -11Q25.1302 -11 30.3107 -9.43894Q36.0583 -7.70701 40.484 -4.25094Q42.9029 -2.36202 44.8121 -0.0321026Q46.8144 2.41139 48.1904 5.25896Q51 11.0734 51 18.04L51 22.37Q51 31.383 47.9136 37.9764Q46.2484 41.5338 43.7079 44.3745Q41.2616 47.1098 38.0637 49.1121Q32.7835 52.4181 25.3507 53.7161Q22.3617 54.2382 18.8604 54.4709Q15.8646 54.67 12.28 54.67L12.28 32.67Q22.8678 32.67 26.3888 30.4654Q26.9426 30.1187 27.3093 29.7086Q27.6942 29.2783 27.9885 28.6495Q28.4163 27.7358 28.6688 26.4098Q29 24.6704 29 22.37L29 18.04Q29 16.1101 28.3818 14.8307Q27.9013 13.8364 26.9435 13.0884Q25.7655 12.1686 23.9634 11.6255Q21.8875 11 19.41 11Q17.4449 11 15.7395 11.6422Q14.2101 12.2181 13.1008 13.2287Q11 15.1428 11 18.04L11 20.7064L11 22.01L-11 22.01Z " /><path  id="路径 1" style="stroke:#000000; stroke-width:22; stroke-opacity:1; stroke-dasharray:0 0" transform="translate(173 162)  rotate(0 20 41.5)" d="" /><path  id="路径 1" style="stroke:#000000; stroke-width:22; stroke-opacity:1; stroke-dasharray:0 0" transform="translate(247 162)  rotate(0 20 41.5)" d="M40,19.76C40,6.32 30.1,0 19.41,0C8.71,0 0,8.3 0,19.76L0,24.11L0,66.4C0,73.12 3.17,83 19.41,83C35.64,83 40,73.12 40,66.4L40,63.63L40,19.76Z " /><path  id="路径 1" style="stroke:#000000; stroke-width:22; stroke-opacity:1; stroke-dasharray:0 0" transform="translate(-26 115.5)  rotate(90 89 38.5)" d="M176.12,55.48L140.36,0L41.07,0.32L2.03,54.21C-4.12,65.43 4.53,77 16.89,77C16.89,77 164.8,77 164.8,77C174.18,77 181.63,65.01 176.12,55.48Z " /><path id="路径 1"  style="fill:#000000" transform="translate(79 87.5)  rotate(90 89 66.5)" opacity="1" d="M69.1889 -15.1951L63.2578 -5.93108L81.7859 5.93109L87.717 -3.33294L69.1889 -15.1951ZM50.3388 55.0491L81.7841 5.93089L63.2558 -5.93089L31.8105 43.1873L-7.44054 104.502L-7.6239 104.837Q-9.46705 108.212 -10.3126 111.81Q-11.1542 115.393 -10.9659 119.009Q-10.7822 122.536 -9.63091 125.881Q-8.5184 129.113 -6.57298 131.969Q-4.68064 134.748 -2.11982 136.995Q0.412866 139.217 3.4432 140.781Q6.49221 142.355 9.8675 143.171Q13.3003 144 16.89 144L164.8 144Q168.237 144 171.548 142.944Q174.619 141.964 177.372 140.142Q179.95 138.436 182.08 136.103Q184.145 133.841 185.65 131.142Q187.17 128.418 188.016 125.432Q188.9 122.314 188.99 119.116Q189.087 115.721 188.284 112.447Q187.44 109.006 185.653 105.901L173.515 84.9798L154.485 96.0202L166.587 116.879Q167.024 117.637 166.999 118.492Q166.972 119.467 166.437 120.425Q166.176 120.893 165.833 121.269Q165.538 121.592 165.23 121.796Q165.023 121.933 164.863 121.984Q164.813 122 164.8 122L16.89 122Q15.0217 122 13.5346 121.232Q12.2969 120.593 11.6105 119.586Q11.0512 118.764 11.0043 117.865Q10.9513 116.847 11.5456 115.648L50.3388 55.0491ZM148.961 86.5054L154.483 96.0191L173.51 84.9757L167.989 75.462L148.961 86.5054Z " /><path  id="路径 1" style="stroke:#000000; stroke-width:22; stroke-opacity:1; stroke-dasharray:0 0" transform="translate(79 87.5)  rotate(90 89 66.5)" d="" /></g></g></svg>