<svg xmlns="http://www.w3.org/2000/svg" xmlns:xlink="http://www.w3.org/1999/xlink" width="308" height="308" viewBox="0 0 308 308" fill="none"><defs><rect id="path_0" x="0" y="0" width="308" height="308" /></defs><g opacity="1" transform="translate(0 0)  rotate(0 154 154)"><mask id="bg-mask-0" fill="white"><use xlink:href="#path_0"></use></mask><g mask="url(#bg-mask-0)" ><path id="拼合图形"  style="fill:#000000" transform="translate(45 47)  rotate(0 105.05351307997388 106.74694306309453)" opacity="1" d="" /><path  id="拼合图形" style="stroke:#000000; stroke-width:22; stroke-opacity:1; stroke-dasharray:0 0" transform="translate(45 47)  rotate(0 105.05351307997388 106.74694306309453)" d="" /><path id="路径 1"  style="fill:#000000" transform="translate(226 189)  rotate(-90 0.0005 35)" opacity="1" d="M-11 -11L-11 81L11 81L11 -11L-11 -11Z " /><path  id="路径 1" style="stroke:#000000; stroke-width:22; stroke-opacity:1; stroke-dasharray:0 0" transform="translate(226 189)  rotate(-90 0.0005 35)" d="" /><path id="路径 1"  style="fill:#000000" transform="translate(215 239)  rotate(-90 0.0005 23)" opacity="1" d="M-11 -11L-11 57L11 57L11 -11L-11 -11Z " /><path  id="路径 1" style="stroke:#000000; stroke-width:22; stroke-opacity:1; stroke-dasharray:0 0" transform="translate(215 239)  rotate(-90 0.0005 23)" d="" /></g></g></svg>