<svg xmlns="http://www.w3.org/2000/svg" xmlns:xlink="http://www.w3.org/1999/xlink" width="308" height="308" viewBox="0 0 308 308" fill="none"><defs><rect id="path_0" x="0" y="0" width="308" height="308" /></defs><g opacity="1" transform="translate(0 0)  rotate(0 154 154)"><mask id="bg-mask-0" fill="white"><use xlink:href="#path_0"></use></mask><g mask="url(#bg-mask-0)" ><path id="路径 1" fill-rule="evenodd" style="fill:#000000" transform="translate(26.11 44)  rotate(0 80.94324324324324 88)" opacity="1" d="M119.77,106.96L96.62,11.23C92.85,-3.74 72.14,-3.74 68.7,11.23L44.19,106.96L119.77,106.96Z M137.08 187L105.67 187L105.67 165L137.08 165L137.08 187Z M17.0395 173.45L33.4895 104.41L54.8904 109.51L38.4405 178.55L17.0395 173.45Z M126.41 178.675L109.1 109.635L130.44 104.285L147.75 173.325L126.41 178.675Z M27.74 187L0 187L0 165L27.74 165L27.74 187Z M137.08 165L161.89 165L161.89 187L137.08 187L137.08 165Z M27.74 165L61.4 165L61.4 187L27.74 187L27.74 165Z " /><path  id="路径 1" style="stroke:#000000; stroke-width:22; stroke-opacity:1; stroke-dasharray:0 0" transform="translate(26.11 44)  rotate(0 80.94324324324324 88)" d="" /><path id="路径 2"  style="fill:#000000" transform="translate(145 66)  rotate(0 64.24999999999818 98.75)" opacity="1" d="M128.5 11L106.5 11Q101.864 11 99.2121 12.7293Q97.3526 13.942 96.1698 16.2562Q95.1391 18.2727 94.7031 20.8318Q94.5671 21.63 94.5157 22.3342Q94.5032 22.5057 94.4992 22.6219Q94.5 22.5995 94.5 22.5L94.5669 46.5249L94.6 67.903L72.6 67.937L72.567 46.5861L72.5 22.5Q72.5 21.7474 72.5741 20.7322Q72.7024 18.9755 73.0156 17.1369Q73.4492 14.5919 74.1963 12.1558Q75.1529 9.03626 76.5802 6.24378Q78.3342 2.812 80.7416 -0.0139904Q83.5703 -3.3347 87.1942 -5.69809Q91.1725 -8.29264 95.9472 -9.62717Q100.859 -11 106.5 -11L128.5 -11L128.5 11Z M94.6 67.9448Q94.5992 68.2773 94.5983 68.6688Q94.5809 76.4557 94.5602 80.3665Q94.5255 86.9186 94.4496 92.1408Q94.2582 105.322 93.7166 115.517Q93.0572 127.928 91.7861 138.033Q90.3273 149.631 87.9683 159.005Q85.3011 169.605 81.3718 177.822Q76.9131 187.146 70.7159 193.664Q63.816 200.921 54.8505 204.659Q45.6375 208.5 34.5 208.5L0 208.5L0 186.5L34.5 186.5Q41.2352 186.5 46.385 184.353Q51.0684 182.401 54.7717 178.505Q62.3928 170.489 66.6334 153.637Q68.6662 145.559 69.9581 135.287Q71.1303 125.969 71.7476 114.35Q72.2667 104.578 72.452 91.8214Q72.5263 86.701 72.5605 80.2499Q72.5811 76.3697 72.5984 68.6196Q72.5994 68.1786 72.6 67.8952L94.6 67.9448Z M40.4796 57L83.5796 56.92L83.6204 78.92L40.5204 79L40.4796 57Z M83.6196 56.92L128.52 57L128.48 79L83.5804 78.92L83.6196 56.92Z " /><path  id="路径 2" style="stroke:#000000; stroke-width:22; stroke-opacity:1; stroke-dasharray:0 0" transform="translate(145 66)  rotate(0 64.24999999999818 98.75)" d="" /></g></g></svg>