<svg xmlns="http://www.w3.org/2000/svg" xmlns:xlink="http://www.w3.org/1999/xlink" width="308" height="308" viewBox="0 0 308 308" fill="none"><defs><rect id="path_0" x="0" y="0" width="308" height="308" /></defs><g opacity="1" transform="translate(0 0)  rotate(0 154 154)"><mask id="bg-mask-0" fill="white"><use xlink:href="#path_0"></use></mask><g mask="url(#bg-mask-0)" ><path id="路径 2"  style="fill:#000000" transform="translate(39 44)  rotate(0 69.5 107)" opacity="1" d="M139 11L115.2 11Q109.922 11 106.832 13.0185Q104.619 14.4646 103.228 17.1896Q102.049 19.5013 101.553 22.4151Q101.398 23.3243 101.339 24.1321Q101.325 24.3361 101.32 24.4802Q101.319 24.4929 101.319 24.5003Q101.319 24.4983 101.319 24.4911Q101.32 24.4466 101.32 24.38L101.392 50.3937L101.43 73.5721L79.43 73.6078L79.3924 50.4549L79.32 24.38Q79.32 23.5986 79.3977 22.5327Q79.5332 20.6741 79.8645 18.7262Q80.3234 16.0279 81.1139 13.4459Q82.1249 10.1438 83.6318 7.19044Q85.4802 3.56805 88.0146 0.587791Q90.9895 -2.91029 94.8002 -5.39972Q98.9887 -8.13591 104.022 -9.5451Q109.219 -11 115.2 -11L139 -11L139 11Z M101.43 73.6145Q101.429 73.9804 101.428 74.381Q101.41 82.817 101.387 87.0547Q101.35 94.1502 101.268 99.8058Q101.062 114.072 100.477 125.102Q99.7656 138.518 98.3951 149.436Q96.8244 161.948 94.2867 172.052Q91.4246 183.449 87.2145 192.269Q82.4547 202.242 75.8511 209.201Q68.5185 216.928 58.9945 220.906Q49.1916 225 37.32 225L0 225L0 203L37.32 203Q44.7818 203 50.5155 200.605Q55.7557 198.416 59.8927 194.057Q68.303 185.194 72.9494 166.694Q75.162 157.884 76.5664 146.696Q77.8384 136.563 78.5077 123.938Q79.07 113.331 79.2703 99.4874Q79.3507 93.933 79.3876 86.9388Q79.4097 82.7323 79.4283 74.3323Q79.4293 73.8827 79.43 73.5655L101.43 73.6145Z M43.7888 62.68L90.4088 62.59L90.4512 84.59L43.8312 84.68L43.7888 62.68Z M90.4504 62.59L139.02 62.68L138.98 84.68L90.4096 84.59L90.4504 62.59Z " /><path  id="路径 2" style="stroke:#000000; stroke-width:22; stroke-opacity:1; stroke-dasharray:0 0" transform="translate(39 44)  rotate(0 69.5 107)" d="" /><path id="路径 1"  style="fill:#000000" transform="translate(149 163)  rotate(0 60.5 45.949367088607595)" opacity="1" d="M20.99 102.9L0 102.9L0 80.9L20.99 80.9L20.99 102.9Z M40.8656 -5.94416L70.3756 40.0058L51.8644 51.8942L22.3544 5.94416L40.8656 -5.94416Z M52.7659 38.794L92.1259 -7.15601L108.834 7.15601L69.4741 53.106L52.7659 38.794Z M90.62 102.9L70.1 102.9L70.1 80.9L90.62 80.9L90.62 102.9Z M100.48 -11L121 -11L121 11L100.48 11L100.48 -11Z M81.3634 97.8427L51.8634 51.8927L70.3766 40.0073L99.8766 85.9573L81.3634 97.8427Z M20.99 80.9L41.51 80.9L41.51 102.9L20.99 102.9L20.99 80.9Z M90.62 80.9L111.14 80.9L111.14 102.9L90.62 102.9L90.62 80.9Z M52.37 11L31.61 11L31.61 -11L52.37 -11L52.37 11Z M69.4052 53.1858L29.2752 99.1358L12.7048 84.6642L52.8348 38.7142L69.4052 53.1858Z M10.86 -11L31.61 -11L31.61 11L10.86 11L10.86 -11Z M100.48 11L79.95 11L79.95 -11L100.48 -11L100.48 11Z " /><path  id="路径 1" style="stroke:#000000; stroke-width:22; stroke-opacity:1; stroke-dasharray:0 0" transform="translate(149 163)  rotate(0 60.5 45.949367088607595)" d="" /></g></g></svg>