<svg xmlns="http://www.w3.org/2000/svg" xmlns:xlink="http://www.w3.org/1999/xlink" width="308" height="308" viewBox="0 0 308 308" fill="none"><defs><rect id="path_0" x="0" y="0" width="308" height="308" /></defs><g opacity="1" transform="translate(0 0)  rotate(0 154 154)"><mask id="bg-mask-0" fill="white"><use xlink:href="#path_0"></use></mask><g mask="url(#bg-mask-0)" ><path id="圆形 1"  style="fill:#000000" transform="translate(40.5 40.5)  rotate(0 113.5 113.5)" opacity="1" d="M238 102.5L113 102.5L113 124.5L215.418 124.5Q214.899 129.369 213.917 134.167Q211.889 144.077 207.949 153.392Q204.079 162.542 198.5 170.799Q192.971 178.982 185.977 185.977Q178.982 192.971 170.799 198.5Q162.542 204.079 153.392 207.949Q144.077 211.889 134.167 213.917Q123.991 216 113.5 216Q103.009 216 92.8325 213.917Q82.9226 211.889 73.6078 207.949Q64.4584 204.079 56.201 198.5Q48.0177 192.971 41.0232 185.977Q34.0287 178.982 28.4999 170.799Q22.9211 162.542 19.0509 153.392Q15.1108 144.077 13.0827 134.167Q11 123.991 11 113.5Q11 103.009 13.0827 92.8325Q15.1108 82.9227 19.0509 73.6078Q22.9211 64.4584 28.4999 56.201Q34.0286 48.0178 41.0232 41.0232Q48.0177 34.0286 56.201 28.4999Q64.4584 22.9211 73.6078 19.0509Q82.9227 15.1108 92.8325 13.0827Q103.009 11 113.5 11Q123.991 11 134.169 13.0821Q144.08 15.1097 153.396 19.0489Q162.546 22.9184 170.804 28.4962Q178.988 34.0244 185.982 41.0182L185.978 41.0216L193.757 48.7997L209.313 33.2434L201.535 25.4652L201.538 25.4618Q193.052 16.9754 183.118 10.2656Q173.087 3.48944 161.964 -1.21391Q150.633 -6.00534 138.578 -8.47149Q126.219 -11 113.5 -11Q100.781 -11 88.4216 -8.47055Q76.3677 -6.00369 65.0372 -1.21094Q53.9162 3.4932 43.8849 10.2704Q33.9533 16.9803 25.4668 25.4668Q16.9803 33.9533 10.2704 43.8849Q3.4932 53.9162 -1.21094 65.0372Q-6.00367 76.3676 -8.47054 88.4216Q-11 100.781 -11 113.5Q-11 126.219 -8.47055 138.578Q-6.00369 150.632 -1.21094 161.963Q3.49322 173.084 10.2704 183.115Q16.9803 193.047 25.4668 201.533Q33.9533 210.02 43.8849 216.73Q53.9162 223.507 65.0372 228.211Q76.3676 233.004 88.4216 235.471Q100.781 238 113.5 238Q126.219 238 138.578 235.471Q150.632 233.004 161.963 228.211Q173.084 223.507 183.115 216.73Q193.047 210.02 201.533 201.533Q210.02 193.047 216.73 183.115Q223.507 173.084 228.211 161.963Q233.004 150.632 235.471 138.578Q238 126.219 238 113.5L238 102.5Z " /><path  id="圆形 1" style="stroke:#000000; stroke-width:22; stroke-opacity:1; stroke-dasharray:0 0" transform="translate(40.5 40.5)  rotate(0 113.5 113.5)" d="" /></g></g></svg>