<svg xmlns="http://www.w3.org/2000/svg" xmlns:xlink="http://www.w3.org/1999/xlink" width="308" height="308" viewBox="0 0 308 308" fill="none"><defs><rect id="path_0" x="0" y="0" width="308" height="308" /></defs><g opacity="1" transform="translate(0 0)  rotate(0 154 154)"><mask id="bg-mask-0" fill="white"><use xlink:href="#path_0"></use></mask><g mask="url(#bg-mask-0)" ><path id="路径 1"  style="fill:#000000" transform="translate(48 35.5)  rotate(0 63 118.50000000000001)" opacity="1" d="M11 0L11 118.5L-11 118.5L-11 0L11 0Z M-11 237L-11 118.5L11 118.5L11 237L-11 237Z M0 107.5L126 107.5L126 129.5L0 129.5L0 107.5Z M115 118.5L115 0L137 0L137 118.5L115 118.5Z M137 118.5L137 237L115 237L115 118.5L137 118.5Z " /><path  id="路径 1" style="stroke:#000000; stroke-width:22; stroke-opacity:1; stroke-dasharray:0 0" transform="translate(48 35.5)  rotate(0 63 118.50000000000001)" d="" /><path id="路径 1"  style="fill:#000000" transform="translate(207.5 147.4999999999999)  rotate(0 30.25 56.25)" opacity="1" d="M-9.5 29L-9.5 45.5L12.5 45.5L12.5 29Q12.5 24.0859 13.8237 20.2646Q14.929 17.0738 16.8689 14.9154Q18.5827 13.0084 20.8616 12.0179Q23.2033 11 26 11Q29.1859 11 31.8353 12.0113Q34.3928 12.9874 36.2343 14.8528Q38.3133 16.9588 39.5001 20.2174Q41 24.3359 41 30L41 45.5Q41 47.2081 40.6492 48.6582Q40.3406 49.934 39.739 51.0839Q38.5197 53.4145 35.8512 55.6532Q33.1306 57.9356 28.5852 60.367Q26.6036 61.427 23.9629 62.6839Q22.3188 63.4664 18.9373 65.0126Q15.8577 66.4207 14.325 67.1443Q11.6845 68.391 9.64569 69.4524Q4.15417 72.311 0.450473 75.1964Q-4.69958 79.2087 -7.53125 84.0611Q-9.22712 86.9671 -10.0989 90.1618Q-11 93.4643 -11 97L-11 123.5L71.5 123.5L71.5 101.5L11 101.5L11 97Q11 96.412 11.1252 95.9532Q11.2343 95.5534 11.4699 95.1496Q12.1651 93.9584 13.9712 92.5512Q16.0922 90.8989 19.8039 88.9667Q21.4638 88.1027 23.718 87.0384Q25.1282 86.3725 28.0856 85.0203Q31.6208 83.4038 33.4176 82.5486Q36.5251 81.0696 38.9623 79.7659Q42.0204 78.13 44.5481 76.4969Q47.5394 74.5641 49.9909 72.5075Q55.9948 67.4706 59.2323 61.2824Q63 54.0808 63 45.5L63 30Q63 20.4544 60.1718 12.6888Q57.3422 4.9195 51.8907 -0.602832Q49.2618 -3.26587 46.1164 -5.29219Q43.0927 -7.24004 39.6803 -8.5425Q33.2416 -11 26 -11Q22.3676 -11 18.8835 -10.2929Q15.3543 -9.5767 12.0916 -8.15851Q8.79386 -6.72511 5.88016 -4.62332Q2.95004 -2.50968 0.506117 0.209611Q-4.40438 5.6734 -6.96435 13.0635Q-9.5 20.3834 -9.5 29Z " /><path  id="路径 1" style="stroke:#000000; stroke-width:22; stroke-opacity:1; stroke-dasharray:0 0" transform="translate(207.5 147.4999999999999)  rotate(0 30.25 56.25)" d="" /></g></g></svg>