<svg xmlns="http://www.w3.org/2000/svg" xmlns:xlink="http://www.w3.org/1999/xlink" width="308" height="308" viewBox="0 0 308 308" fill="none"><defs><rect id="path_0" x="0" y="0" width="308" height="308" /></defs><g opacity="1" transform="translate(0 0)  rotate(0 154 154)"><mask id="bg-mask-0" fill="white"><use xlink:href="#path_0"></use></mask><g mask="url(#bg-mask-0)" ><path id="路径 1"  style="fill:#000000" transform="translate(48 35.5)  rotate(0 59.5 118.50000000000001)" opacity="1" d="M11 0L11 118.5L-11 118.5L-11 0L11 0Z M-11 237L-11 118.5L11 118.5L11 237L-11 237Z M0 107.5L119 107.5L119 129.5L0 129.5L0 107.5Z M108 118.5L108 0L130 0L130 118.5L108 118.5Z M130 118.5L130 237L108 237L108 118.5L130 118.5Z " /><path  id="路径 1" style="stroke:#000000; stroke-width:22; stroke-opacity:1; stroke-dasharray:0 0" transform="translate(48 35.5)  rotate(0 59.5 118.50000000000001)" d="" /><path id="路径 1"  style="fill:#000000" transform="translate(192 152)  rotate(0 37.75 55.501953124999986)" opacity="1" d="M21.5 11L86.5 11L86.5 -11L-0.5 -11L-0.5 65L39.3381 65L39.6227 64.9825Q39.6555 64.9811 39.7033 64.9797Q39.9861 64.971 40.3481 64.9725Q41.6431 64.9782 43.067 65.1097Q45.0745 65.295 46.9671 65.7026Q49.2336 66.1908 51.1647 66.9632Q55.4305 68.6696 57.6464 71.6014Q60.5 75.3769 60.5 82Q60.5 88.6905 57.5738 92.652Q55.2775 95.761 50.8981 97.6475Q48.9425 98.4899 46.654 99.0532Q44.7506 99.5217 42.7344 99.7699Q41.307 99.9456 40.0099 99.9912Q39.6478 100.004 39.365 100.004Q39.3175 100.004 39.2851 100.004L39.1692 100L-11 100L-11 122L38.8659 122Q39.6751 122.017 40.7831 121.978Q43.0406 121.898 45.4218 121.605Q48.7377 121.197 51.9124 120.416Q55.9715 119.416 59.6019 117.853Q64.0661 115.929 67.7513 113.208Q72.1288 109.975 75.2699 105.723Q78.7814 100.969 80.6028 95.1404Q82.5 89.0693 82.5 82Q82.5 74.9151 80.5937 68.8736Q78.7533 63.041 75.1973 58.3361Q72.0105 54.1198 67.5712 50.9781Q63.8436 48.3401 59.3353 46.5368Q55.6805 45.0748 51.5993 44.1958Q48.4137 43.5097 45.0892 43.2028Q42.7046 42.9827 40.4448 42.9728Q39.4703 42.9685 38.7273 43L21.5 43L21.5 11Z " /><path  id="路径 1" style="stroke:#000000; stroke-width:22; stroke-opacity:1; stroke-dasharray:0 0" transform="translate(192 152)  rotate(0 37.75 55.501953124999986)" d="" /></g></g></svg>