<svg xmlns="http://www.w3.org/2000/svg" xmlns:xlink="http://www.w3.org/1999/xlink" width="308" height="308" viewBox="0 0 308 308" fill="none"><defs><rect id="path_0" x="0" y="0" width="308" height="308" /></defs><g opacity="1" transform="translate(0 0)  rotate(0 154 154)"><mask id="bg-mask-0" fill="white"><use xlink:href="#path_0"></use></mask><g mask="url(#bg-mask-0)" ><path id="路径 1"  style="fill:#000000" transform="translate(55 35.5)  rotate(0 66 118.50000000000001)" opacity="1" d="M11 0L11 118.5L-11 118.5L-11 0L11 0Z M-11 237L-11 118.5L11 118.5L11 237L-11 237Z M0 107.5L132 107.5L132 129.5L0 129.5L0 107.5Z M121 118.5L121 0L143 0L143 118.5L121 118.5Z M143 118.5L143 237L121 237L121 118.5L143 118.5Z " /><path  id="路径 1" style="stroke:#000000; stroke-width:22; stroke-opacity:1; stroke-dasharray:0 0" transform="translate(55 35.5)  rotate(0 66 118.50000000000001)" d="" /><path id="路径 1"  style="fill:#000000" transform="translate(208.99999999999818 136)  rotate(0 22.000000000000888 68.99999999999999)" opacity="1" d="M33 29.5259L33 138L32.9996 138L32.9996 149L54.9996 149L54.9996 138L33 138L55 138L55 -11L35.2022 -11L32.6441 -3.7094Q32.6383 -3.69422 32.6296 -3.67205Q32.5423 -3.44798 32.4137 -3.1512Q31.9327 -2.04198 31.2586 -0.802366Q29.0152 3.32255 25.8193 6.75962Q21.4437 11.4654 15.8887 14.1262Q8.84521 17.5 0 17.5L-11 17.5L-11 39.5L0 39.5Q7.163 39.5 13.7583 38.0023Q19.8638 36.6158 25.3925 33.9675Q29.3747 32.0601 33 29.5259Z " /><path  id="路径 1" style="stroke:#000000; stroke-width:22; stroke-opacity:1; stroke-dasharray:0 0" transform="translate(208.99999999999818 136)  rotate(0 22.000000000000888 68.99999999999999)" d="" /></g></g></svg>