<svg xmlns="http://www.w3.org/2000/svg" xmlns:xlink="http://www.w3.org/1999/xlink" width="308" height="308" viewBox="0 0 308 308" fill="none"><defs><rect id="path_0" x="0" y="0" width="308" height="308" /></defs><g opacity="1" transform="translate(0 0)  rotate(0 154 154)"><mask id="bg-mask-0" fill="white"><use xlink:href="#path_0"></use></mask><g mask="url(#bg-mask-0)" ><path  id="并集" style="stroke:#000000; stroke-width:22; stroke-opacity:1; stroke-dasharray:0 0" transform="translate(40.5 40.5)  rotate(0 113.5 113.5)" d="M0,113.5C0,176.18 50.82,227 113.5,227C176.18,227 227,176.18 227,113.5C227,50.82 176.18,0 113.5,0C50.82,0 0,50.82 0,113.5Z " /><path id="路径 1"  style="fill:#000000" transform="translate(154 230.5)  rotate(0 0.0005 0.25)" opacity="1" d="M-10.999 -11L-10.999 0L-11 0L-11 0.5L-10.999 0.5L-10.999 11.5L11.001 11.5L11.001 0.5L11 0.5L11 0L11.001 0L11.001 -11L-10.999 -11Z " /><path  id="路径 1" style="stroke:#000000; stroke-width:22; stroke-opacity:1; stroke-dasharray:0 0" transform="translate(154 230.5)  rotate(0 0.0005 0.25)" d="" /><path id="路径 1"  style="fill:#000000" transform="translate(105.55000000000018 77.5)  rotate(0 46.44701921562452 57.5)" opacity="1" d="M-10.1354 36.734Q-10.9998 41.4559 -11 45.9682L-11 56.9682L11 56.9682L11 45.9682Q11.0002 43.453 11.505 40.6956Q12.0468 37.7357 13.1183 34.7972Q14.2514 31.6897 15.8966 28.8332Q17.6266 25.8294 19.8362 23.2584Q24.6494 17.6578 31.2949 14.5757Q38.9811 11.0109 48.78 11Q48.8265 11.0011 48.8951 11.0037Q49.2684 11.0175 49.745 11.0553Q51.4446 11.1902 53.3295 11.5368Q56.0149 12.0307 58.5923 12.8762Q61.767 13.9176 64.5669 15.4278Q71.4527 19.1417 75.6142 25.4505Q81.0315 33.6631 81.8882 46.3001Q81.8414 50.701 80.5427 54.6053Q79.3229 58.2727 76.9697 61.5952Q72.7148 67.6027 64.9099 72.3999Q61.6724 74.3899 57.9538 76.0826Q54.9403 77.4543 51.7701 78.5604Q49.5258 79.3434 47.4628 79.9065Q46.5326 80.1605 46.1273 80.248L37.45 82.1225L37.45 115L37.45 126L59.45 126L59.45 115L59.45 99.1803Q63.3448 97.8006 67.0683 96.1057Q72.0295 93.8474 76.4301 91.1426Q81.7456 87.8754 86.0977 84.0438Q91.2288 79.5264 94.9228 74.3107Q99.1662 68.3195 101.418 61.549Q103.89 54.1178 103.89 45.97L103.89 45.627L103.869 45.2846Q103.268 35.6678 100.655 27.4592Q98.1923 19.7245 93.9787 13.3367Q90.1463 7.52692 84.9543 2.96203Q80.4402 -1.00678 75.0106 -3.93528Q70.4861 -6.37565 65.4496 -8.02781Q61.4581 -9.33717 57.3089 -10.1003Q54.312 -10.6515 51.4851 -10.8758Q49.9191 -11 48.84 -11Q41.3864 -11 34.5428 -9.53546Q27.9525 -8.12511 22.0386 -5.38227Q16.4193 -2.77613 11.5387 0.972219Q6.95678 4.49113 3.1513 8.91912Q-0.405725 13.058 -3.16755 17.8533Q-5.76426 22.3619 -7.55051 27.2606Q-9.2588 31.9456 -10.1354 36.734Z " /><path  id="路径 1" style="stroke:#000000; stroke-width:22; stroke-opacity:1; stroke-dasharray:0 0" transform="translate(105.55000000000018 77.5)  rotate(0 46.44701921562452 57.5)" d="" /></g></g></svg>