<svg xmlns="http://www.w3.org/2000/svg" xmlns:xlink="http://www.w3.org/1999/xlink" width="308" height="308" viewBox="0 0 308 308" fill="none"><defs><rect id="path_0" x="0" y="0" width="308" height="308" /></defs><g opacity="1" transform="translate(0 0)  rotate(0 154 154)"><mask id="bg-mask-0" fill="white"><use xlink:href="#path_0"></use></mask><g mask="url(#bg-mask-0)" ><path  id="path-2" style="stroke:#000000; stroke-width:22; stroke-opacity:1; stroke-dasharray:0 0" transform="translate(42.00000000000003 37.8671343457726)  rotate(0 112.00000000000001 116.13286565422837)" d="M178.07 131.81C178.07 168.18 148.49 197.72 112.06 197.72C75.64 197.72 46.05 168.18 46.05 131.81C46.05 125.47 46.91 119.24 48.62 113.5L49.11 111.92L49.23 111.43C50.45 107.77 51.92 104.23 53.76 100.69L92.26 28.43L79.06 3.66C77.23 0.24 73.07 -0.98 69.65 0.85C68.42 1.46 67.45 2.44 66.83 3.66L1.19 126.81C-0.4 129.86 -0.4 133.52 1.19 136.57L49.35 226.77C51.07 230.07 54.61 232.26 58.52 232.26L165.48 232.26C169.27 232.26 172.82 230.07 174.65 226.77L222.81 136.57C224.4 133.52 224.4 129.86 222.81 126.81L157.05 3.66C155.34 0.24 151.18 -0.98 147.76 0.85C146.53 1.46 145.56 2.44 144.82 3.66L131.62 28.43L131.62 28.55L112.06 65.42L111.94 65.29L84.8 116.31C83.34 119 82.11 121.93 81.5 125.1L81.38 125.59C81.01 127.66 80.77 129.62 80.77 131.69L80.77 131.81C80.77 149.02 94.7 162.94 112.06 162.94C129.05 162.94 142.99 149.39 143.23 132.3L143.23 131.69C143.23 126.69 142.01 121.56 139.57 117.04L131.38 101.91L151.18 64.93L169.39 99.22C174.89 108.87 178.07 119.97 178.07 131.81Z " /></g></g></svg>