<svg xmlns="http://www.w3.org/2000/svg" xmlns:xlink="http://www.w3.org/1999/xlink" width="308" height="308" viewBox="0 0 308 308" fill="none"><defs><rect id="path_0" x="0" y="0" width="308" height="308" /></defs><g opacity="1" transform="translate(0 0)  rotate(0 154 154)"><mask id="bg-mask-0" fill="white"><use xlink:href="#path_0"></use></mask><g mask="url(#bg-mask-0)" ><path id="路径 1" fill-rule="evenodd" style="fill:#000000" transform="translate(55 36)  rotate(0 98.83369027703077 114.00000000000003)" opacity="1" d="M164.63,77C128.07,77 69.21,77 32.63,77L32.63,132.5L57.5,132.5C62.5,132.5 133.73,132.5 152.74,132.5C159.79,132.5 164.63,132.5 164.63,132.5L164.63,77Z M128.05,197.25L152.74,132.5C133.73,132.5 62.5,132.5 57.5,132.5L26.25,228L87,228C118.62,228 128.05,197.25 128.05,197.25Z M161.12,228C182.62,228 181.12,197.25 161.12,197.25L128.05,197.25C128.05,197.25 118.62,228 87,228L161.12,228Z M11.13 0L11.13 47.7301L11.0335 48.4538Q11.0437 48.3777 11.0492 48.3289Q11.0497 48.3245 11.05 48.3214Q11.05 48.3215 11.0499 48.3231Q11.0486 48.3353 11.047 48.3531Q11.0296 48.54 11.0176 48.7992Q10.971 49.8033 11.0489 50.9254Q11.1593 52.5159 11.5054 54.0096Q11.9152 55.7785 12.6286 57.2804Q13.4143 58.9345 14.5623 60.2383Q15.8846 61.7399 17.751 62.8432Q20.1057 64.2351 23.3456 65.0206Q27.3857 66 32.63 66L32.63 88Q17.075 88 6.55584 81.7818Q1.68207 78.9007 -1.94882 74.7773Q-5.13475 71.1592 -7.24355 66.7196Q-8.97939 63.0652 -9.92701 58.9748Q-10.6669 55.781 -10.8983 52.4496Q-11.0645 50.0561 -10.9587 47.7789Q-10.8987 46.4849 -10.7735 45.5462L0.13 47L-10.87 47L-10.87 0L11.13 0Z M208.63 0L208.63 47L197.63 47L208.592 46.0865Q208.67 47.0178 208.668 48.3022Q208.665 50.5606 208.395 52.9322Q208.02 56.2246 207.164 59.376Q206.072 63.3978 204.248 66.9846Q202.038 71.3337 198.837 74.8789Q195.174 78.9362 190.36 81.7818Q179.841 88 164.63 88L164.63 66Q169.674 66 173.609 65.0304Q176.792 64.2459 179.165 62.8432Q182.752 60.723 184.637 57.0154Q185.434 55.446 185.934 53.6084Q186.351 52.0723 186.537 50.4428Q186.667 49.2988 186.668 48.276Q186.668 48.011 186.66 47.8192Q186.659 47.7993 186.658 47.7873Q186.658 47.7873 186.659 47.7913Q186.662 47.8387 186.668 47.9135L186.63 47.4575L186.63 0L208.63 0Z " /><path  id="路径 1" style="stroke:#000000; stroke-width:22; stroke-opacity:1; stroke-dasharray:0 0" transform="translate(55 36)  rotate(0 98.83369027703077 114.00000000000003)" d="" /></g></g></svg>