<svg xmlns="http://www.w3.org/2000/svg" xmlns:xlink="http://www.w3.org/1999/xlink" width="308" height="308" viewBox="0 0 308 308" fill="none"><defs><rect id="path_0" x="0" y="0" width="308" height="308" /></defs><g opacity="1" transform="translate(0 0)  rotate(0 154 154)"><mask id="bg-mask-0" fill="white"><use xlink:href="#path_0"></use></mask><g mask="url(#bg-mask-0)" ><path id="路径 1"  style="fill:#000000" transform="translate(241.61 44)  rotate(0 0.5 110.00000000000003)" opacity="1" d="M-10 -11L-10 231L12 231L12 -11L-10 -11Z " /><path  id="路径 1" style="stroke:#000000; stroke-width:22; stroke-opacity:1; stroke-dasharray:0 0" transform="translate(241.61 44)  rotate(0 0.5 110.00000000000003)" d="" /><path  id="路径 1" style="stroke:#000000; stroke-width:22; stroke-opacity:1; stroke-dasharray:0 0" transform="translate(51.47 66.13)  rotate(90 96.28478723303708 82.75495547256541)" d="M190.54,142.2L110.69,6.13C105.8,-2.05 94.03,-2.04 89.48,6.13L2.2,140.82C-4.46,152.97 4.9,165.51 18.27,165.51C18.27,165.51 178.29,165.51 178.29,165.51C188.44,165.51 196.49,152.52 190.54,142.2Z " /></g></g></svg>