<svg xmlns="http://www.w3.org/2000/svg" xmlns:xlink="http://www.w3.org/1999/xlink" width="308" height="308" viewBox="0 0 308 308" fill="none"><defs><rect id="path_0" x="0" y="0" width="308" height="308" /></defs><g opacity="1" transform="translate(0 0)  rotate(0 154 154)"><mask id="bg-mask-0" fill="white"><use xlink:href="#path_0"></use></mask><g mask="url(#bg-mask-0)" ><path id="路径_802" fill-rule="evenodd" style="fill:#000000" transform="translate(9 71)  rotate(0 145.50000000000006 83.22375962360992)" opacity="1" d="M46.11 0.77C65.49 4.68 78.76 22.68 76.8 42.38C74.83 62.09 58.28 77.1 38.5 77.1C33.36 77.1 28.28 76.08 23.56 74.08L23.57 74.08C5.34 66.4 -4.11 46.13 1.72 27.2C7.53 8.28 26.73 -3.16 46.11 0.77ZM212.74 23.52C212.79 19.61 211.84 15.77 209.98 12.35C208.19 9.07 205.55 6.36 202.33 4.48C199.02 2.55 195.24 1.56 191.4 1.61L158.12 1.61L158.12 76.03L171.28 76.03L171.28 45.94L185.56 46.06L204.1 76.03L218.55 76.03L199.26 44.56C203.28 43.01 206.69 40.2 208.97 36.53C211.45 32.64 212.76 28.12 212.74 23.52ZM98.06 1.61L98.06 44.64C98.06 52.29 99.67 64.77 115.86 64.77C132.04 64.77 133.44 52.29 133.44 44.64L133.44 1.61L146.61 1.61L146.61 45.63C146.61 51.86 145.38 77.09 115.86 77.09C86.34 77.09 85 51.86 85 45.63L85 1.61L98.06 1.61ZM196.82 16.92C198.68 18.65 199.72 21.08 199.68 23.63C199.66 28.92 195.42 33.22 190.13 33.3L171.28 33.3L171.28 14.16L190.13 14.16C192.64 14.15 195.05 15.14 196.82 16.92ZM14.56 38.47C14.56 48.09 20.34 56.75 29.21 60.43C38.08 64.11 48.29 62.08 55.08 55.27C61.87 48.47 63.89 38.25 60.22 29.37C56.54 20.49 47.89 14.7 38.29 14.7C25.19 14.71 14.56 25.34 14.55 38.47L14.56 38.47ZM15.97 141.67L3.23 144.86C3.62 148.89 5.15 152.73 7.63 155.92C10.23 159.24 13.61 161.89 17.46 163.62C25.96 167.34 35.62 167.37 44.16 163.73C47.82 162.09 50.92 159.43 53.13 156.08C55.27 152.69 56.38 148.76 56.31 144.75C56.49 140.89 55.38 137.08 53.18 133.91C51.22 131.25 48.65 129.1 45.69 127.63C41.97 125.89 38.14 124.41 34.23 123.16C30.75 122.03 28.02 121.04 26 120.19C24.09 119.42 22.37 118.23 20.96 116.74C19.59 115.25 18.87 113.28 18.94 111.27C18.87 108.64 20.03 106.14 22.07 104.52C24.45 102.68 27.41 101.76 30.4 101.91C33.13 101.85 35.79 102.77 37.89 104.52C40.02 106.32 41.53 108.76 42.19 111.47L54.72 108.18C53.53 102.86 50.46 98.16 46.07 94.95C41.55 91.58 36.04 89.8 30.4 89.9C26.01 89.81 21.66 90.72 17.66 92.56C14.16 94.17 11.21 96.78 9.17 100.05C7.15 103.43 6.12 107.32 6.2 111.27C6.2 115.87 7.25 119.59 9.33 122.43C11.29 125.16 13.9 127.35 16.93 128.81C20.63 130.5 24.47 131.92 28.39 133.06C31.93 134.19 34.68 135.19 36.67 136.04C38.53 136.8 40.22 137.97 41.61 139.44C42.94 140.92 43.64 142.87 43.57 144.86C43.62 147.6 42.31 150.19 40.07 151.77C37.37 153.66 34.12 154.58 30.83 154.42C27.13 154.47 23.54 153.15 20.75 150.7C17.98 148.49 16.25 145.21 15.97 141.67ZM216.99 92.61C215.46 94.05 214.62 96.09 214.65 98.19C214.6 100.28 215.44 102.31 216.93 103.77C218.42 105.28 220.49 106.11 222.61 106.05C224.69 106.11 226.7 105.27 228.13 103.77C231.1 100.65 231.1 95.74 228.13 92.61C226.7 91.1 224.69 90.28 222.61 90.32C220.51 90.29 218.48 91.11 216.99 92.61ZM202.87 90.96L202.87 165.38L190.12 165.38L190.12 161.63C179.82 168.44 166.15 167.06 157.42 158.32C147.97 148.89 147.2 133.8 155.65 123.44C164.09 113.09 179.01 110.83 190.13 118.23L190.13 90.96L202.87 90.96ZM76.9 115.41L112.04 115.41L112.04 143.58C111.93 146.48 113.02 149.3 115.07 151.34C117.02 153.3 119.68 154.37 122.45 154.32C125.21 154.41 127.87 153.34 129.83 151.4C131.83 149.31 132.89 146.48 132.74 143.58L132.74 115.41L145.48 115.41L145.48 144.65C145.56 148.62 144.55 152.53 142.57 155.97C140.63 159.25 137.82 161.92 134.45 163.68C130.73 165.58 126.61 166.53 122.45 166.44C118.23 166.53 114.06 165.58 110.29 163.68C106.9 161.94 104.08 159.27 102.17 155.97C100.21 152.52 99.23 148.61 99.3 144.65L99.3 127.64L76.9 127.53L76.9 145.18C76.9 149.7 79.04 153.31 85.18 153.25L93.16 153.25L93.16 165.48L83.7 165.49C65.31 165.38 64.17 150.11 64.17 146.56L64.17 102.87L76.9 102.87L76.9 115.41ZM216.14 165.38L216.14 115.41L228.88 113.15L228.88 165.38L216.14 165.38ZM243.43 125.48C250.3 115.16 263.52 111.15 274.96 115.9C286.41 120.65 292.92 132.84 290.5 145.01C288.08 157.18 277.41 165.94 265.02 165.94C258.12 165.97 251.5 163.22 246.64 158.32L246.66 158.33C237.89 149.55 236.54 135.8 243.43 125.48ZM190.13 143.13C188.5 150.44 181.63 155.37 174.19 154.55C166.75 153.73 161.11 147.43 161.11 139.94C161.11 132.43 166.75 126.13 174.19 125.31C181.63 124.49 188.5 129.42 190.13 136.74L190.13 143.13ZM250.34 139.93C250.34 148.04 256.91 154.63 265.02 154.63C273.12 154.63 279.7 148.04 279.7 139.93C279.7 131.82 273.12 125.23 265.02 125.23C256.91 125.23 250.34 131.81 250.33 139.93L250.34 139.93Z" /></g></g></svg>