<svg xmlns="http://www.w3.org/2000/svg" xmlns:xlink="http://www.w3.org/1999/xlink" width="308" height="308" viewBox="0 0 308 308" fill="none"><defs><rect id="path_0" x="0" y="0" width="308" height="308" /></defs><g opacity="1" transform="translate(0 0)  rotate(0 154 154)"><mask id="bg-mask-0" fill="white"><use xlink:href="#path_0"></use></mask><g mask="url(#bg-mask-0)" ><path  id="路径 1" style="stroke:#000000; stroke-width:22; stroke-opacity:1; stroke-dasharray:0 0" transform="translate(35.98620913087143 36.88923103148102)  rotate(-32.535425238465265 119.98110924026116 114.4821209109191)" d="M143.68,151C173.68,130 236.18,184.5 239.96,115.25C240.19,44.03 181.09,0 118.68,0C42.18,3.5 0.51,59.52 0.1,116.88C-2.31,169.03 38.21,229.55 104.56,228.96C169.84,225.17 108.68,177.5 143.68,151Z " /><path  id="路径 2" style="stroke:#000000; stroke-width:22; stroke-opacity:1; stroke-dasharray:0 0" transform="translate(160.74 78.82)  rotate(0 19.999999999999996 20)" d="M40,20C40,8.95 31.05,0 20,0C8.95,0 0,8.95 0,20C0,31.05 8.95,40 20,40C31.05,40 40,31.05 40,20Z " /><path  id="路径 3" style="stroke:#000000; stroke-width:22; stroke-opacity:1; stroke-dasharray:0 0" transform="translate(90 117)  rotate(0 19.49999999999927 19.49999999999927)" d="M39,19.5C39,8.73 30.27,0 19.5,0C8.73,0 0,8.73 0,19.5C0,30.27 8.73,39 19.5,39C30.27,39 39,30.27 39,19.5Z " /><path  id="路径 4" style="stroke:#000000; stroke-width:22; stroke-opacity:1; stroke-dasharray:0 0" transform="translate(103.9999999999984 190.00000000000003)  rotate(0 19.49999999999927 19.499999999999996)" d="M39,19.5C39,8.73 30.27,0 19.5,0C8.73,0 0,8.73 0,19.5C0,30.27 8.73,39 19.5,39C30.27,39 39,30.27 39,19.5Z " /></g></g></svg>