<svg xmlns="http://www.w3.org/2000/svg" xmlns:xlink="http://www.w3.org/1999/xlink" width="308" height="308" viewBox="0 0 308 308" fill="none"><defs><rect id="path_0" x="0" y="0" width="308" height="308" /></defs><g opacity="1" transform="translate(0 0)  rotate(0 154 154)"><mask id="bg-mask-0" fill="white"><use xlink:href="#path_0"></use></mask><g mask="url(#bg-mask-0)" ><path id="拼合图形" fill-rule="evenodd" style="fill:#000000" transform="translate(83 83)  rotate(0 71 71)" opacity="1" d="M81.7 0L81.7 142L59.7 142L59.7 0L81.7 0Z M0 60L142 60L142 82L0 82L0 60Z M28.5782 13.0218L128.978 113.422L113.422 128.978L13.0218 28.5782L28.5782 13.0218Z M13.0218 113.422L113.422 13.0218L128.978 28.5782L28.5782 128.978L13.0218 113.422Z " /><path  id="拼合图形" style="stroke:#000000; stroke-width:22; stroke-opacity:1; stroke-dasharray:0 0" transform="translate(83 83)  rotate(0 71 71)" d="" /><path id="并集"  style="fill:#000000" transform="translate(40 40)  rotate(0 114 114)" opacity="1" d="" /><path  id="并集" style="stroke:#000000; stroke-width:22; stroke-opacity:1; stroke-dasharray:0 0" transform="translate(40 40)  rotate(0 114 114)" d="" /><path id="路径 1"  style="fill:#000000" transform="translate(268 190)  rotate(0 0.0005 18.5)" opacity="1" d="M10.9997 -11.0003L11 -0.000297297L0 0L11 0L11 36.9997L11.001 36.9997L11.0013 47.9997L-10.9987 48.0003L-10.999 37.0003L0.000999451 37L-11 37L-11 0L-11.0003 -10.9997L10.9997 -11.0003Z " /><path  id="路径 1" style="stroke:#000000; stroke-width:22; stroke-opacity:1; stroke-dasharray:0 0" transform="translate(268 190)  rotate(0 0.0005 18.5)" d="" /><path id="路径 1"  style="fill:#000000" transform="translate(268 267.5)  rotate(0 0.0005 0.25)" opacity="1" d="M-10.999 -11L-10.999 0L-11 0L-11 0.5L-10.999 0.5L-10.999 11.5L11.001 11.5L11.001 0.5L11 0.5L11 0L11.001 0L11.001 -11L-10.999 -11Z " /><path  id="路径 1" style="stroke:#000000; stroke-width:22; stroke-opacity:1; stroke-dasharray:0 0" transform="translate(268 267.5)  rotate(0 0.0005 0.25)" d="" /></g></g></svg>