<svg xmlns="http://www.w3.org/2000/svg" xmlns:xlink="http://www.w3.org/1999/xlink" width="308" height="308" viewBox="0 0 308 308" fill="none"><defs><rect id="path_0" x="0" y="0" width="308" height="308" /></defs><g opacity="1" transform="translate(0 0)  rotate(0 154 154)"><mask id="bg-mask-0" fill="white"><use xlink:href="#path_0"></use></mask><g mask="url(#bg-mask-0)" ><path id="拼合图形" fill-rule="evenodd" style="fill:#000000" transform="translate(83 83)  rotate(0 71 71)" opacity="1" d="M81.7 0L81.7 142L59.7 142L59.7 0L81.7 0Z M0 60L142 60L142 82L0 82L0 60Z M28.5782 13.0218L128.978 113.422L113.422 128.978L13.0218 28.5782L28.5782 13.0218Z M13.0218 113.422L113.422 13.0218L128.978 28.5782L28.5782 128.978L13.0218 113.422Z " /><path  id="拼合图形" style="stroke:#000000; stroke-width:22; stroke-opacity:1; stroke-dasharray:0 0" transform="translate(83 83)  rotate(0 71 71)" d="" /><path  id="并集" style="stroke:#000000; stroke-width:22; stroke-opacity:1; stroke-dasharray:0 0" transform="translate(40 40)  rotate(0 114 114)" d="M48.63,0C20.18,0 0,13 0,44L0,109L0,184C0,215 20.18,228 48.63,228L179.78,228C214.08,228 228,212 228,184L228,109L228,44C228,16 214.08,0 179.78,0L48.63,0Z " /></g></g></svg>