<svg xmlns="http://www.w3.org/2000/svg" xmlns:xlink="http://www.w3.org/1999/xlink" width="308" height="308" viewBox="0 0 308 308" fill="none"><defs><rect id="path_0" x="0" y="0" width="308" height="308" /></defs><g opacity="1" transform="translate(0 0)  rotate(0 154 154)"><mask id="bg-mask-0" fill="white"><use xlink:href="#path_0"></use></mask><g mask="url(#bg-mask-0)" ><path id="并集" fill-rule="evenodd" style="fill:#000000" transform="translate(48 71)  rotate(0 95 87.00000000000003)" opacity="1" d="M110 185L55.85 185Q41.7696 185 30.2694 181.656Q17.6649 177.991 8.63162 170.463Q3.85353 166.481 0.19387 161.502Q-3.52442 156.443 -6.02259 150.443Q-11 138.489 -11 123.16L-11 89.62L-11 50.84Q-11 35.511 -6.02259 23.5565Q-3.52442 17.5566 0.19387 12.4979Q3.85354 7.51899 8.63162 3.53715Q17.665 -3.99082 30.2694 -7.65595Q41.7697 -11 55.85 -11L55.85 11Q44.9034 11 36.4122 13.4691Q28.2196 15.8513 22.7159 20.4378Q17.189 25.0437 14.2873 32.0128Q11 39.9081 11 50.84L11 89.62L11 123.16Q11 134.092 14.2873 141.987Q17.189 148.956 22.7159 153.562Q28.2196 158.149 36.4122 160.531Q44.9034 163 55.85 163L110 163L110 185Z M134.61 -11Q150.92 -11 163.22 -7.08808Q176.109 -2.98902 184.744 5.39809Q201 21.1872 201 50.84L179 50.84Q179 40.3019 176.461 32.7577Q174.092 25.7215 169.416 21.1794Q158.936 11 134.61 11L134.61 -11Z " /><path  id="并集" style="stroke:#000000; stroke-width:22; stroke-opacity:1; stroke-dasharray:0 0" transform="translate(48 71)  rotate(0 95 87.00000000000003)" d="" /><path  id="并集" style="stroke:#000000; stroke-width:22; stroke-opacity:1; stroke-dasharray:0 0" transform="translate(105 39)  rotate(0 38 31.684999999999995)" d="M37.5,0L26.5,0C8.5,0 0,12.5 0,27.87L0,35.5C0,50.87 8.5,63.37 26.5,63.37L37.5,63.37L48.5,63.37C65.5,63.37 76,50.38 76,35.5L76,27.87C76,12.99 65.5,0 48.5,0L37.5,0Z " /><path  id="并集" style="stroke:#000000; stroke-width:22; stroke-opacity:1; stroke-dasharray:0 0" transform="translate(154 125)  rotate(0 55.513166706529546 70)" d="M0,56.92L0.03,94.5C0.03,126.46 20.28,140 49.5,140L61.03,140C96.26,140 111.03,123.37 111.03,94.5L111,56.92L111,45.37C111,16.5 96.7,0 61.47,0L49.94,0C20.72,0 0,13.4 0,45.37L0,56.92Z " /></g></g></svg>