<svg xmlns="http://www.w3.org/2000/svg" xmlns:xlink="http://www.w3.org/1999/xlink" width="308" height="308" viewBox="0 0 308 308" fill="none"><defs><rect id="path_0" x="0" y="0" width="308" height="308" /></defs><g opacity="1" transform="translate(0 0)  rotate(0 154 154)"><mask id="bg-mask-0" fill="white"><use xlink:href="#path_0"></use></mask><g mask="url(#bg-mask-0)" ><path  id="并集" style="stroke:#000000; stroke-width:22; stroke-opacity:1; stroke-dasharray:0 0" transform="translate(35.07999999999993 50)  rotate(0 48.42477876106194 104)" d="M0,164C0,195 20.18,208 48.63,208C82.93,208 96.85,192 96.85,164L96.85,109L96.85,44C96.85,16 82.93,0 48.63,0C20.18,0 0,13 0,44L0,109L0,164Z " /><path  id="并集" style="stroke:#000000; stroke-width:22; stroke-opacity:1; stroke-dasharray:0 0" transform="translate(176.07999999999993 50)  rotate(0 48.42477876106194 104)" d="M0,164C0,195 20.18,208 48.63,208C82.93,208 96.85,192 96.85,164L96.85,109L96.85,44C96.85,16 82.93,0 48.63,0C20.18,0 0,13 0,44L0,109L0,164Z " /></g></g></svg>