<svg xmlns="http://www.w3.org/2000/svg" xmlns:xlink="http://www.w3.org/1999/xlink" width="308" height="308" viewBox="0 0 308 308" fill="none"><defs><rect id="path_0" x="0" y="0" width="308" height="308" /></defs><g opacity="1" transform="translate(0 0)  rotate(0 154 154)"><mask id="bg-mask-0" fill="white"><use xlink:href="#path_0"></use></mask><g mask="url(#bg-mask-0)" ><path id="拼合图形" fill-rule="evenodd" style="fill:#000000" transform="translate(44 44)  rotate(0 110 110)" opacity="1" d="M11.1,154.21L0,220L66.88,208.9L211.88,58.97C222.84,47.65 222.68,29.64 211.55,18.49L201.53,8.46C190.36,-2.71 172.29,-2.83 160.98,8.19L11.1,154.21Z M26.3265 144.89L74.6965 193.74L59.0635 209.22L10.6935 160.37L26.3265 144.89Z M152.38 17.9134L202.51 68.0634L186.95 83.6166L136.82 33.4666L152.38 17.9134Z " /><path  id="拼合图形" style="stroke:#000000; stroke-width:22; stroke-opacity:1; stroke-dasharray:0 0" transform="translate(44 44)  rotate(0 110 110)" d="" /></g></g></svg>