<svg xmlns="http://www.w3.org/2000/svg" xmlns:xlink="http://www.w3.org/1999/xlink" width="308" height="308" viewBox="0 0 308 308" fill="none"><defs><rect id="path_0" x="0" y="0" width="308" height="308" /></defs><g opacity="1" transform="translate(0 0)  rotate(0 154 154)"><mask id="bg-mask-0" fill="white"><use xlink:href="#path_0"></use></mask><g mask="url(#bg-mask-0)" ><path  id="路径 1" style="stroke:#000000; stroke-width:22; stroke-opacity:1; stroke-dasharray:0 0" transform="translate(49.5 36)  rotate(0 104.5 116.49999999999999)" d="M0,29.09L0,84C0,143 15.17,209.55 104.5,233C193.95,209.89 209,142 209,84L209,29.09L104.5,0L0,29.09Z " /><path id="并集" fill-rule="evenodd" style="fill:#000000" transform="translate(98 109)  rotate(0 58.5 39)" opacity="1" d="M116.557 -15.55L109.004 -7.55358L117.266 0.250889L109.003 -7.55345L39.352 66.1864L7.95131 33.3389L7.94998 33.3402L0.349981 25.3903L-15.5524 40.5927L-7.9512 48.5439L-7.94986 48.5426L25.3417 83.368L25.6689 83.6599Q28.4199 86.1131 31.8306 87.491Q35.3531 88.9141 39.0936 88.9949Q43.1369 89.0823 46.861 87.5916Q50.7685 86.0275 53.7877 82.9376L124.996 7.55357L124.997 7.55345L132.55 -0.442902L116.557 -15.55Z " /><path  id="并集" style="stroke:#000000; stroke-width:22; stroke-opacity:1; stroke-dasharray:0 0" transform="translate(98 109)  rotate(0 58.5 39)" d="" /></g></g></svg>