<svg xmlns="http://www.w3.org/2000/svg" xmlns:xlink="http://www.w3.org/1999/xlink" width="308" height="308" viewBox="0 0 308 308" fill="none"><defs><rect id="path_0" x="0" y="0" width="308" height="308" /></defs><g opacity="1" transform="translate(1.8189894035458565e-12 0)  rotate(0 154 154)"><mask id="bg-mask-0" fill="white"><use xlink:href="#path_0"></use></mask><g mask="url(#bg-mask-0)" ><path id="并集"  style="fill:#000000" transform="translate(40 40)  rotate(0 114 114)" opacity="1" d="" /><path  id="并集" style="stroke:#000000; stroke-width:22; stroke-opacity:1; stroke-dasharray:0 0" transform="translate(40 40)  rotate(0 114 114)" d="" /><path id="圆形 2" fill-rule="evenodd" style="fill:#000000" transform="translate(74 88)  rotate(0 59.16206896551724 66.5)" opacity="1" d="M50.08,82.92C44.77,77.61 37.43,74.33 29.33,74.33C13.13,74.33 0,87.46 0,103.66C0,119.87 13.13,133 29.33,133C45.53,133 58.67,119.87 58.67,103.66C58.67,95.56 55.38,88.23 50.08,82.92Z M49.1358 98.1737L108.786 -5.48633L127.854 5.48633L68.2042 109.146L49.1358 98.1737Z " /><path  id="圆形 2" style="stroke:#000000; stroke-width:22; stroke-opacity:1; stroke-dasharray:0 0" transform="translate(74 88)  rotate(0 59.16206896551724 66.5)" d="" /><path id="圆形 2" fill-rule="evenodd" style="fill:#000000" transform="translate(115 87)  rotate(0 59.5 67)" opacity="1" d="M89.67,75.2C81.57,75.2 74.24,78.49 68.93,83.81C63.63,89.13 60.34,96.48 60.34,104.6C60.34,120.84 73.47,134 89.67,134C105.87,134 119,120.84 119,104.6C119,88.36 105.87,75.2 89.67,75.2Z M50.8117 110.097L-9.52828 5.49653L9.52828 -5.49653L69.8683 99.1035L50.8117 110.097Z " /><path  id="圆形 2" style="stroke:#000000; stroke-width:22; stroke-opacity:1; stroke-dasharray:0 0" transform="translate(115 87)  rotate(0 59.5 67)" d="" /></g></g></svg>