<svg xmlns="http://www.w3.org/2000/svg" xmlns:xlink="http://www.w3.org/1999/xlink" width="308" height="308" viewBox="0 0 308 308" fill="none"><defs><rect id="path_0" x="0" y="0" width="308" height="308" /></defs><g opacity="1" transform="translate(0 0)  rotate(0 154 154)"><mask id="bg-mask-0" fill="white"><use xlink:href="#path_0"></use></mask><g mask="url(#bg-mask-0)" ><path id="圆形 1"  style="fill:#000000" transform="translate(54 82.84317308557729)  rotate(0 100 91.57841345721135)" opacity="1" d="M149.439 9.13911L140.301 3.02121L152.54 -15.2602L161.681 -9.14069L158.611 -4.55609L161.681 -9.13963Q170.802 -3.03134 178.497 4.68023Q186.054 12.2331 192.037 21.0873Q198.079 30.0298 202.274 39.9464Q206.546 50.049 208.746 60.7986Q211 71.8188 211 83.16Q211 94.4993 208.745 105.519Q206.546 116.267 202.273 126.37Q198.079 136.286 192.037 145.229Q186.055 154.084 178.489 161.649Q170.924 169.215 162.069 175.197Q153.126 181.239 143.21 185.433Q133.107 189.706 122.359 191.905Q111.339 194.16 100 194.16Q88.6607 194.16 77.6409 191.905Q66.8927 189.706 56.7899 185.433Q46.8742 181.239 37.9306 175.197Q29.0763 169.215 21.5106 161.649Q13.9449 154.084 7.96312 145.229Q1.92107 136.286 -2.27282 126.37Q-6.54581 116.267 -8.74513 105.519Q-11 94.4993 -11 83.16Q-11 71.8188 -8.74555 60.7986Q-6.54643 50.0489 -2.27362 39.9464Q1.92054 30.0298 7.96327 21.0873Q13.9463 12.2332 21.514 4.66967Q29.1983 -3.0313 38.319 -9.13963L41.3749 -4.57663L38.3194 -9.14068L47.4601 -15.2602L59.699 3.02122L50.5607 9.1391L50.561 9.13963Q43.2409 14.0421 37.066 20.2303Q30.9922 26.3008 26.1917 33.4049Q21.3484 40.5725 17.9886 48.5162Q14.5685 56.6027 12.8081 65.2079Q11 74.0461 11 83.16Q11 92.2715 12.8083 101.109Q14.5689 109.713 17.9894 117.8Q21.3493 125.744 26.1929 132.914Q30.9934 140.02 37.0669 146.093Q43.1405 152.167 50.2462 156.967Q57.4159 161.811 65.3598 165.171Q73.447 168.591 82.0512 170.352Q90.8885 172.16 100 172.16Q109.112 172.16 117.949 170.352Q126.553 168.591 134.64 165.171Q142.584 161.811 149.754 156.967Q156.86 152.167 162.933 146.093Q169.007 140.02 173.807 132.914Q178.651 125.744 182.011 117.8Q185.431 109.713 187.192 101.109Q189 92.2715 189 83.16Q189 74.0461 187.192 65.2079Q185.432 56.6027 182.011 48.5162Q178.652 40.5725 173.808 33.4049Q169.008 26.3008 162.923 20.2198Q156.759 14.0421 149.439 9.13963L149.439 9.13911Z " /><path  id="圆形 1" style="stroke:#000000; stroke-width:22; stroke-opacity:1; stroke-dasharray:0 0" transform="translate(54 82.84317308557729)  rotate(0 100 91.57841345721135)" d="" /><path id="路径 1"  style="fill:#000000" transform="translate(154 33)  rotate(0 0.5 56)" opacity="1" d="M10.9999 -11.0001L11 -9.82143e-05L0 0L11 0L11 112L11.001 112L11.0011 123L-10.9989 123L-10.999 112L0.000999451 112L-11 112L-11 0L-11.0001 -10.9999L10.9999 -11.0001Z " /><path  id="路径 1" style="stroke:#000000; stroke-width:22; stroke-opacity:1; stroke-dasharray:0 0" transform="translate(154 33)  rotate(0 0.5 56)" d="" /></g></g></svg>