<svg xmlns="http://www.w3.org/2000/svg" xmlns:xlink="http://www.w3.org/1999/xlink" width="308" height="308" viewBox="0 0 308 308" fill="none"><defs><rect id="path_0" x="0" y="0" width="308" height="308" /></defs><g opacity="1" transform="translate(0 0)  rotate(0 154 154)"><mask id="bg-mask-0" fill="white"><use xlink:href="#path_0"></use></mask><g mask="url(#bg-mask-0)" ><path id="路径 1"  style="fill:#000000" transform="translate(148.5 32.5)  rotate(-90 0.5 55.00000000000001)" opacity="1" d="M-11 -11L-11 121L11 121L11 -11L-11 -11Z " /><path  id="路径 1" style="stroke:#000000; stroke-width:22; stroke-opacity:1; stroke-dasharray:0 0" transform="translate(148.5 32.5)  rotate(-90 0.5 55.00000000000001)" d="" /><path id="路径 1"  style="fill:#000000" transform="translate(126.5 99.5)  rotate(-90 0.5 33)" opacity="1" d="M-11 -11L-11 77L11 77L11 -11L-11 -11Z " /><path  id="路径 1" style="stroke:#000000; stroke-width:22; stroke-opacity:1; stroke-dasharray:0 0" transform="translate(126.5 99.5)  rotate(-90 0.5 33)" d="" /><path  id="并集" style="stroke:#000000; stroke-width:22; stroke-opacity:1; stroke-dasharray:0 0" transform="translate(57.92080404050648 42)  rotate(0 96.07919595949289 111.85459797974647)" d="M0.08,45.37L0.08,223C0.08,223 -0.1,223.45 0.08,223.63C0.26,223.81 0.58,223.63 0.58,223.63L96.08,182L191.58,223.63C191.58,223.63 191.9,223.81 192.08,223.63C192.26,223.45 192.08,223 192.08,223L192.08,45.37C192.08,16.5 177.78,0 142.55,0L50.02,0C20.8,0 0.08,13.4 0.08,45.37Z " /></g></g></svg>