<svg xmlns="http://www.w3.org/2000/svg" xmlns:xlink="http://www.w3.org/1999/xlink" width="308" height="308" viewBox="0 0 308 308" fill="none"><defs><rect id="path_0" x="0" y="0" width="308" height="308" /></defs><g opacity="1" transform="translate(0 0)  rotate(0 154 154)"><mask id="bg-mask-0" fill="white"><use xlink:href="#path_0"></use></mask><g mask="url(#bg-mask-0)" ><path id="路径 1"  style="fill:#000000" transform="translate(153.5 152)  rotate(-90 0.5 101.5)" opacity="1" d="M10.9457 -11.0541L10.9999 -0.0541865L11.9999 202.946L12.0541 213.946L-9.94566 214.054L-9.99985 203.054L-10.9999 0.0541865L-11.0541 -10.9457L10.9457 -11.0541Z " /><path  id="路径 1" style="stroke:#000000; stroke-width:22; stroke-opacity:1; stroke-dasharray:0 0" transform="translate(153.5 152)  rotate(-90 0.5 101.5)" d="" /><path id="路径 1"  style="fill:#000000" transform="translate(153.5 131)  rotate(-90 0.5 73)" opacity="1" d="M11.9997 0.0753407L12.0751 -10.9244L-9.9244 -11.0751L-9.99974 -0.0753407L-10.9997 145.925L-11.0751 156.924L10.9244 157.075L10.9998 146.075L11.9997 0.0753407Z " /><path  id="路径 1" style="stroke:#000000; stroke-width:22; stroke-opacity:1; stroke-dasharray:0 0" transform="translate(153.5 131)  rotate(-90 0.5 73)" d="" /><path id="路径 1"  style="fill:#000000" transform="translate(153.5 61)  rotate(-90 0.5 93.5)" opacity="1" d="M11 -11L11 198L-11 198L-11 -11L11 -11Z " /><path  id="路径 1" style="stroke:#000000; stroke-width:22; stroke-opacity:1; stroke-dasharray:0 0" transform="translate(153.5 61)  rotate(-90 0.5 93.5)" d="" /><path id="路径 1"  style="fill:#000000" transform="translate(153.5 31.499999999999886)  rotate(-90 0.5 73.5)" opacity="1" d="M11.9997 0.0748281L12.0746 -10.9249L-9.92492 -11.0746L-9.99975 -0.0748282L-10.9997 146.925L-11.0746 157.925L10.9249 158.075L10.9997 147.075L11.9997 0.0748281Z " /><path  id="路径 1" style="stroke:#000000; stroke-width:22; stroke-opacity:1; stroke-dasharray:0 0" transform="translate(153.5 31.499999999999886)  rotate(-90 0.5 73.5)" d="" /><path id="路径 1"  style="fill:#000000" transform="translate(153.5 -38.25)  rotate(-90 0.5 93.75)" opacity="1" d="M11 -11L11 198L-11 198L-11 -11L11 -11Z " /><path  id="路径 1" style="stroke:#000000; stroke-width:22; stroke-opacity:1; stroke-dasharray:0 0" transform="translate(153.5 -38.25)  rotate(-90 0.5 93.75)" d="" /><path id="路径 2"  style="fill:#000000" transform="translate(153.99950000000172 45.5)  rotate(0 0.5 109.25)" opacity="1" d="M11.001 5.03432e-05L11.0011 -10.9999L-10.9989 -11.0001L-10.999 -5.03432e-05L0.0010004 0L-11 0L-11 218.5L-11 229.5L11 229.5L11 218.5L11 5.03386e-05L11.001 5.03432e-05Z " /><path  id="路径 2" style="stroke:#000000; stroke-width:22; stroke-opacity:1; stroke-dasharray:0 0" transform="translate(153.99950000000172 45.5)  rotate(0 0.5 109.25)" d="" /></g></g></svg>