<svg xmlns="http://www.w3.org/2000/svg" xmlns:xlink="http://www.w3.org/1999/xlink" width="308" height="308" viewBox="0 0 308 308" fill="none"><defs><rect id="path_0" x="0" y="0" width="308" height="308" /></defs><g opacity="1" transform="translate(0 0)  rotate(0 154 154)"><mask id="bg-mask-0" fill="white"><use xlink:href="#path_0"></use></mask><g mask="url(#bg-mask-0)" ><path id="并集" fill-rule="evenodd" style="fill:#000000" transform="translate(40.5 40.5)  rotate(0 113.5 113.5)" opacity="1" d="M0,113.5C0,176.18 50.82,227 113.5,227C176.18,227 227,176.18 227,113.5C227,50.82 176.18,0 113.5,0C50.82,0 0,50.82 0,113.5Z M102.36 15.4954L102.355 26.4954L102.36 26.4954L102.321 120.517Q102.279 124.575 103.821 128.24Q105.311 131.783 108.068 134.46Q110.735 137.051 114.187 138.444Q117.683 139.855 121.338 139.82L179.777 139.83L179.777 139.832L190.777 139.834L190.781 117.834L179.782 117.832L179.782 117.83L124.321 117.821L124.36 26.5047L112.851 26.4998L124.355 26.5045L124.36 15.5045L102.36 15.4954ZM121.39 117.82Q121.366 117.82 121.342 117.82L121.39 117.82Z " /><path  id="并集" style="stroke:#000000; stroke-width:22; stroke-opacity:1; stroke-dasharray:0 0" transform="translate(40.5 40.5)  rotate(0 113.5 113.5)" d="" /></g></g></svg>