<svg xmlns="http://www.w3.org/2000/svg" xmlns:xlink="http://www.w3.org/1999/xlink" width="308" height="308" viewBox="0 0 308 308" fill="none"><defs><rect id="path_0" x="0" y="0" width="308" height="308" /></defs><g opacity="1" transform="translate(0 0)  rotate(0 154 154)"><mask id="bg-mask-0" fill="white"><use xlink:href="#path_0"></use></mask><g mask="url(#bg-mask-0)" ><path id="并集" fill-rule="evenodd" style="fill:#000000" transform="translate(79 72)  rotate(-90 31 63)" opacity="1" d="M-15.5545 0.242445L-7.65601 7.89845L0 0L-7.65598 7.89848L49.192 62.9989L-7.65598 118.102L-0.47101 125.514L-7.65601 118.102L-15.5545 125.758L-0.242439 141.554L7.65601 133.898L67.586 75.8085Q70.284 73.28 71.7234 69.7076Q73.0676 66.3714 72.994 62.7395Q72.924 59.2867 71.5811 56.0885Q70.21 52.8232 67.723 50.3267L7.65601 -7.89845L7.65598 -7.89848L-0.242445 -15.5545L-15.5545 0.242445ZM52.1947 60.0884L52.274 60.0115Q52.2339 60.049 52.1947 60.0884Z " /><path  id="并集" style="stroke:#000000; stroke-width:22; stroke-opacity:1; stroke-dasharray:0 0" transform="translate(79 72)  rotate(-90 31 63)" d="" /><path id="并集" fill-rule="evenodd" style="fill:#000000" transform="translate(194 57)  rotate(-90 21.5 43.5)" opacity="1" d="M-7.63887 7.91502L-7.63847 7.91542L29.2333 43.4992L-7.63846 79.0846L-7.63888 79.085L-15.5539 86.723L-0.276947 102.554L7.63847 94.9154L0.0489221 87.0507L7.63887 94.915L49.1989 54.805Q51.5707 52.6001 52.8574 49.4366Q54.063 46.4728 53.9977 43.2509Q53.9359 40.198 52.7397 37.3758Q51.5224 34.504 49.3167 32.3104L7.63887 -7.91502L0 0L7.63847 -7.91542L-0.276952 -15.5539L-15.5539 0.276952L-7.63887 7.91502ZM33.782 39.1093L33.9211 38.975Q33.8504 39.0406 33.782 39.1093Z " /><path  id="并集" style="stroke:#000000; stroke-width:22; stroke-opacity:1; stroke-dasharray:0 0" transform="translate(194 57)  rotate(-90 21.5 43.5)" d="" /><path id="路径 1"  style="fill:#000000" transform="translate(215.31 81.3)  rotate(0 0 55.914785329359795)" opacity="1" d="M-11 -11L-11 122.83L11 122.83L11 -11L-11 -11Z " /><path  id="路径 1" style="stroke:#000000; stroke-width:22; stroke-opacity:1; stroke-dasharray:0 0" transform="translate(215.31 81.3)  rotate(0 0 55.914785329359795)" d="" /><path id="路径 1"  style="fill:#000000" transform="translate(109.57 107.17)  rotate(0 0 80.41495198902605)" opacity="1" d="M-11 -11L-11 171.83L11 171.83L11 -11L-11 -11Z " /><path  id="路径 1" style="stroke:#000000; stroke-width:22; stroke-opacity:1; stroke-dasharray:0 0" transform="translate(109.57 107.17)  rotate(0 0 80.41495198902605)" d="" /><path id="路径 2"  style="fill:#000000" transform="translate(44 45)  rotate(0 110 0.0005)" opacity="1" d="M231 -11L220 -11L0 -11L0 0.000999604L-5e-05 -10.999L-11 -10.999L-11 11.001L5e-05 11.001L4.99955e-05 11L220 11L231 11L231 -11Z " /><path  id="路径 2" style="stroke:#000000; stroke-width:22; stroke-opacity:1; stroke-dasharray:0 0" transform="translate(44 45)  rotate(0 110 0.0005)" d="" /></g></g></svg>