<svg xmlns="http://www.w3.org/2000/svg" xmlns:xlink="http://www.w3.org/1999/xlink" width="308" height="308" viewBox="0 0 308 308" fill="none"><defs><rect id="path_0" x="0" y="0" width="308" height="308" /></defs><g opacity="1" transform="translate(0 0)  rotate(0 154 154)"><mask id="bg-mask-0" fill="white"><use xlink:href="#path_0"></use></mask><g mask="url(#bg-mask-0)" ><path id="并集" fill-rule="evenodd" style="fill:#000000" transform="translate(40 40)  rotate(0 114 114)" opacity="1" d="M0,184C0,215 20.18,228 48.63,228L179.78,228C214.08,228 228,212 228,184L228,44C228,16 214.08,0 179.78,0L48.63,0C20.18,0 0,13 0,44L0,184Z M0 78L77 78L77 100L0 100L0 78Z M228 100L151 100L151 78L228 78L228 100Z " /><path  id="并集" style="stroke:#000000; stroke-width:22; stroke-opacity:1; stroke-dasharray:0 0" transform="translate(40 40)  rotate(0 114 114)" d="" /><path  id="并集" style="stroke:#000000; stroke-width:22; stroke-opacity:1; stroke-dasharray:0 0" transform="translate(116 97)  rotate(0 38 31.684999999999995)" d="M37.5,0L26.5,0C8.5,0 0,12.5 0,27.87L0,35.5C0,50.87 8.5,63.37 26.5,63.37L37.5,63.37L48.5,63.37C65.5,63.37 76,50.38 76,35.5L76,27.87C76,12.99 65.5,0 48.5,0L37.5,0Z " /></g></g></svg>