<svg xmlns="http://www.w3.org/2000/svg" xmlns:xlink="http://www.w3.org/1999/xlink" width="308" height="308" viewBox="0 0 308 308" fill="none"><defs><rect id="path_0" x="0" y="0" width="308" height="308" /></defs><g opacity="1" transform="translate(0 0)  rotate(0 154 154)"><mask id="bg-mask-0" fill="white"><use xlink:href="#path_0"></use></mask><g mask="url(#bg-mask-0)" ><path  id="并集" style="stroke:#000000; stroke-width:22; stroke-opacity:1; stroke-dasharray:0 0" transform="translate(40.5 40.5)  rotate(0 113.5 113.5)" d="M113.5,0C50.82,0 0,50.82 0,113.5C0,176.18 50.82,227 113.5,227C176.18,227 227,176.18 227,113.5C227,50.82 176.18,0 113.5,0Z M176.5,166.5L139.3,128.47C138.02,127.11 135.93,127.25 134.7,128.47L97.5,166.5 M125.84,63.47L88.64,101.5C87.36,102.86 85.27,102.72 84.04,101.5L46.84,63.47 M86,4L86,97.33 M137.61,223.48L137.61,133.64 " /></g></g></svg>