<svg xmlns="http://www.w3.org/2000/svg" xmlns:xlink="http://www.w3.org/1999/xlink" width="308" height="308" viewBox="0 0 308 308" fill="none"><defs><rect id="path_0" x="0" y="0" width="308" height="308" /></defs><g opacity="1" transform="translate(0 0)  rotate(0 154 154)"><mask id="bg-mask-0" fill="white"><use xlink:href="#path_0"></use></mask><g mask="url(#bg-mask-0)" ><path id="路径 1"  style="fill:#000000" transform="translate(172.49999999999898 141.4999999999999)  rotate(-90 0.5 101.5)" opacity="1" d="M10.9457 -11.0541L10.9999 -0.0541865L11.9999 202.946L12.0541 213.946L-9.94566 214.054L-9.99985 203.054L-10.9999 0.0541865L-11.0541 -10.9457L10.9457 -11.0541Z " /><path  id="路径 1" style="stroke:#000000; stroke-width:22; stroke-opacity:1; stroke-dasharray:0 0" transform="translate(172.49999999999898 141.4999999999999)  rotate(-90 0.5 101.5)" d="" /><path id="路径 1"  style="fill:#000000" transform="translate(144 51.66666666666663)  rotate(-90 0.5 73)" opacity="1" d="M11 -11L11 157L-11 157L-11 -11L11 -11Z " /><path  id="路径 1" style="stroke:#000000; stroke-width:22; stroke-opacity:1; stroke-dasharray:0 0" transform="translate(144 51.66666666666663)  rotate(-90 0.5 73)" d="" /><path id="路径 1"  style="fill:#000000" transform="translate(165 -28.5)  rotate(-90 0.5 94)" opacity="1" d="M-11 -11.5L-11 199L11 199L11 -11.5L-11 -11.5Z " /><path  id="路径 1" style="stroke:#000000; stroke-width:22; stroke-opacity:1; stroke-dasharray:0 0" transform="translate(165 -28.5)  rotate(-90 0.5 94)" d="" /><path id="路径 1"  style="fill:#000000" transform="translate(44 55)  rotate(0 0.0005 11.5)" opacity="1" d="M10.9995 -11.0005L11 -0.000478261L0 0L11 0L11 22.9995L11.001 22.9995L11.0015 33.9995L-10.9985 34.0005L-10.999 23.0005L-0.0209566 23L-11 23L-11 0L-11.0005 -10.9995L10.9995 -11.0005Z " /><path  id="路径 1" style="stroke:#000000; stroke-width:22; stroke-opacity:1; stroke-dasharray:0 0" transform="translate(44 55)  rotate(0 0.0005 11.5)" d="" /><path id="路径 1"  style="fill:#000000" transform="translate(44 113.66666666666663)  rotate(0 0.0005 11.5)" opacity="1" d="M10.9995 -11.0005L11 -0.000478261L0 0L11 0L11 22.9995L11.001 22.9995L11.0015 33.9995L-10.9985 34.0005L-10.999 23.0005L-0.0209566 23L-11 23L-11 0L-11.0005 -10.9995L10.9995 -11.0005Z " /><path  id="路径 1" style="stroke:#000000; stroke-width:22; stroke-opacity:1; stroke-dasharray:0 0" transform="translate(44 113.66666666666663)  rotate(0 0.0005 11.5)" d="" /><path id="路径 1"  style="fill:#000000" transform="translate(159 95.83333333333326)  rotate(-90 0.5 88)" opacity="1" d="M11 -11L11 187L-11 187L-11 -11L11 -11Z " /><path  id="路径 1" style="stroke:#000000; stroke-width:22; stroke-opacity:1; stroke-dasharray:0 0" transform="translate(159 95.83333333333326)  rotate(-90 0.5 88)" d="" /><path id="路径 1"  style="fill:#000000" transform="translate(44 172.33333333333326)  rotate(0 0.0005 11.5)" opacity="1" d="M10.9995 -11.0005L11 -0.000478261L0 0L11 0L11 22.9995L11.001 22.9995L11.0015 33.9995L-10.9985 34.0005L-10.999 23.0005L-0.0209566 23L-11 23L-11 0L-11.0005 -10.9995L10.9995 -11.0005Z " /><path  id="路径 1" style="stroke:#000000; stroke-width:22; stroke-opacity:1; stroke-dasharray:0 0" transform="translate(44 172.33333333333326)  rotate(0 0.0005 11.5)" d="" /><path id="路径 1"  style="fill:#000000" transform="translate(44 230.9999999999999)  rotate(0 0.0005 11.5)" opacity="1" d="M10.9995 -11.0005L11 -0.000478261L0 0L11 0L11 22.9995L11.001 22.9995L11.0015 33.9995L-10.9985 34.0005L-10.999 23.0005L-0.0209566 23L-11 23L-11 0L-11.0005 -10.9995L10.9995 -11.0005Z " /><path  id="路径 1" style="stroke:#000000; stroke-width:22; stroke-opacity:1; stroke-dasharray:0 0" transform="translate(44 230.9999999999999)  rotate(0 0.0005 11.5)" d="" /></g></g></svg>