<svg xmlns="http://www.w3.org/2000/svg" xmlns:xlink="http://www.w3.org/1999/xlink" width="308" height="308" viewBox="0 0 308 308" fill="none"><defs><rect id="path_0" x="0" y="0" width="308" height="308" /></defs><g opacity="1" transform="translate(0 0)  rotate(0 154 154)"><mask id="bg-mask-0" fill="white"><use xlink:href="#path_0"></use></mask><g mask="url(#bg-mask-0)" ><path id="圆形 1"  style="fill:#000000" transform="translate(164.5 129.5)  rotate(90 92 24.5)" opacity="1" d="M162.459 40.0758Q169.408 47.0109 174.869 55.1335L174.87 55.136L174.871 55.1367L181.002 64.2648L199.265 51.9978L193.131 42.8665L183.987 49.0085L193.129 42.8633Q186.47 32.9572 178.001 24.5042Q169.703 16.2358 160 9.70336Q150.2 3.10623 139.336 -1.47271Q128.268 -6.13745 116.494 -8.53835Q104.422 -11 92 -11Q79.5778 -11 67.5058 -8.53835Q55.7316 -6.13744 44.664 -1.47271Q33.7999 3.10624 24.0003 9.70336Q14.2969 16.2358 6.00546 24.4982Q-2.4701 32.9572 -9.12912 42.8633L-0.00621705 48.9958L-9.13128 42.8665L-15.2648 51.9978L2.9978 64.2648L9.12912 55.1367L9.13129 55.1335Q14.5919 47.0109 21.5345 40.0818Q28.3322 33.3079 36.2862 27.9532Q44.3134 22.5493 53.2085 18.8002Q62.2654 14.983 71.9014 13.018Q81.798 11 92 11Q102.202 11 112.099 13.018Q121.735 14.983 130.791 18.8002Q139.687 22.5493 147.714 27.9532Q155.668 33.3079 162.459 40.0758Z " /><path  id="圆形 1" style="stroke:#000000; stroke-width:22; stroke-opacity:1; stroke-dasharray:0 0" transform="translate(164.5 129.5)  rotate(90 92 24.5)" d="" /><path id="圆形 1"  style="fill:#000000" transform="translate(160.5 140.5)  rotate(90 61.5 16)" opacity="1" d="M1.52622 13.2188Q-4.38539 18.9749 -9.05906 25.7603L-0.00185516 31.9987L-9.06341 25.7667L-15.2968 34.8301L2.83007 47.2968L9.05906 38.2397L9.06341 38.2333Q12.5113 33.2289 16.8738 28.9812Q21.1671 24.797 26.1911 21.4903Q31.2669 18.1496 36.8959 15.8309Q42.6322 13.468 48.74 12.2511Q55.0199 11 61.5 11Q67.9801 11 74.2599 12.2511Q80.3678 13.468 86.1041 15.8309Q91.7331 18.1496 96.8089 21.4903Q101.833 24.797 106.123 28.9776Q110.489 33.2289 113.937 38.2333L113.941 38.2397L120.17 47.2968L138.297 34.8301L132.063 25.7667L123.003 31.9981L132.059 25.7603Q127.385 18.9749 121.477 13.2224Q115.683 7.57523 108.904 3.11344Q102.065 -1.38805 94.4834 -4.51089Q86.7667 -7.68955 78.5585 -9.32486Q70.1503 -11 61.5 -11Q52.8497 -11 44.4415 -9.32486Q36.2333 -7.68955 28.5166 -4.51089Q20.9355 -1.38805 14.0961 3.11344Q7.31695 7.57523 1.52622 13.2188Z " /><path  id="圆形 1" style="stroke:#000000; stroke-width:22; stroke-opacity:1; stroke-dasharray:0 0" transform="translate(160.5 140.5)  rotate(90 61.5 16)" d="" /><path  id="并集" style="stroke:#000000; stroke-width:22; stroke-opacity:1; stroke-dasharray:0 0" transform="translate(33.11999999999989 62.96873557722938)  rotate(0 68.91000000000007 91.03126442277059)" d="M137.82,17.36C137.82,0.86 122.38,-3.64 113.38,2.86L66,32.96L48.63,32.96L48.63,32.96C20.18,32.96 0,45.96 0,76.96L0,91.96L0,106.96C0,137.96 20.18,150.96 48.63,150.96L66,150.96L113.38,179.71C123.38,185.86 137.82,179.71 137.82,164.36L137.82,17.36Z " /></g></g></svg>