<svg xmlns="http://www.w3.org/2000/svg" xmlns:xlink="http://www.w3.org/1999/xlink" width="308" height="308" viewBox="0 0 308 308" fill="none"><defs><rect id="path_0" x="0" y="0" width="308" height="308" /></defs><g opacity="1" transform="translate(0 0)  rotate(0 154 154)"><mask id="bg-mask-0" fill="white"><use xlink:href="#path_0"></use></mask><g mask="url(#bg-mask-0)" ><path  id="拼合图形" style="stroke:#000000; stroke-width:22; stroke-opacity:1; stroke-dasharray:0 0" transform="translate(63 33)  rotate(0 90.5406344494495 92)" d="M180.37,69.16C178.7,63.72 174.33,59.71 169.01,58.73L131.53,51.86C127.09,51.05 123.26,48.1 121.15,43.88L103.4,8.22C100.88,3.17 95.94,0 90.54,0C85.14,0 80.2,3.17 77.68,8.22L59.93,43.88C57.82,48.1 53.99,51.05 49.55,51.86L12.07,58.73C6.75,59.71 2.38,63.72 0.71,69.16C-0.95,74.6 0.35,80.56 4.12,84.66L30.63,113.57C33.77,116.99 35.23,121.77 34.6,126.5L29.18,166.4C28.42,172.05 30.66,177.69 35.02,181.06C39.39,184.41 45.15,184.94 49.99,182.42L84.13,164.63C88.17,162.53 92.91,162.53 96.95,164.63L131.09,182.42C135.93,184.94 141.69,184.41 146.06,181.06C150.42,177.69 152.66,172.05 151.9,166.4L146.49,126.5C145.85,121.77 147.31,116.99 150.45,113.57L176.96,84.66C180.73,80.56 182.03,74.6 180.37,69.16Z " /><path id="并集"  style="fill:#000000" transform="translate(50 129.40120045754247)  rotate(0 104 70.52200871303171)" opacity="1" d="" /><path  id="并集" style="stroke:#000000; stroke-width:22; stroke-opacity:1; stroke-dasharray:0 0" transform="translate(50 129.40120045754247)  rotate(0 104 70.52200871303171)" d="" /></g></g></svg>