<svg xmlns="http://www.w3.org/2000/svg" xmlns:xlink="http://www.w3.org/1999/xlink" width="308" height="308" viewBox="0 0 308 308" fill="none"><defs><rect id="path_0" x="0" y="0" width="308" height="308" /></defs><g opacity="1" transform="translate(0 0)  rotate(0 154 154)"><mask id="bg-mask-0" fill="white"><use xlink:href="#path_0"></use></mask><g mask="url(#bg-mask-0)" ><path id="圆形 1"  style="fill:#000000" transform="translate(33 70.45)  rotate(0 121 32.5)" opacity="1" d="M216.095 50.6009Q225.477 60.025 232.842 71.0938L241.999 65.001L232.845 71.0973L238.942 80.2528L257.253 68.0582L251.158 58.9063L251.155 58.9027Q242.593 46.035 231.685 35.0791Q221.021 24.3585 208.536 15.8793Q195.925 7.31511 181.943 1.37064Q167.697 -4.68569 152.541 -7.80305Q136.998 -11 121 -11Q105.002 -11 89.4591 -7.80305Q74.3028 -4.68569 60.0575 1.37064Q46.0753 7.31511 33.4644 15.8793Q20.9785 24.3585 10.3112 35.0825Q-0.592558 46.0349 -9.15549 58.9027L-9.15785 58.9062L-15.2528 68.0582L3.05819 80.2528L9.15549 71.0973L0.00227395 65.0015L9.15784 71.0938Q16.5232 60.025 25.9088 50.5975Q35.086 41.3715 45.8241 34.0792Q56.6587 26.7213 68.665 21.6169Q80.8877 16.4204 93.8913 13.7459Q107.241 11 121 11Q134.759 11 148.109 13.7459Q161.112 16.4204 173.335 21.6169Q185.341 26.7213 196.176 34.0792Q206.914 41.3715 216.095 50.6009Z " /><path  id="圆形 1" style="stroke:#000000; stroke-width:22; stroke-opacity:1; stroke-dasharray:0 0" transform="translate(33 70.45)  rotate(0 121 32.5)" d="" /><path id="圆形 1"  style="fill:#000000" transform="translate(73 128.45)  rotate(0 81 21.5)" opacity="1" d="M4.35788 20.5459Q-3.18222 28.0357 -9.12117 36.8515L-9.12315 36.8544L-15.2697 45.9726L2.97264 58.2697L9.12117 49.1485L0 43L9.12315 49.1456Q13.8548 42.1214 19.8621 36.1541Q25.7585 30.2979 32.6587 25.667Q39.6235 20.9928 47.3406 17.7496Q55.1991 14.4469 63.559 12.7467Q72.1472 11 81 11Q89.8528 11 98.441 12.7467Q106.801 14.4469 114.659 17.7496Q122.377 20.9929 129.341 25.667Q136.241 30.2979 142.138 36.1547Q148.145 42.1214 152.877 49.1456L161.995 43.0036L152.879 49.1485L159.027 58.2697L177.27 45.9726L171.123 36.8544L171.121 36.8515Q165.182 28.0357 157.642 20.5453Q150.25 13.2042 141.601 7.39954Q132.866 1.53724 123.183 -2.53208Q113.318 -6.67798 102.826 -8.81198Q92.0673 -11 81 -11Q69.9327 -11 59.1744 -8.81198Q48.6818 -6.67798 38.8169 -2.53208Q29.1342 1.53724 20.3991 7.39954Q11.7499 13.2042 4.35788 20.5459Z " /><path  id="圆形 1" style="stroke:#000000; stroke-width:22; stroke-opacity:1; stroke-dasharray:0 0" transform="translate(73 128.45)  rotate(0 81 21.5)" d="" /><path id="圆形 1"  style="fill:#000000" transform="translate(121 186.45)  rotate(0 32.5 9)" opacity="1" d="M-3.02395 4.19966Q-6.48819 7.77874 -9.23527 12.0242L-0.00030822 17.9998L-9.24179 12.0343L-15.2075 21.2761L3.2761 33.2075L9.23528 23.9758L9.24179 23.9657Q10.8187 21.5307 12.7839 19.5003Q14.7203 17.4956 16.9678 15.9227Q19.2215 14.3456 21.7099 13.2551Q26.8563 11 32.5 11Q38.1437 11 43.2901 13.2551Q45.7785 14.3456 48.0322 15.9227Q50.2797 17.4956 52.2079 19.4919Q54.1813 21.5307 55.7582 23.9657L55.7642 23.9749L55.7647 23.9758L61.7239 33.2075L80.2075 21.2761L74.2418 12.0343L65 18L74.2353 12.0242Q71.4882 7.77874 68.0321 4.20811Q64.6308 0.686569 60.646 -2.10207Q56.6057 -4.92946 52.1199 -6.89513Q47.5359 -8.90387 42.6547 -9.93866Q37.6483 -11 32.5 -11Q27.3517 -11 22.3453 -9.93867Q17.4641 -8.90388 12.8801 -6.89513Q8.3943 -4.92946 4.35403 -2.10207Q0.369159 0.686567 -3.02395 4.19966Z " /><path  id="圆形 1" style="stroke:#000000; stroke-width:22; stroke-opacity:1; stroke-dasharray:0 0" transform="translate(121 186.45)  rotate(0 32.5 9)" d="" /><path id="路径 1"  style="fill:#000000" transform="translate(153.88 224.28)  rotate(0 0.0005493803279819076 12.635747543522939)" opacity="1" d="M10.9995 -11.0005L11 -0.000478261L0 0L11 0L11 25.27L-11 25.27L-11 0L-11.0005 -10.9995L10.9995 -11.0005ZM11.0016 36.271L11.0011 25.271L-10.9989 25.272L-10.9984 36.272L11.0016 36.271Z " /><path  id="路径 1" style="stroke:#000000; stroke-width:22; stroke-opacity:1; stroke-dasharray:0 0" transform="translate(153.88 224.28)  rotate(0 0.0005493803279819076 12.635747543522939)" d="" /></g></g></svg>