<svg xmlns="http://www.w3.org/2000/svg" xmlns:xlink="http://www.w3.org/1999/xlink" width="308" height="308" viewBox="0 0 308 308" fill="none"><defs><rect id="path_0" x="0" y="0" width="308" height="308" /></defs><g opacity="1" transform="translate(0 0)  rotate(0 154 154)"><mask id="bg-mask-0" fill="white"><use xlink:href="#path_0"></use></mask><g mask="url(#bg-mask-0)" ><path id="路径 1"  style="fill:#000000" transform="translate(45 153.54223089963898)  rotate(0 108.99999999999999 0.0003171789135620884)" opacity="1" d="M-11 -11L0 -11L218 -11L218 11L0 11L0 0L-3.20089e-05 11L-11 11L-11 -11ZM218 11L218 -10.9994L229 -10.9993L229 11.0007L218 11.0006L218 11Z " /><path  id="路径 1" style="stroke:#000000; stroke-width:22; stroke-opacity:1; stroke-dasharray:0 0" transform="translate(45 153.54223089963898)  rotate(0 108.99999999999999 0.0003171789135620884)" d="" /><path id="路径 1"  style="fill:#000000" transform="translate(153.87324012549578 50.15841383150837)  rotate(0 0.00031717891354787753 103.8415861684913)" opacity="1" d="M11.0006 3.3599e-05L11.0007 -11L-10.9993 -11L-10.9994 -3.3599e-05L0.000634193 0L-11 0L-11 207.68L11 207.68L11 3.3597e-05L11.0006 3.3599e-05ZM11 218.683L11 207.683L-11 207.683L-11 218.683L11 218.683Z " /><path  id="路径 1" style="stroke:#000000; stroke-width:22; stroke-opacity:1; stroke-dasharray:0 0" transform="translate(153.87324012549578 50.15841383150837)  rotate(0 0.00031717891354787753 103.8415861684913)" d="" /></g></g></svg>