<svg xmlns="http://www.w3.org/2000/svg" xmlns:xlink="http://www.w3.org/1999/xlink" width="308" height="308" viewBox="0 0 308 308" fill="none"><defs><rect id="path_0" x="0" y="0" width="308" height="308" /></defs><g opacity="1" transform="translate(0 0)  rotate(0 154 154)"><mask id="bg-mask-0" fill="white"><use xlink:href="#path_0"></use></mask><g mask="url(#bg-mask-0)" ><path id="并集" fill-rule="evenodd" style="fill:#000000" transform="translate(42.087719298245624 92.27192982456145)  rotate(0 102.77192982456152 0)" opacity="1" d="M-11 11L205.54 11L205.54 -11L-11 -11L-11 11ZM205.544 11L216.544 11L216.544 -11L205.544 -11L205.544 11Z " /><path  id="并集" style="stroke:#000000; stroke-width:22; stroke-opacity:1; stroke-dasharray:0 0" transform="translate(42.087719298245624 92.27192982456145)  rotate(0 102.77192982456152 0)" d="" /><path id="路径 1"  style="fill:#000000" transform="translate(168 117)  rotate(0 0.00023376471582992053 11.5)" opacity="1" d="M10.9998 -11.0002L11 -0.000223601L0 0L11 0L11 22.9998L11.0005 22.9998L11.0007 33.9998L-10.9993 34.0002L-10.9995 23.0002L0.0004673 23L-11 23L-11 0L-11.0002 -10.9998L10.9998 -11.0002Z " /><path  id="路径 1" style="stroke:#000000; stroke-width:22; stroke-opacity:1; stroke-dasharray:0 0" transform="translate(168 117)  rotate(0 0.00023376471582992053 11.5)" d="" /><path id="路径 1"  style="fill:#000000" transform="translate(214 117)  rotate(0 0.00023376471582992053 11.5)" opacity="1" d="M10.9998 -11.0002L11 -0.000223601L0 0L11 0L11 22.9998L11.0005 22.9998L11.0007 33.9998L-10.9993 34.0002L-10.9995 23.0002L0.0004673 23L-11 23L-11 0L-11.0002 -10.9998L10.9998 -11.0002Z " /><path  id="路径 1" style="stroke:#000000; stroke-width:22; stroke-opacity:1; stroke-dasharray:0 0" transform="translate(214 117)  rotate(0 0.00023376471582992053 11.5)" d="" /><path id="路径 1"  style="fill:#000000" transform="translate(122 117)  rotate(0 0.00023376471581570968 11.5)" opacity="1" d="M10.9998 -11.0002L11 -0.000223601L0 0L11 0L11 22.9998L11.0005 22.9998L11.0007 33.9998L-10.9993 34.0002L-10.9995 23.0002L0.0004673 23L-11 23L-11 0L-11.0002 -10.9998L10.9998 -11.0002Z " /><path  id="路径 1" style="stroke:#000000; stroke-width:22; stroke-opacity:1; stroke-dasharray:0 0" transform="translate(122 117)  rotate(0 0.00023376471581570968 11.5)" d="" /><path id="路径 1"  style="fill:#000000" transform="translate(76 156)  rotate(0 0.00023376471581570968 11.5)" opacity="1" d="M10.9998 -11.0002L11 -0.000223601L0 0L11 0L11 22.9998L11.0005 22.9998L11.0007 33.9998L-10.9993 34.0002L-10.9995 23.0002L0.0004673 23L-11 23L-11 0L-11.0002 -10.9998L10.9998 -11.0002Z " /><path  id="路径 1" style="stroke:#000000; stroke-width:22; stroke-opacity:1; stroke-dasharray:0 0" transform="translate(76 156)  rotate(0 0.00023376471581570968 11.5)" d="" /><path id="路径 1"  style="fill:#000000" transform="translate(76 195)  rotate(0 0.00023376471581570968 11.5)" opacity="1" d="M10.9998 -11.0002L11 -0.000223601L0 0L11 0L11 22.9998L11.0005 22.9998L11.0007 33.9998L-10.9993 34.0002L-10.9995 23.0002L0.0004673 23L-11 23L-11 0L-11.0002 -10.9998L10.9998 -11.0002Z " /><path  id="路径 1" style="stroke:#000000; stroke-width:22; stroke-opacity:1; stroke-dasharray:0 0" transform="translate(76 195)  rotate(0 0.00023376471581570968 11.5)" d="" /><path id="路径 1"  style="fill:#000000" transform="translate(122 195)  rotate(0 0.00023376471581570968 11.5)" opacity="1" d="M10.9998 -11.0002L11 -0.000223601L0 0L11 0L11 22.9998L11.0005 22.9998L11.0007 33.9998L-10.9993 34.0002L-10.9995 23.0002L0.0004673 23L-11 23L-11 0L-11.0002 -10.9998L10.9998 -11.0002Z " /><path  id="路径 1" style="stroke:#000000; stroke-width:22; stroke-opacity:1; stroke-dasharray:0 0" transform="translate(122 195)  rotate(0 0.00023376471581570968 11.5)" d="" /><path id="路径 1"  style="fill:#000000" transform="translate(122 156)  rotate(0 0.00023376471581570968 11.5)" opacity="1" d="M10.9998 -11.0002L11 -0.000223601L0 0L11 0L11 22.9998L11.0005 22.9998L11.0007 33.9998L-10.9993 34.0002L-10.9995 23.0002L0.0004673 23L-11 23L-11 0L-11.0002 -10.9998L10.9998 -11.0002Z " /><path  id="路径 1" style="stroke:#000000; stroke-width:22; stroke-opacity:1; stroke-dasharray:0 0" transform="translate(122 156)  rotate(0 0.00023376471581570968 11.5)" d="" /><path id="并集"  style="fill:#000000" transform="translate(36 47)  rotate(0 107 101)" opacity="1" d="" /><path  id="并集" style="stroke:#000000; stroke-width:22; stroke-opacity:1; stroke-dasharray:0 0" transform="translate(36 47)  rotate(0 107 101)" d="" /><path id="路径 1"  style="fill:#000000" transform="translate(166 222.69)  rotate(0 54.499999999999915 0.00015858945678814962)" opacity="1" d="M-11 -11L0 -11L109 -11L109 11L0 11L0 0L-3.20089e-05 11L-11 11L-11 -11ZM109 11L109 -10.9997L120 -10.9997L120 11.0003L109 11.0003L109 11Z " /><path  id="路径 1" style="stroke:#000000; stroke-width:22; stroke-opacity:1; stroke-dasharray:0 0" transform="translate(166 222.69)  rotate(0 54.499999999999915 0.00015858945678814962)" d="" /><path id="路径 1"  style="fill:#000000" transform="translate(220.43 171)  rotate(0 0.0001585894567597279 51.92079308424559)" opacity="1" d="M11.0003 3.35989e-05L11.0004 -11L-10.9996 -11L-10.9997 -3.35989e-05L0.000317574 0L-11 0L-11 103.84L11 103.84L11 3.3598e-05L11.0003 3.35989e-05ZM11 114.842L11 103.842L-11 103.842L-11 114.842L11 114.842Z " /><path  id="路径 1" style="stroke:#000000; stroke-width:22; stroke-opacity:1; stroke-dasharray:0 0" transform="translate(220.43 171)  rotate(0 0.0001585894567597279 51.92079308424559)" d="" /></g></g></svg>