<svg xmlns="http://www.w3.org/2000/svg" xmlns:xlink="http://www.w3.org/1999/xlink" width="308" height="308" viewBox="0 0 308 308" fill="none"><defs><rect id="path_0" x="0" y="0" width="308" height="308" /></defs><g opacity="1" transform="translate(0 0)  rotate(0 154 154)"><mask id="bg-mask-0" fill="white"><use xlink:href="#path_0"></use></mask><g mask="url(#bg-mask-0)" ><path id="并集" fill-rule="evenodd" style="fill:#000000" transform="translate(53.5 64)  rotate(0 100.5 100.75)" opacity="1" d="M0,100.75C0,156.39 45,201.5 100.5,201.5C156,201.5 201,156.39 201,100.75C201,45.11 156,0 100.5,0C45,0 0,45.11 0,100.75Z M111.37 33.5283L111.341 103.351L155.19 103.36L155.19 103.36L166.19 103.362L166.185 125.362L155.188 125.36L155.188 125.36L107.438 125.35Q103.948 125.378 100.622 124.032Q97.3365 122.701 94.7999 120.232Q92.1756 117.678 90.7594 114.3Q89.2962 110.811 89.3407 106.953L89.37 33.5155L89.3716 33.5155L89.3768 22.518L111.377 22.5283L111.372 33.5283L111.37 33.5283ZM107.5 103.35Q107.471 103.35 107.442 103.35L107.5 103.35ZM111.339 107.136Q111.34 107.171 111.339 107.207L111.339 107.136Z " /><path  id="并集" style="stroke:#000000; stroke-width:22; stroke-opacity:1; stroke-dasharray:0 0" transform="translate(53.5 64)  rotate(0 100.5 100.75)" d="" /><path id="路径 1"  style="fill:#000000" transform="translate(25 27)  rotate(0 32.25 32)" opacity="1" d="M64.5605 -15.5562L56.7522 -7.80838L-7.74785 56.1916L-15.5562 63.9395L-0.0605278 79.5562L7.74785 71.8084L72.2478 7.80838L80.0562 0.0605316L64.5605 -15.5562Z " /><path  id="路径 1" style="stroke:#000000; stroke-width:22; stroke-opacity:1; stroke-dasharray:0 0" transform="translate(25 27)  rotate(0 32.25 32)" d="" /><path id="路径 1"  style="fill:#000000" transform="translate(218 27)  rotate(0 32.25 32)" opacity="1" d="M-15.5562 0.0605307L-7.74785 7.80838L56.7522 71.8084L64.5605 79.5562L80.0562 63.9395L72.2478 56.1916L7.74785 -7.80838L-0.0605307 -15.5562L-15.5562 0.0605307Z " /><path  id="路径 1" style="stroke:#000000; stroke-width:22; stroke-opacity:1; stroke-dasharray:0 0" transform="translate(218 27)  rotate(0 32.25 32)" d="" /></g></g></svg>