<svg xmlns="http://www.w3.org/2000/svg" xmlns:xlink="http://www.w3.org/1999/xlink" width="308" height="308" viewBox="0 0 308 308" fill="none"><defs><rect id="path_0" x="0" y="0" width="308" height="308" /></defs><g opacity="1" transform="translate(0 0)  rotate(0 154 154)"><mask id="bg-mask-0" fill="white"><use xlink:href="#path_0"></use></mask><g mask="url(#bg-mask-0)" ><g opacity="1" transform="translate(23.566348743108325 88.00000000000048)  rotate(0 133.96682562844592 66.00000000000021)"><path id="路径 1" fill-rule="evenodd" style="fill:#000000" transform="translate(21.837943428558894 6.8869321946120206)  rotate(0 82.49528486807708 54.682069435228954)" opacity="1" d="M28.33,62.39C47.27,68.85 69.71,66.86 88.65,52.95C89.65,54.44 90.16,56.92 89.65,58.91L92.93,58.91C93.94,52.45 89.14,45.99 82.08,45.48C84.1,47.22 85.61,48.47 86.36,49.71C86.36,49.97 86.11,50.21 85.86,50.21C61.13,67.61 37.42,59.41 35.16,58.91L48.77,45.48L44.99,36.04C72.24,26.59 95.2,19.38 132.28,12.92L123.96,6.21L128.25,3.48C150.96,9.94 165.59,14.41 164.58,26.1C168.11,8.69 148.43,6.96 127.74,0L118.41,5.21L123.96,10.43C92.93,15.65 77.54,20.63 39.44,33.8L43.73,44.74L30.61,57.66C30.36,57.17 28.33,56.92 24.3,54.68L24.3,75.81C7.4,83.27 -7.49,96.2 4.12,107.38C5.38,108.37 6.89,109.11 8.15,109.36C5.88,108.12 3.36,106.38 2.86,101.67C2.6,91.96 19.25,82.03 28.33,78.8L28.33,62.39Z " /><path id="路径 2" fill-rule="evenodd" style="fill:#000000" transform="translate(0 0)  rotate(0 133.96682562844592 66.00000000000021)" opacity="1" d="M65.59,51.7L61.29,40.77C99.39,27.59 114.78,22.62 145.81,17.4L140.26,12.18L149.6,6.96C170.55,14.42 195.27,15.66 184.17,39.77C177.86,52.71 158.44,73.84 150.61,82.78C145.32,88.51 140.26,94.46 136.48,99.93C132.95,105.41 130.67,110.62 130.43,115.34C130.93,154.12 245.73,97.45 267.93,82.53C235.13,96.45 199.81,109.88 160.7,112.36C150.12,112.86 151.12,107.4 157.43,98.94C172.06,79.3 200.06,52.21 201.08,33.06C202.59,7.96 177.1,-0.25 150.61,0.01C132.46,0.25 113.27,5.47 100.41,9.94C55.74,25.6 27.74,50.21 10.08,77.81C-8.59,105.16 -2.29,131.26 37.08,132C67.35,130.76 87.03,122.55 107.72,112.11C107.72,112.11 50.95,128.03 30.01,116.35C28.74,116.08 27.23,115.34 25.97,114.36C14.36,103.17 29.25,90.24 46.16,82.78L46.16,61.65C50.19,63.88 52.22,64.14 52.48,64.63L65.59,51.7Z " /></g></g></g></svg>