<svg xmlns="http://www.w3.org/2000/svg" xmlns:xlink="http://www.w3.org/1999/xlink" width="308" height="308" viewBox="0 0 308 308" fill="none"><defs><rect id="path_0" x="0" y="0" width="308" height="308" /></defs><g opacity="1" transform="translate(0 0)  rotate(0 154 154)"><mask id="bg-mask-0" fill="white"><use xlink:href="#path_0"></use></mask><g mask="url(#bg-mask-0)" ><path id="并集" fill-rule="evenodd" style="fill:#000000" transform="translate(71 36.5)  rotate(0 74.50000000000006 117.5)" opacity="1" d="M74.79,234.42C76.54,235.33 78.65,235.16 80.23,233.98L143.68,186.64C150.67,181.09 150.67,175.35 144.31,169.95L85.71,118.7L144.35,69.46C149.62,64.86 149.62,56.52 144.21,52.89L80.4,1.15C78.84,-0.11 76.7,-0.36 74.89,0.53C73.09,1.41 71.94,3.27 71.94,5.32L71.94,229.68C71.94,231.68 73.05,233.52 74.79,234.42Z M79.0145 138.693L7.07445 199.113L-7.07445 182.267L64.8655 121.847L79.0145 138.693Z M7.24111 35.4795L79.1811 98.3895L64.6989 114.95L-7.24111 52.0405L7.24111 35.4795Z " /><path  id="并集" style="stroke:#000000; stroke-width:22; stroke-opacity:1; stroke-dasharray:0 0" transform="translate(71 36.5)  rotate(0 74.50000000000006 117.5)" d="" /></g></g></svg>