<svg xmlns="http://www.w3.org/2000/svg" xmlns:xlink="http://www.w3.org/1999/xlink" width="308" height="308" viewBox="0 0 308 308" fill="none"><defs><rect id="path_0" x="0" y="0" width="308" height="308" /></defs><g opacity="1" transform="translate(0 0)  rotate(0 154 154)"><mask id="bg-mask-0" fill="white"><use xlink:href="#path_0"></use></mask><g mask="url(#bg-mask-0)" ><path  id="路径 1" style="stroke:#000000; stroke-width:22; stroke-opacity:1; stroke-dasharray:0 0" transform="translate(73 37)  rotate(0 83.24008810572876 117)" d="M76.8,0L16.49,0C16.49,0 1.03,0 0,17.01L0,122.15L76.8,122.15C122.15,122.15 143.29,101.02 143.29,63.91C143.29,19.59 119.06,0 76.8,0Z M0,214.06C0,234 19.07,234 19.07,234C52.29,234 109.27,234 109.27,234C136.59,234 166.48,221.63 166.48,177.3C166.48,132.98 133.49,122.15 109.27,122.15L76.8,122.15L0,122.15L0,214.06Z " /></g></g></svg>