<svg xmlns="http://www.w3.org/2000/svg" xmlns:xlink="http://www.w3.org/1999/xlink" width="308" height="308" viewBox="0 0 308 308" fill="none"><defs><rect id="path_0" x="0" y="0" width="308" height="308" /></defs><g opacity="1" transform="translate(0 0)  rotate(0 154 154)"><mask id="bg-mask-0" fill="white"><use xlink:href="#path_0"></use></mask><g mask="url(#bg-mask-0)" ><path id="并集" fill-rule="evenodd" style="fill:#000000" transform="translate(39.09 92.27)  rotate(0 102.77192982456152 0)" opacity="1" d="M-11 11L205.54 11L205.54 -11L-11 -11L-11 11ZM205.544 11L216.544 11L216.544 -11L205.544 -11L205.544 11Z " /><path  id="并集" style="stroke:#000000; stroke-width:22; stroke-opacity:1; stroke-dasharray:0 0" transform="translate(39.09 92.27)  rotate(0 102.77192982456152 0)" d="" /><path id="路径 1"  style="fill:#000000" transform="translate(119 117)  rotate(0 0.00023376471581570968 11.5)" opacity="1" d="M10.9998 -11.0002L11 -0.000223601L0 0L11 0L11 22.9998L11.0005 22.9998L11.0007 33.9998L-10.9993 34.0002L-10.9995 23.0002L0.0004673 23L-11 23L-11 0L-11.0002 -10.9998L10.9998 -11.0002Z " /><path  id="路径 1" style="stroke:#000000; stroke-width:22; stroke-opacity:1; stroke-dasharray:0 0" transform="translate(119 117)  rotate(0 0.00023376471581570968 11.5)" d="" /><path id="路径 1"  style="fill:#000000" transform="translate(73 156)  rotate(0 0.00023376471581570968 11.5)" opacity="1" d="M10.9998 -11.0002L11 -0.000223601L0 0L11 0L11 22.9998L11.0005 22.9998L11.0007 33.9998L-10.9993 34.0002L-10.9995 23.0002L0.0004673 23L-11 23L-11 0L-11.0002 -10.9998L10.9998 -11.0002Z " /><path  id="路径 1" style="stroke:#000000; stroke-width:22; stroke-opacity:1; stroke-dasharray:0 0" transform="translate(73 156)  rotate(0 0.00023376471581570968 11.5)" d="" /><path id="路径 1"  style="fill:#000000" transform="translate(73 195)  rotate(0 0.00023376471581570968 11.5)" opacity="1" d="M10.9998 -11.0002L11 -0.000223601L0 0L11 0L11 22.9998L11.0005 22.9998L11.0007 33.9998L-10.9993 34.0002L-10.9995 23.0002L0.0004673 23L-11 23L-11 0L-11.0002 -10.9998L10.9998 -11.0002Z " /><path  id="路径 1" style="stroke:#000000; stroke-width:22; stroke-opacity:1; stroke-dasharray:0 0" transform="translate(73 195)  rotate(0 0.00023376471581570968 11.5)" d="" /><path id="路径 1"  style="fill:#000000" transform="translate(119 195)  rotate(0 0.00023376471581570968 11.5)" opacity="1" d="M10.9998 -11.0002L11 -0.000223601L0 0L11 0L11 22.9998L11.0005 22.9998L11.0007 33.9998L-10.9993 34.0002L-10.9995 23.0002L0.0004673 23L-11 23L-11 0L-11.0002 -10.9998L10.9998 -11.0002Z " /><path  id="路径 1" style="stroke:#000000; stroke-width:22; stroke-opacity:1; stroke-dasharray:0 0" transform="translate(119 195)  rotate(0 0.00023376471581570968 11.5)" d="" /><path id="路径 1"  style="fill:#000000" transform="translate(119 156)  rotate(0 0.00023376471581570968 11.5)" opacity="1" d="M10.9998 -11.0002L11 -0.000223601L0 0L11 0L11 22.9998L11.0005 22.9998L11.0007 33.9998L-10.9993 34.0002L-10.9995 23.0002L0.0004673 23L-11 23L-11 0L-11.0002 -10.9998L10.9998 -11.0002Z " /><path  id="路径 1" style="stroke:#000000; stroke-width:22; stroke-opacity:1; stroke-dasharray:0 0" transform="translate(119 156)  rotate(0 0.00023376471581570968 11.5)" d="" /><path id="并集"  style="fill:#000000" transform="translate(33 47)  rotate(0 107 101)" opacity="1" d="" /><path  id="并集" style="stroke:#000000; stroke-width:22; stroke-opacity:1; stroke-dasharray:0 0" transform="translate(33 47)  rotate(0 107 101)" d="" /><path  id="圆形 1" style="stroke:#000000; stroke-width:22; stroke-opacity:1; stroke-dasharray:0 0" transform="translate(206 126)  rotate(0 31 31)" d="M31,0C13.88,0 0,13.88 0,31C0,48.12 13.88,62 31,62C48.12,62 62,48.12 62,31C62,13.88 48.12,0 31,0Z " /><path id="圆形 1"  style="fill:#000000" transform="translate(172 142)  rotate(0 19.5 22)" opacity="1" d="M27.1745 12.2859Q26.7411 12.0582 26.1239 11.7964Q25.2172 11.4188 24.1763 11.215Q23.1081 11 22 11Q19.7549 11 17.7219 11.8599Q15.7498 12.6941 14.2219 14.2219Q12.6941 15.7498 11.8599 17.7219Q11 19.7549 11 22Q11 24.2451 11.8599 26.2781Q12.6941 28.2502 14.2219 29.7781Q15.7498 31.3059 17.7219 32.1401Q19.7549 33 22 33Q24.2059 33 26.2003 32.1715Q27.1867 31.7636 28.083 31.1611Q28.9884 30.5574 29.8102 29.7436Q30.089 29.4647 30.5013 28.9754L30.5002 28.9745L37.4825 20.4747L54.4822 34.4394L47.4998 42.9392L38.7878 35.7825L47.4378 43.0171Q46.3574 44.309 45.2898 45.3764Q42.9589 47.6845 40.3571 49.4189Q37.6313 51.2513 34.6397 52.4885Q31.6696 53.7222 28.5171 54.3549Q25.3031 55 22 55Q18.6366 55 15.361 54.3297Q12.1603 53.6747 9.15156 52.4021Q6.20118 51.1542 3.54178 49.3575Q0.911936 47.5808 -1.33442 45.3344Q-3.58079 43.0881 -5.3575 40.4582Q-7.15417 37.7988 -8.40211 34.8484Q-9.67471 31.8397 -10.3297 28.639Q-11 25.3634 -11 22Q-11 18.6366 -10.3297 15.361Q-9.67471 12.1603 -8.40211 9.15156Q-7.15417 6.20119 -5.3575 3.54178Q-3.58079 0.911942 -1.33442 -1.33442Q0.911946 -3.58079 3.54179 -5.3575Q6.20118 -7.15417 9.15156 -8.40211Q12.1603 -9.67471 15.361 -10.3297Q18.6366 -11 22 -11Q25.3019 -11 28.4037 -10.375Q31.6264 -9.74399 34.7161 -8.45639Q36.2408 -7.80953 37.5307 -7.12427L32.5313 2.28634L37.561 -7.10261L47.2573 -1.90828L36.8687 17.4844L27.1723 12.2901L27.1745 12.2859Z " /><path  id="圆形 1" style="stroke:#000000; stroke-width:22; stroke-opacity:1; stroke-dasharray:0 0" transform="translate(172 142)  rotate(0 19.5 22)" d="" /><path  id="并集" style="stroke:#000000; stroke-width:22; stroke-opacity:1; stroke-dasharray:0 0" transform="translate(192 215)  rotate(0 45.5 24.5)" d="M27.15,49L64.08,49C83.23,49 91,40.09 91,24.5C91,8.91 83.23,0 64.08,0L27.15,0C11.26,0 0,7.24 0,24.5C0,41.76 11.26,49 27.15,49Z " /><path id="并集" fill-rule="evenodd" style="fill:#000000" transform="translate(157 219)  rotate(0 22 21)" opacity="1" d="M24.93 53L55 53L55 31L24.93 31Q19.554 31 16.3866 30.3975Q14.9878 30.1314 14.0071 29.7543Q13.2998 29.4823 12.8676 29.176Q12.5867 28.9768 12.3949 28.7292Q12.1198 28.374 11.8826 27.7774Q11.5054 26.8287 11.2835 25.4305Q11 23.6438 11 21.28Q11 18.9078 11.2858 17.0908Q11.514 15.6405 11.9085 14.6292Q12.1732 13.9509 12.4944 13.5232Q12.7301 13.2092 13.06 12.9645Q14.1516 12.1547 16.5634 11.6549Q19.7232 11 24.93 11L44 11L55 11L55 -11L44 -11L24.93 -11Q21.3937 -11 18.4215 -10.7628Q15.0086 -10.4904 12.0988 -9.88736Q4.93873 -8.40344 -0.047471 -4.70452Q-2.94348 -2.55617 -5.09783 0.312765Q-7.22764 3.14901 -8.58696 6.63328Q-11 12.8185 -11 21.28Q-11 25.3785 -10.4446 28.8785Q-9.84012 32.6877 -8.56103 35.9051Q-7.17601 39.3888 -4.99835 42.2005Q-2.80402 45.0337 0.144907 47.124Q5.11654 50.6482 12.2756 52.01Q15.1311 52.5532 18.516 52.794Q21.4116 53 24.93 53Z " /><path  id="并集" style="stroke:#000000; stroke-width:22; stroke-opacity:1; stroke-dasharray:0 0" transform="translate(157 219)  rotate(0 22 21)" d="" /></g></g></svg>