<svg xmlns="http://www.w3.org/2000/svg" xmlns:xlink="http://www.w3.org/1999/xlink" width="308" height="308" viewBox="0 0 308 308" fill="none"><defs><rect id="path_0" x="0" y="0" width="308" height="308" /></defs><g opacity="1" transform="translate(0 0)  rotate(0 154 154)"><mask id="bg-mask-0" fill="white"><use xlink:href="#path_0"></use></mask><g mask="url(#bg-mask-0)" ><path  id="并集" style="stroke:#000000; stroke-width:22; stroke-opacity:1; stroke-dasharray:0 0" transform="translate(35 40)  rotate(0 120.5 114)" d="M241,184L241,109L241,44C241,16 227.08,0 192.78,0L48.63,0C20.18,0 0,13 0,44L0,109L0,184C0,215 20.18,228 48.63,228L192.78,228C227.08,228 241,212 241,184Z " /><path id="并集" fill-rule="evenodd" style="fill:#000000" transform="translate(43 99)  rotate(0 116 0.5)" opacity="1" d="M-11 -11L243 -11L243 11L-11 11L-11 -11Z " /><path  id="并集" style="stroke:#000000; stroke-width:22; stroke-opacity:1; stroke-dasharray:0 0" transform="translate(43 99)  rotate(0 116 0.5)" d="" /><path id="路径 1"  style="fill:#000000" transform="translate(178 132)  rotate(0 0.00001016368329485324 0.4999999998966995)" opacity="1" d="M10.9998 -11.0002L11 -0.000223601L0 0L11 0L11 0.999776L11 0.999776L11.0002 11.9998L-10.9998 12.0002L-11 1.00022L0.00148611 1L-11 1L-11 0L-11.0002 -10.9998L10.9998 -11.0002Z " /><path  id="路径 1" style="stroke:#000000; stroke-width:22; stroke-opacity:1; stroke-dasharray:0 0" transform="translate(178 132)  rotate(0 0.00001016368329485324 0.4999999998966995)" d="" /><path id="路径 1"  style="fill:#000000" transform="translate(224 132)  rotate(0 0.00001016368329485324 0.4999999998966995)" opacity="1" d="M10.9998 -11.0002L11 -0.000223601L0 0L11 0L11 0.999776L11 0.999776L11.0002 11.9998L-10.9998 12.0002L-11 1.00022L0.00148611 1L-11 1L-11 0L-11.0002 -10.9998L10.9998 -11.0002Z " /><path  id="路径 1" style="stroke:#000000; stroke-width:22; stroke-opacity:1; stroke-dasharray:0 0" transform="translate(224 132)  rotate(0 0.00001016368329485324 0.4999999998966995)" d="" /><path id="路径 1"  style="fill:#000000" transform="translate(132 132)  rotate(0 0.000010163683294235377 0.4999999998966995)" opacity="1" d="M10.9998 -11.0002L11 -0.000223601L0 0L11 0L11 0.999776L11 0.999776L11.0002 11.9998L-10.9998 12.0002L-11 1.00022L0.00148611 1L-11 1L-11 0L-11.0002 -10.9998L10.9998 -11.0002Z " /><path  id="路径 1" style="stroke:#000000; stroke-width:22; stroke-opacity:1; stroke-dasharray:0 0" transform="translate(132 132)  rotate(0 0.000010163683294235377 0.4999999998966995)" d="" /><path id="路径 1"  style="fill:#000000" transform="translate(86 179)  rotate(0 0.000010163683294235377 0.4999999998966995)" opacity="1" d="M10.9998 -11.0002L11 -0.000223601L0 0L11 0L11 0.999776L11 0.999776L11.0002 11.9998L-10.9998 12.0002L-11 1.00022L0.00148611 1L-11 1L-11 0L-11.0002 -10.9998L10.9998 -11.0002Z " /><path  id="路径 1" style="stroke:#000000; stroke-width:22; stroke-opacity:1; stroke-dasharray:0 0" transform="translate(86 179)  rotate(0 0.000010163683294235377 0.4999999998966995)" d="" /><path id="路径 1"  style="fill:#000000" transform="translate(178 179)  rotate(0 0.00001016368329485324 0.4999999998966995)" opacity="1" d="M10.9998 -11.0002L11 -0.000223601L0 0L11 0L11 0.999776L11 0.999776L11.0002 11.9998L-10.9998 12.0002L-11 1.00022L0.00148611 1L-11 1L-11 0L-11.0002 -10.9998L10.9998 -11.0002Z " /><path  id="路径 1" style="stroke:#000000; stroke-width:22; stroke-opacity:1; stroke-dasharray:0 0" transform="translate(178 179)  rotate(0 0.00001016368329485324 0.4999999998966995)" d="" /><path id="路径 1"  style="fill:#000000" transform="translate(224 179)  rotate(0 0.00001016368329485324 0.4999999998966995)" opacity="1" d="M10.9998 -11.0002L11 -0.000223601L0 0L11 0L11 0.999776L11 0.999776L11.0002 11.9998L-10.9998 12.0002L-11 1.00022L0.00148611 1L-11 1L-11 0L-11.0002 -10.9998L10.9998 -11.0002Z " /><path  id="路径 1" style="stroke:#000000; stroke-width:22; stroke-opacity:1; stroke-dasharray:0 0" transform="translate(224 179)  rotate(0 0.00001016368329485324 0.4999999998966995)" d="" /><path id="路径 1"  style="fill:#000000" transform="translate(86 226)  rotate(0 0.000010163683294235377 0.4999999998966995)" opacity="1" d="M10.9998 -11.0002L11 -0.000223601L0 0L11 0L11 0.999776L11 0.999776L11.0002 11.9998L-10.9998 12.0002L-11 1.00022L0.00148611 1L-11 1L-11 0L-11.0002 -10.9998L10.9998 -11.0002Z " /><path  id="路径 1" style="stroke:#000000; stroke-width:22; stroke-opacity:1; stroke-dasharray:0 0" transform="translate(86 226)  rotate(0 0.000010163683294235377 0.4999999998966995)" d="" /><path id="路径 1"  style="fill:#000000" transform="translate(178 226)  rotate(0 0.00001016368329485324 0.4999999998966995)" opacity="1" d="M10.9998 -11.0002L11 -0.000223601L0 0L11 0L11 0.999776L11 0.999776L11.0002 11.9998L-10.9998 12.0002L-11 1.00022L0.00148611 1L-11 1L-11 0L-11.0002 -10.9998L10.9998 -11.0002Z " /><path  id="路径 1" style="stroke:#000000; stroke-width:22; stroke-opacity:1; stroke-dasharray:0 0" transform="translate(178 226)  rotate(0 0.00001016368329485324 0.4999999998966995)" d="" /><path id="路径 1"  style="fill:#000000" transform="translate(224 226)  rotate(0 0.00001016368329485324 0.4999999998966995)" opacity="1" d="M10.9998 -11.0002L11 -0.000223601L0 0L11 0L11 0.999776L11 0.999776L11.0002 11.9998L-10.9998 12.0002L-11 1.00022L0.00148611 1L-11 1L-11 0L-11.0002 -10.9998L10.9998 -11.0002Z " /><path  id="路径 1" style="stroke:#000000; stroke-width:22; stroke-opacity:1; stroke-dasharray:0 0" transform="translate(224 226)  rotate(0 0.00001016368329485324 0.4999999998966995)" d="" /><path id="路径 1"  style="fill:#000000" transform="translate(132 226)  rotate(0 0.000010163683294235377 0.4999999998966995)" opacity="1" d="M10.9998 -11.0002L11 -0.000223601L0 0L11 0L11 0.999776L11 0.999776L11.0002 11.9998L-10.9998 12.0002L-11 1.00022L0.00148611 1L-11 1L-11 0L-11.0002 -10.9998L10.9998 -11.0002Z " /><path  id="路径 1" style="stroke:#000000; stroke-width:22; stroke-opacity:1; stroke-dasharray:0 0" transform="translate(132 226)  rotate(0 0.000010163683294235377 0.4999999998966995)" d="" /><path id="路径 1"  style="fill:#000000" transform="translate(132 179)  rotate(0 0.000010163683294235377 0.4999999998966995)" opacity="1" d="M10.9998 -11.0002L11 -0.000223601L0 0L11 0L11 0.999776L11 0.999776L11.0002 11.9998L-10.9998 12.0002L-11 1.00022L0.00148611 1L-11 1L-11 0L-11.0002 -10.9998L10.9998 -11.0002Z " /><path  id="路径 1" style="stroke:#000000; stroke-width:22; stroke-opacity:1; stroke-dasharray:0 0" transform="translate(132 179)  rotate(0 0.000010163683294235377 0.4999999998966995)" d="" /></g></g></svg>