<svg xmlns="http://www.w3.org/2000/svg" xmlns:xlink="http://www.w3.org/1999/xlink" width="308" height="308" viewBox="0 0 308 308" fill="none"><defs><rect id="path_0" x="0" y="0" width="308" height="308" /></defs><g opacity="1" transform="translate(0 0)  rotate(0 154 154)"><mask id="bg-mask-0" fill="white"><use xlink:href="#path_0"></use></mask><g mask="url(#bg-mask-0)" ><path  id="并集" style="stroke:#000000; stroke-width:22; stroke-opacity:1; stroke-dasharray:0 0" transform="translate(167 132.41)  rotate(0 55.000233764715595 61.58880343444715)" d="M61.5,121.43L103.5,97.15C107.53,94.82 110,90.53 110,85.88L110,37.3C110,32.65 107.53,28.36 103.5,26.03L61.5,1.74C57.48,-0.58 52.52,-0.58 48.5,1.74L6.5,26.03C2.48,28.36 0,32.65 0,37.3L0,85.88C0,90.53 2.48,94.82 6.5,97.15L48.5,121.43C52.52,123.76 57.48,123.76 61.5,121.43Z " /><path  id="圆形 1" style="stroke:#000000; stroke-width:22; stroke-opacity:1; stroke-dasharray:0 0" transform="translate(198.22 170.22)  rotate(0 23.77614272120518 23.77614272120518)" d="M23.78,0C10.64,0 0,10.64 0,23.78C0,36.91 10.64,47.55 23.78,47.55C36.91,47.55 47.55,36.91 47.55,23.78C47.55,10.64 36.91,0 23.78,0Z " /><path id="并集" fill-rule="evenodd" style="fill:#000000" transform="translate(42.087719298245624 92.27192982456145)  rotate(0 102.77192982456152 0)" opacity="1" d="M-11 11L205.54 11L205.54 -11L-11 -11L-11 11ZM205.544 11L216.544 11L216.544 -11L205.544 -11L205.544 11Z " /><path  id="并集" style="stroke:#000000; stroke-width:22; stroke-opacity:1; stroke-dasharray:0 0" transform="translate(42.087719298245624 92.27192982456145)  rotate(0 102.77192982456152 0)" d="" /><path id="路径 1"  style="fill:#000000" transform="translate(122 117)  rotate(0 0.00023376471581570968 11.5)" opacity="1" d="M10.9998 -11.0002L11 -0.000223601L0 0L11 0L11 22.9998L11.0005 22.9998L11.0007 33.9998L-10.9993 34.0002L-10.9995 23.0002L0.0004673 23L-11 23L-11 0L-11.0002 -10.9998L10.9998 -11.0002Z " /><path  id="路径 1" style="stroke:#000000; stroke-width:22; stroke-opacity:1; stroke-dasharray:0 0" transform="translate(122 117)  rotate(0 0.00023376471581570968 11.5)" d="" /><path id="路径 1"  style="fill:#000000" transform="translate(76 156)  rotate(0 0.00023376471581570968 11.5)" opacity="1" d="M10.9998 -11.0002L11 -0.000223601L0 0L11 0L11 22.9998L11.0005 22.9998L11.0007 33.9998L-10.9993 34.0002L-10.9995 23.0002L0.0004673 23L-11 23L-11 0L-11.0002 -10.9998L10.9998 -11.0002Z " /><path  id="路径 1" style="stroke:#000000; stroke-width:22; stroke-opacity:1; stroke-dasharray:0 0" transform="translate(76 156)  rotate(0 0.00023376471581570968 11.5)" d="" /><path id="路径 1"  style="fill:#000000" transform="translate(76 195)  rotate(0 0.00023376471581570968 11.5)" opacity="1" d="M10.9998 -11.0002L11 -0.000223601L0 0L11 0L11 22.9998L11.0005 22.9998L11.0007 33.9998L-10.9993 34.0002L-10.9995 23.0002L0.0004673 23L-11 23L-11 0L-11.0002 -10.9998L10.9998 -11.0002Z " /><path  id="路径 1" style="stroke:#000000; stroke-width:22; stroke-opacity:1; stroke-dasharray:0 0" transform="translate(76 195)  rotate(0 0.00023376471581570968 11.5)" d="" /><path id="路径 1"  style="fill:#000000" transform="translate(122 195)  rotate(0 0.00023376471581570968 11.5)" opacity="1" d="M10.9998 -11.0002L11 -0.000223601L0 0L11 0L11 22.9998L11.0005 22.9998L11.0007 33.9998L-10.9993 34.0002L-10.9995 23.0002L0.0004673 23L-11 23L-11 0L-11.0002 -10.9998L10.9998 -11.0002Z " /><path  id="路径 1" style="stroke:#000000; stroke-width:22; stroke-opacity:1; stroke-dasharray:0 0" transform="translate(122 195)  rotate(0 0.00023376471581570968 11.5)" d="" /><path id="路径 1"  style="fill:#000000" transform="translate(122 156)  rotate(0 0.00023376471581570968 11.5)" opacity="1" d="M10.9998 -11.0002L11 -0.000223601L0 0L11 0L11 22.9998L11.0005 22.9998L11.0007 33.9998L-10.9993 34.0002L-10.9995 23.0002L0.0004673 23L-11 23L-11 0L-11.0002 -10.9998L10.9998 -11.0002Z " /><path  id="路径 1" style="stroke:#000000; stroke-width:22; stroke-opacity:1; stroke-dasharray:0 0" transform="translate(122 156)  rotate(0 0.00023376471581570968 11.5)" d="" /><path id="并集"  style="fill:#000000" transform="translate(36 47)  rotate(0 107 101)" opacity="1" d="" /><path  id="并集" style="stroke:#000000; stroke-width:22; stroke-opacity:1; stroke-dasharray:0 0" transform="translate(36 47)  rotate(0 107 101)" d="" /></g></g></svg>