<svg xmlns="http://www.w3.org/2000/svg" xmlns:xlink="http://www.w3.org/1999/xlink" width="308" height="308" viewBox="0 0 308 308" fill="none"><defs><rect id="path_0" x="0" y="0" width="308" height="308" /></defs><g opacity="1" transform="translate(0 0)  rotate(0 154 154)"><mask id="bg-mask-0" fill="white"><use xlink:href="#path_0"></use></mask><g mask="url(#bg-mask-0)" ><path id="并集" fill-rule="evenodd" style="fill:#000000" transform="translate(42.087719298245624 92.27192982456145)  rotate(0 102.77192982456152 0)" opacity="1" d="M-11 11L205.54 11L205.54 -11L-11 -11L-11 11ZM205.544 11L216.544 11L216.544 -11L205.544 -11L205.544 11Z " /><path  id="并集" style="stroke:#000000; stroke-width:22; stroke-opacity:1; stroke-dasharray:0 0" transform="translate(42.087719298245624 92.27192982456145)  rotate(0 102.77192982456152 0)" d="" /><path id="路径 1"  style="fill:#000000" transform="translate(168 117)  rotate(0 0.00023376471582992053 11.5)" opacity="1" d="M10.9998 -11.0002L11 -0.000223601L0 0L11 0L11 22.9998L11.0005 22.9998L11.0007 33.9998L-10.9993 34.0002L-10.9995 23.0002L0.0004673 23L-11 23L-11 0L-11.0002 -10.9998L10.9998 -11.0002Z " /><path  id="路径 1" style="stroke:#000000; stroke-width:22; stroke-opacity:1; stroke-dasharray:0 0" transform="translate(168 117)  rotate(0 0.00023376471582992053 11.5)" d="" /><path id="路径 1"  style="fill:#000000" transform="translate(214 117)  rotate(0 0.00023376471582992053 11.5)" opacity="1" d="M10.9998 -11.0002L11 -0.000223601L0 0L11 0L11 22.9998L11.0005 22.9998L11.0007 33.9998L-10.9993 34.0002L-10.9995 23.0002L0.0004673 23L-11 23L-11 0L-11.0002 -10.9998L10.9998 -11.0002Z " /><path  id="路径 1" style="stroke:#000000; stroke-width:22; stroke-opacity:1; stroke-dasharray:0 0" transform="translate(214 117)  rotate(0 0.00023376471582992053 11.5)" d="" /><path id="路径 1"  style="fill:#000000" transform="translate(122 117)  rotate(0 0.00023376471581570968 11.5)" opacity="1" d="M10.9998 -11.0002L11 -0.000223601L0 0L11 0L11 22.9998L11.0005 22.9998L11.0007 33.9998L-10.9993 34.0002L-10.9995 23.0002L0.0004673 23L-11 23L-11 0L-11.0002 -10.9998L10.9998 -11.0002Z " /><path  id="路径 1" style="stroke:#000000; stroke-width:22; stroke-opacity:1; stroke-dasharray:0 0" transform="translate(122 117)  rotate(0 0.00023376471581570968 11.5)" d="" /><path id="路径 1"  style="fill:#000000" transform="translate(76 156)  rotate(0 0.00023376471581570968 11.5)" opacity="1" d="M10.9998 -11.0002L11 -0.000223601L0 0L11 0L11 22.9998L11.0005 22.9998L11.0007 33.9998L-10.9993 34.0002L-10.9995 23.0002L0.0004673 23L-11 23L-11 0L-11.0002 -10.9998L10.9998 -11.0002Z " /><path  id="路径 1" style="stroke:#000000; stroke-width:22; stroke-opacity:1; stroke-dasharray:0 0" transform="translate(76 156)  rotate(0 0.00023376471581570968 11.5)" d="" /><path id="路径 1"  style="fill:#000000" transform="translate(76 195)  rotate(0 0.00023376471581570968 11.5)" opacity="1" d="M10.9998 -11.0002L11 -0.000223601L0 0L11 0L11 22.9998L11.0005 22.9998L11.0007 33.9998L-10.9993 34.0002L-10.9995 23.0002L0.0004673 23L-11 23L-11 0L-11.0002 -10.9998L10.9998 -11.0002Z " /><path  id="路径 1" style="stroke:#000000; stroke-width:22; stroke-opacity:1; stroke-dasharray:0 0" transform="translate(76 195)  rotate(0 0.00023376471581570968 11.5)" d="" /><path id="路径 1"  style="fill:#000000" transform="translate(122 195)  rotate(0 0.00023376471581570968 11.5)" opacity="1" d="M10.9998 -11.0002L11 -0.000223601L0 0L11 0L11 22.9998L11.0005 22.9998L11.0007 33.9998L-10.9993 34.0002L-10.9995 23.0002L0.0004673 23L-11 23L-11 0L-11.0002 -10.9998L10.9998 -11.0002Z " /><path  id="路径 1" style="stroke:#000000; stroke-width:22; stroke-opacity:1; stroke-dasharray:0 0" transform="translate(122 195)  rotate(0 0.00023376471581570968 11.5)" d="" /><path id="路径 1"  style="fill:#000000" transform="translate(122 156)  rotate(0 0.00023376471581570968 11.5)" opacity="1" d="M10.9998 -11.0002L11 -0.000223601L0 0L11 0L11 22.9998L11.0005 22.9998L11.0007 33.9998L-10.9993 34.0002L-10.9995 23.0002L0.0004673 23L-11 23L-11 0L-11.0002 -10.9998L10.9998 -11.0002Z " /><path  id="路径 1" style="stroke:#000000; stroke-width:22; stroke-opacity:1; stroke-dasharray:0 0" transform="translate(122 156)  rotate(0 0.00023376471581570968 11.5)" d="" /><path id="并集"  style="fill:#000000" transform="translate(36 47)  rotate(0 107 101)" opacity="1" d="" /><path  id="并集" style="stroke:#000000; stroke-width:22; stroke-opacity:1; stroke-dasharray:0 0" transform="translate(36 47)  rotate(0 107 101)" d="" /><path id="并集" fill-rule="evenodd" style="fill:#000000" transform="translate(162.33333333333277 180.9999999999998)  rotate(0 56.333333333333336 39)" opacity="1" d="M112.204 -15.5495L104.661 -7.54346L104.662 -7.5418L36.5544 64.7396L7.97529 34.6541L3.22816 39.1635L7.97471 34.6539L0.39817 26.6792L-15.5513 41.8323L-7.97471 49.807L-7.97448 49.8068L24.2747 83.7559Q26.7726 86.3106 29.9122 87.644Q33.0282 88.9675 36.4071 88.9995Q39.9035 89.0326 43.1299 87.6781Q46.4411 86.2881 48.9716 83.6408L120.676 7.54364L120.674 7.54199L128.216 -0.46254L112.204 -15.5495Z " /><path  id="并集" style="stroke:#000000; stroke-width:22; stroke-opacity:1; stroke-dasharray:0 0" transform="translate(162.33333333333277 180.9999999999998)  rotate(0 56.333333333333336 39)" d="" /></g></g></svg>