<svg xmlns="http://www.w3.org/2000/svg" xmlns:xlink="http://www.w3.org/1999/xlink" width="308" height="308" viewBox="0 0 308 308" fill="none"><defs><rect id="path_0" x="0" y="0" width="308" height="308" /></defs><g opacity="1" transform="translate(0 0)  rotate(0 154 154)"><mask id="bg-mask-0" fill="white"><use xlink:href="#path_0"></use></mask><g mask="url(#bg-mask-0)" ><path id="并集" fill-rule="evenodd" style="fill:#000000" transform="translate(42.087719298245624 92.27192982456145)  rotate(0 102.77192982456152 0)" opacity="1" d="M-11 11L205.54 11L205.54 -11L-11 -11L-11 11ZM205.544 11L216.544 11L216.544 -11L205.544 -11L205.544 11Z " /><path  id="并集" style="stroke:#000000; stroke-width:22; stroke-opacity:1; stroke-dasharray:0 0" transform="translate(42.087719298245624 92.27192982456145)  rotate(0 102.77192982456152 0)" d="" /><path id="路径 1"  style="fill:#000000" transform="translate(168 131)  rotate(0 0.00001016368329485324 0.4999999998966995)" opacity="1" d="M10.9998 -11.0002L11 -0.000223601L0 0L11 0L11 0.999776L11 0.999776L11.0002 11.9998L-10.9998 12.0002L-11 1.00022L0.00148611 1L-11 1L-11 0L-11.0002 -10.9998L10.9998 -11.0002Z " /><path  id="路径 1" style="stroke:#000000; stroke-width:22; stroke-opacity:1; stroke-dasharray:0 0" transform="translate(168 131)  rotate(0 0.00001016368329485324 0.4999999998966995)" d="" /><path id="路径 1"  style="fill:#000000" transform="translate(214 131)  rotate(0 0.00001016368329485324 0.4999999998966995)" opacity="1" d="M10.9998 -11.0002L11 -0.000223601L0 0L11 0L11 0.999776L11 0.999776L11.0002 11.9998L-10.9998 12.0002L-11 1.00022L0.00148611 1L-11 1L-11 0L-11.0002 -10.9998L10.9998 -11.0002Z " /><path  id="路径 1" style="stroke:#000000; stroke-width:22; stroke-opacity:1; stroke-dasharray:0 0" transform="translate(214 131)  rotate(0 0.00001016368329485324 0.4999999998966995)" d="" /><path id="路径 1"  style="fill:#000000" transform="translate(122 131)  rotate(0 0.000010163683294235377 0.4999999998966995)" opacity="1" d="M10.9998 -11.0002L11 -0.000223601L0 0L11 0L11 0.999776L11 0.999776L11.0002 11.9998L-10.9998 12.0002L-11 1.00022L0.00148611 1L-11 1L-11 0L-11.0002 -10.9998L10.9998 -11.0002Z " /><path  id="路径 1" style="stroke:#000000; stroke-width:22; stroke-opacity:1; stroke-dasharray:0 0" transform="translate(122 131)  rotate(0 0.000010163683294235377 0.4999999998966995)" d="" /><path id="路径 1"  style="fill:#000000" transform="translate(76 170)  rotate(0 0.000010163683294235377 0.4999999998966995)" opacity="1" d="M10.9998 -11.0002L11 -0.000223601L0 0L11 0L11 0.999776L11 0.999776L11.0002 11.9998L-10.9998 12.0002L-11 1.00022L0.00148611 1L-11 1L-11 0L-11.0002 -10.9998L10.9998 -11.0002Z " /><path  id="路径 1" style="stroke:#000000; stroke-width:22; stroke-opacity:1; stroke-dasharray:0 0" transform="translate(76 170)  rotate(0 0.000010163683294235377 0.4999999998966995)" d="" /><path id="路径 1"  style="fill:#000000" transform="translate(76 209)  rotate(0 0.000010163683294235377 0.4999999998966995)" opacity="1" d="M10.9998 -11.0002L11 -0.000223601L0 0L11 0L11 0.999776L11 0.999776L11.0002 11.9998L-10.9998 12.0002L-11 1.00022L0.00148611 1L-11 1L-11 0L-11.0002 -10.9998L10.9998 -11.0002Z " /><path  id="路径 1" style="stroke:#000000; stroke-width:22; stroke-opacity:1; stroke-dasharray:0 0" transform="translate(76 209)  rotate(0 0.000010163683294235377 0.4999999998966995)" d="" /><path id="路径 1"  style="fill:#000000" transform="translate(122 209)  rotate(0 0.000010163683294235377 0.4999999998966995)" opacity="1" d="M10.9998 -11.0002L11 -0.000223601L0 0L11 0L11 0.999776L11 0.999776L11.0002 11.9998L-10.9998 12.0002L-11 1.00022L0.00148611 1L-11 1L-11 0L-11.0002 -10.9998L10.9998 -11.0002Z " /><path  id="路径 1" style="stroke:#000000; stroke-width:22; stroke-opacity:1; stroke-dasharray:0 0" transform="translate(122 209)  rotate(0 0.000010163683294235377 0.4999999998966995)" d="" /><path id="路径 1"  style="fill:#000000" transform="translate(122 170)  rotate(0 0.000010163683294235377 0.4999999998966995)" opacity="1" d="M10.9998 -11.0002L11 -0.000223601L0 0L11 0L11 0.999776L11 0.999776L11.0002 11.9998L-10.9998 12.0002L-11 1.00022L0.00148611 1L-11 1L-11 0L-11.0002 -10.9998L10.9998 -11.0002Z " /><path  id="路径 1" style="stroke:#000000; stroke-width:22; stroke-opacity:1; stroke-dasharray:0 0" transform="translate(122 170)  rotate(0 0.000010163683294235377 0.4999999998966995)" d="" /><path id="并集" fill-rule="evenodd" style="fill:#000000" transform="translate(165 169)  rotate(0 51 51)" opacity="1" d="M0,51C0,79.16 22.84,102 51,102C79.16,102 102,79.16 102,51C102,22.84 79.16,0 51,0C22.84,0 0,22.84 0,51Z M39.9439 21.8984L39.9349 32.8984L58.0494 32.9133L39.93 32.9048L39.9205 54.1Q39.8925 57.171 41.0668 59.9662Q42.2141 62.6974 44.3374 64.7609Q46.3908 66.7565 49.0489 67.8268Q51.7394 68.91 54.5024 68.88L60.7624 68.89L60.7842 55.257L60.7715 68.8893L71.7715 68.8995L71.792 46.8995L61.9232 46.8903L61.93 32.9165L61.9348 32.9165L61.9439 21.9165L39.9439 21.8984ZM54.702 46.8803Q54.6197 46.8791 54.5376 46.88L54.702 46.8803Z " /><path  id="并集" style="stroke:#000000; stroke-width:22; stroke-opacity:1; stroke-dasharray:0 0" transform="translate(165 169)  rotate(0 51 51)" d="" /><path id="并集"  style="fill:#000000" transform="translate(36 47)  rotate(0 107 101)" opacity="1" d="" /><path  id="并集" style="stroke:#000000; stroke-width:22; stroke-opacity:1; stroke-dasharray:0 0" transform="translate(36 47)  rotate(0 107 101)" d="" /></g></g></svg>