<svg xmlns="http://www.w3.org/2000/svg" xmlns:xlink="http://www.w3.org/1999/xlink" width="308" height="308" viewBox="0 0 308 308" fill="none"><defs><rect id="path_0" x="0" y="0" width="308" height="308" /></defs><g opacity="1" transform="translate(0 0)  rotate(0 154 154)"><mask id="bg-mask-0" fill="white"><use xlink:href="#path_0"></use></mask><g mask="url(#bg-mask-0)" ><path  id="圆形 1" style="stroke:#000000; stroke-width:22; stroke-opacity:1; stroke-dasharray:0 0" transform="translate(40.5 40.5)  rotate(0 113.5 113.5)" d="M113.5,0C50.82,0 0,50.82 0,113.5C0,176.18 50.82,227 113.5,227C176.18,227 227,176.18 227,113.5C227,50.82 176.18,0 113.5,0Z " /><path id="路径 1"  style="fill:#000000" transform="translate(105 93.5)  rotate(0 0.5 81.5)" opacity="1" d="M11 -11L11 174L-11 174L-11 -11L11 -11Z " /><path  id="路径 1" style="stroke:#000000; stroke-width:22; stroke-opacity:1; stroke-dasharray:0 0" transform="translate(105 93.5)  rotate(0 0.5 81.5)" d="" /><path  id="路径 2" style="stroke:#000000; stroke-width:22; stroke-opacity:1; stroke-dasharray:0 0" transform="translate(105 97.5)  rotate(0 53.5 39.09615384615385)" d="M0,77.6C8.25,74.08 20.58,65.85 39.98,65.85C59.38,65.85 60.55,78.19 79.37,78.19C98.5,78.19 107,74.19 107,74.19L107,10.52C107,10.52 95.5,13.52 79.37,13.52C67.61,13.52 59.38,0 39.98,0C20.58,0 9.7,9.47 0,13.52L0,77.6Z " /></g></g></svg>