<svg xmlns="http://www.w3.org/2000/svg" xmlns:xlink="http://www.w3.org/1999/xlink" width="308" height="308" viewBox="0 0 308 308" fill="none"><defs><rect id="path_0" x="0" y="0" width="308" height="308" /></defs><g opacity="1" transform="translate(0 0)  rotate(0 154 154)"><mask id="bg-mask-0" fill="white"><use xlink:href="#path_0"></use></mask><g mask="url(#bg-mask-0)" ><path id="并集" fill-rule="evenodd" style="fill:#000000" transform="translate(133 19)  rotate(90 21.5 43.5)" opacity="1" d="M-0.276952 -15.5539L7.63847 -7.91542L0 0L7.63887 -7.91502L49.1989 32.195Q51.5707 34.3999 52.8574 37.5634Q54.063 40.5272 53.9977 43.7491Q53.9359 46.802 52.7397 49.6242Q51.5224 52.496 49.3167 54.6896L7.63887 94.915L-0.0184638 86.9809L7.63847 94.9154L-0.276951 102.554L-15.5539 86.723L-7.63888 79.085L-7.63847 79.0846L29.2333 43.5008L-7.63847 7.91542L-7.63887 7.91502L-15.5539 0.276952L-0.276952 -15.5539ZM33.9211 48.025Q33.8504 47.9594 33.782 47.8907L33.9211 48.025Z " /><path  id="并集" style="stroke:#000000; stroke-width:22; stroke-opacity:1; stroke-dasharray:0 0" transform="translate(133 19)  rotate(90 21.5 43.5)" d="" /><path id="并集" fill-rule="evenodd" style="fill:#000000" transform="translate(133 201)  rotate(-90 21.5 43.5)" opacity="1" d="M-7.63887 7.91502L-7.63847 7.91542L29.2333 43.4992L-7.63846 79.0846L-7.63888 79.085L-15.5539 86.723L-0.276947 102.554L7.63847 94.9154L0.0489221 87.0507L7.63887 94.915L49.1989 54.805Q51.5707 52.6001 52.8574 49.4366Q54.063 46.4728 53.9977 43.2509Q53.9359 40.198 52.7397 37.3758Q51.5224 34.504 49.3167 32.3104L7.63887 -7.91502L0 0L7.63847 -7.91542L-0.276952 -15.5539L-15.5539 0.276952L-7.63887 7.91502ZM33.782 39.1093L33.9211 38.975Q33.8504 39.0406 33.782 39.1093Z " /><path  id="并集" style="stroke:#000000; stroke-width:22; stroke-opacity:1; stroke-dasharray:0 0" transform="translate(133 201)  rotate(-90 21.5 43.5)" d="" /><path id="并集" fill-rule="evenodd" style="fill:#000000" transform="translate(41 110.5)  rotate(0 21.5 43.5)" opacity="1" d="M-0.276952 -15.5539L7.63847 -7.91542L0 0L7.63887 -7.91502L49.1989 32.195Q51.5707 34.3999 52.8574 37.5634Q54.063 40.5272 53.9977 43.7491Q53.9359 46.802 52.7397 49.6242Q51.5224 52.496 49.3167 54.6896L7.63887 94.915L-0.0184638 86.9809L7.63847 94.9154L-0.276951 102.554L-15.5539 86.723L-7.63888 79.085L-7.63847 79.0846L29.2333 43.5008L-7.63847 7.91542L-7.63887 7.91502L-15.5539 0.276952L-0.276952 -15.5539ZM33.9211 48.025Q33.8504 47.9594 33.782 47.8907L33.9211 48.025Z " /><path  id="并集" style="stroke:#000000; stroke-width:22; stroke-opacity:1; stroke-dasharray:0 0" transform="translate(41 110.5)  rotate(0 21.5 43.5)" d="" /><path id="并集" fill-rule="evenodd" style="fill:#000000" transform="translate(225 110.5)  rotate(0 21.5 43.5)" opacity="1" d="M50.6389 7.91502L58.5539 0.276953L43.2769 -15.5539L35.3615 -7.91542L42.9631 -0.0382593L35.3611 -7.91502L-6.19887 32.195Q-8.57069 34.3999 -9.85744 37.5634Q-11.063 40.5272 -10.9977 43.7491Q-10.9359 46.802 -9.73966 49.6242Q-8.5224 52.496 -6.31671 54.6896L35.3611 94.915L42.9815 87.0191L35.3615 94.9154L43.2769 102.554L58.5539 86.723L50.6389 79.085L50.6385 79.0846L13.7667 43.5008L50.6385 7.91542L50.6389 7.91502ZM9.21799 47.8908L9.07887 48.025Q9.14952 47.9595 9.21799 47.8908Z " /><path  id="并集" style="stroke:#000000; stroke-width:22; stroke-opacity:1; stroke-dasharray:0 0" transform="translate(225 110.5)  rotate(0 21.5 43.5)" d="" /><path  id="并集" style="stroke:#000000; stroke-width:22; stroke-opacity:1; stroke-dasharray:0 0" transform="translate(119 119)  rotate(0 35 35)" d="M55.19,70C65.73,70 70,65.09 70,56.49L70,33.46L70,13.51C70,4.91 65.73,0 55.19,0L14.93,0C6.19,0 0,3.99 0,13.51L0,33.46L0,56.49C0,66.01 6.19,70 14.93,70L55.19,70Z " /></g></g></svg>