<svg xmlns="http://www.w3.org/2000/svg" xmlns:xlink="http://www.w3.org/1999/xlink" width="308" height="308" viewBox="0 0 308 308" fill="none"><defs><rect id="path_0" x="0" y="0" width="308" height="308" /></defs><g opacity="1" transform="translate(0 0)  rotate(0 154 154)"><mask id="bg-mask-0" fill="white"><use xlink:href="#path_0"></use></mask><g mask="url(#bg-mask-0)" ><path  id="路径 16" style="stroke:#000000; stroke-width:22; stroke-opacity:1; stroke-dasharray:0 0" transform="translate(37.072736257685165 35.787066988807055)  rotate(-6.999999910278043 120.5 120.5)" d="M100.56,8.26Z M100.56,232.74C111.57,243.75 129.43,243.75 140.44,232.74L232.74,140.44C243.75,129.43 243.75,111.57 232.74,100.56L140.44,8.26C129.43,-2.75 111.57,-2.75 100.56,8.26L8.26,100.56C-2.75,111.57 -2.75,129.43 8.26,140.44L100.56,232.74Z " /><path  id="路径 15" style="stroke:#000000; stroke-width:22; stroke-opacity:1; stroke-dasharray:0 0" transform="translate(36.8 40.8)  rotate(-6.999999910278043 74 117.78121188409548)" d="M100.2,232.2C105.72,237.2 111.68,235.15 111.68,235.15L147.55,32.24C149.05,23.77 146.7,15.91 142.06,9.96L140.39,8.28C129.38,-2.76 111.54,-2.76 100.53,8.28L8.26,100.86C-2.75,111.9 -2.75,129.81 8.26,140.85L100.2,232.2Z " /></g></g></svg>