<svg xmlns="http://www.w3.org/2000/svg" xmlns:xlink="http://www.w3.org/1999/xlink" width="308" height="308" viewBox="0 0 308 308" fill="none"><defs><rect id="path_0" x="0" y="0" width="308" height="308" /></defs><g opacity="1" transform="translate(0 0)  rotate(0 154 154)"><mask id="bg-mask-0" fill="white"><use xlink:href="#path_0"></use></mask><g mask="url(#bg-mask-0)" ><path id="并集" fill-rule="evenodd" style="fill:#000000" transform="translate(133 120)  rotate(-90 25 50)" opacity="1" d="M-15.552 0.366777L-7.59262 7.9594L0 0L-7.59237 7.95964L36.4826 49.9991L-7.59237 92.0404L-0.135167 99.8583L-7.59262 92.0406L-15.552 99.6332L-0.366776 115.552L7.59237 107.96L7.59263 107.959L55.9224 61.8596Q58.4377 59.5398 59.7926 56.2332Q61.0649 53.128 60.9965 49.7473Q60.9315 46.5387 59.6661 43.5741Q58.3799 40.5609 56.0523 38.2663L7.59262 -7.9594L7.59237 -7.95964L-0.366777 -15.552L-15.552 0.366777ZM40.6255 46.0473L40.7376 45.9404Q40.6808 45.9927 40.6255 46.0473Z " /><path  id="并集" style="stroke:#000000; stroke-width:22; stroke-opacity:1; stroke-dasharray:0 0" transform="translate(133 120)  rotate(-90 25 50)" d="" /><path id="路径 1"  style="fill:#000000" transform="translate(158 152)  rotate(0 0 51.165)" opacity="1" d="" /><path  id="路径 1" style="stroke:#000000; stroke-width:22; stroke-opacity:1; stroke-dasharray:0 0" transform="translate(158 152)  rotate(0 0 51.165)" d="" /><path id="并集"  style="fill:#000000" transform="translate(33 53)  rotate(0 121 95)" opacity="1" d="" /><path  id="并集" style="stroke:#000000; stroke-width:22; stroke-opacity:1; stroke-dasharray:0 0" transform="translate(33 53)  rotate(0 121 95)" d="" /></g></g></svg>