<svg xmlns="http://www.w3.org/2000/svg" xmlns:xlink="http://www.w3.org/1999/xlink" width="308" height="308" viewBox="0 0 308 308" fill="none"><defs><rect id="path_0" x="0" y="0" width="308" height="308" /></defs><g opacity="1" transform="translate(0 0)  rotate(0 154 154)"><mask id="bg-mask-0" fill="white"><use xlink:href="#path_0"></use></mask><g mask="url(#bg-mask-0)" ><path  id="并集" style="stroke:#000000; stroke-width:22; stroke-opacity:1; stroke-dasharray:0 0" transform="translate(34 55)  rotate(0 121 95.001)" d="M181.5,190C214.91,190 242,162.91 242,129.5C242,103.19 225.2,80.8 200.75,72.47C202.21,67.41 203,62.05 203,56.5C203,25.3 178.15,0 147.5,0C122.99,0 102.2,16.17 94.84,38.6C88.82,37.05 82.5,36.22 76,36.22C34.03,36.22 0,70.64 0,113.11C0,155.57 34.03,190 76,190C98.04,190 128,190 128,190C128,190 161.51,190 181.5,190Z " /></g></g></svg>