<svg xmlns="http://www.w3.org/2000/svg" xmlns:xlink="http://www.w3.org/1999/xlink" width="308" height="308" viewBox="0 0 308 308" fill="none"><defs><rect id="path_0" x="0" y="0" width="308" height="308" /></defs><g opacity="1" transform="translate(0 0)  rotate(0 154 154)"><mask id="bg-mask-0" fill="white"><use xlink:href="#path_0"></use></mask><g mask="url(#bg-mask-0)" ><path id="并集" fill-rule="evenodd" style="fill:#000000" transform="translate(42.25 130)  rotate(90 53.5 24.5)" opacity="1" d="M107.222 -15.5548L99.3335 -7.88824L107 0L99.333 -7.88778L53.8879 36.2852L7.58475 -7.7969L-7.58475 8.1369L41.8137 55.1659L42.0214 55.3447Q44.5153 57.4927 47.3405 58.6672Q50.6203 60.0306 54.0845 59.9957Q57.5516 59.9608 60.8126 58.5289Q63.6294 57.292 66.104 55.0783L66.2737 54.9265L114.667 7.88824L114.667 7.88778L122.555 0.221703L107.222 -15.5548ZM-15.5517 0.547392L-7.58508 8.13247L7.58508 -7.8007L-0.381508 -15.3858L-15.5517 0.547392Z " /><path  id="并集" style="stroke:#000000; stroke-width:22; stroke-opacity:1; stroke-dasharray:0 0" transform="translate(42.25 130)  rotate(90 53.5 24.5)" d="" /><path id="并集" fill-rule="evenodd" style="fill:#000000" transform="translate(159.25 130)  rotate(-90 53 24.5)" opacity="1" d="M-15.555 0.202506L-7.67626 7.87877L0 0L-7.676 7.87903L40.5991 54.9101L40.7599 55.0549Q43.2304 57.2791 46.051 58.5225Q49.3135 59.9606 52.7851 59.9957Q56.2541 60.0307 59.5355 58.6613Q62.3651 57.4804 64.8553 55.3217L65.0852 55.1223L113.654 8.07057L98.3462 -7.73057L52.9601 36.2381L7.67626 -7.87877L7.676 -7.87903L-0.202506 -15.555L-15.555 0.202506ZM113.655 8.06554L121.554 0.410789L106.245 -15.3885L98.3452 -7.73378L113.655 8.06554Z " /><path  id="并集" style="stroke:#000000; stroke-width:22; stroke-opacity:1; stroke-dasharray:0 0" transform="translate(159.25 130)  rotate(-90 53 24.5)" d="" /><path  id="并集" style="stroke:#000000; stroke-width:22; stroke-opacity:1; stroke-dasharray:0 0" transform="translate(40 40)  rotate(0 114 114)" d="M48.63,0C20.18,0 0,13 0,44L0,109L0,184C0,215 20.18,228 48.63,228L179.78,228C214.08,228 228,212 228,184L228,109L228,44C228,16 214.08,0 179.78,0L48.63,0Z " /></g></g></svg>