<svg xmlns="http://www.w3.org/2000/svg" xmlns:xlink="http://www.w3.org/1999/xlink" width="308" height="308" viewBox="0 0 308 308" fill="none"><defs><rect id="path_0" x="0" y="0" width="308" height="308" /></defs><g opacity="1" transform="translate(0 0)  rotate(0 154 154)"><mask id="bg-mask-0" fill="white"><use xlink:href="#path_0"></use></mask><g mask="url(#bg-mask-0)" ><path id="路径 1"  style="fill:#000000" transform="translate(121 -49)  rotate(-90 33.00000000000006 121.00000000000364)" opacity="1" d="M44 0L44 176L22 176L22 0L44 0Z M33 165L66 165L66 187L33 187L33 165Z M33 187L0 187L0 165L33 165L33 187Z M44 209L44 242L22 242L22 209L44 209Z " /><path  id="路径 1" style="stroke:#000000; stroke-width:22; stroke-opacity:1; stroke-dasharray:0 0" transform="translate(121 -49)  rotate(-90 33.00000000000006 121.00000000000364)" d="" /><path id="路径 1"  style="fill:#000000" transform="translate(121 33)  rotate(-90 33.00000000000006 121.00000000000364)" opacity="1" d="M44 0L44 88L22 88L22 0L44 0Z M33 77L66 77L66 99L33 99L33 77Z M33 99L0 99L0 77L33 77L33 99Z M44 121L44 242L22 242L22 121L44 121Z " /><path  id="路径 1" style="stroke:#000000; stroke-width:22; stroke-opacity:1; stroke-dasharray:0 0" transform="translate(121 33)  rotate(-90 33.00000000000006 121.00000000000364)" d="" /><path id="路径 1"  style="fill:#000000" transform="translate(121 115)  rotate(-90 33.00000000000006 121.00000000000364)" opacity="1" d="M44 0L44 143L22 143L22 0L44 0Z M33 132L66 132L66 154L33 154L33 132Z M33 154L0 154L0 132L33 132L33 154Z M44 176L44 242L22 242L22 176L44 176Z " /><path  id="路径 1" style="stroke:#000000; stroke-width:22; stroke-opacity:1; stroke-dasharray:0 0" transform="translate(121 115)  rotate(-90 33.00000000000006 121.00000000000364)" d="" /></g></g></svg>