<svg xmlns="http://www.w3.org/2000/svg" xmlns:xlink="http://www.w3.org/1999/xlink" width="308" height="308" viewBox="0 0 308 308" fill="none"><defs><rect id="path_0" x="0" y="0" width="308" height="308" /></defs><g opacity="1" transform="translate(0 0)  rotate(0 154 154)"><mask id="bg-mask-0" fill="white"><use xlink:href="#path_0"></use></mask><g mask="url(#bg-mask-0)" ><path  id="并集" style="stroke:#000000; stroke-width:22; stroke-opacity:1; stroke-dasharray:0 0" transform="translate(95 38)  rotate(0 76 99.5)" d="M102.47,199C137.7,199 152,182.5 152,153.63L152,96.92L152,45.37C152,16.5 137.7,0 102.47,0L49.94,0C20.72,0 0,13.4 0,45.37L0,96.92L0,153.63C0,185.6 20.72,199 49.94,199L102.47,199Z " /><path id="路径 1"  style="fill:#000000" transform="translate(170 46)  rotate(-90 0.5 38.5)" opacity="1" d="M-11 -11L-11 88L11 88L11 -11L-11 -11Z " /><path  id="路径 1" style="stroke:#000000; stroke-width:22; stroke-opacity:1; stroke-dasharray:0 0" transform="translate(170 46)  rotate(-90 0.5 38.5)" d="" /><path id="路径 1"  style="fill:#000000" transform="translate(164.5 89.5)  rotate(-90 0.5 33)" opacity="1" d="M-11 -11L-11 77L11 77L11 -11L-11 -11Z " /><path  id="路径 1" style="stroke:#000000; stroke-width:22; stroke-opacity:1; stroke-dasharray:0 0" transform="translate(164.5 89.5)  rotate(-90 0.5 33)" d="" /><path id="并集" fill-rule="evenodd" style="fill:#000000" transform="translate(61 92)  rotate(0 68.5 89)" opacity="1" d="M11 -11L11 110.16Q11 115.951 12.2666 121.578Q13.494 127.032 15.8776 132.19Q18.213 137.243 21.5776 141.843Q24.9017 146.387 29.0938 150.303Q33.2647 154.199 38.1064 157.298Q42.9568 160.402 48.2554 162.562Q53.6 164.741 59.1634 165.861Q64.8156 167 70.47 167L148 167L148 189L70.47 189Q62.6218 189 54.819 187.428Q47.2188 185.897 39.9502 182.934Q32.7904 180.015 26.2471 175.827Q19.7144 171.646 14.0762 166.38Q8.36935 161.049 3.82139 154.832Q-0.837855 148.463 -4.09319 141.418Q-7.45623 134.141 -9.19647 126.409Q-11 118.397 -11 110.16L-11 -11L11 -11Z " /><path  id="并集" style="stroke:#000000; stroke-width:22; stroke-opacity:1; stroke-dasharray:0 0" transform="translate(61 92)  rotate(0 68.5 89)" d="" /></g></g></svg>