<svg xmlns="http://www.w3.org/2000/svg" xmlns:xlink="http://www.w3.org/1999/xlink" width="308" height="308" viewBox="0 0 308 308" fill="none"><defs><rect id="path_0" x="0" y="0" width="308" height="308" /></defs><g opacity="1" transform="translate(0 0)  rotate(0 154 154)"><mask id="bg-mask-0" fill="white"><use xlink:href="#path_0"></use></mask><g mask="url(#bg-mask-0)" ><path id="路径 1"  style="fill:#000000" transform="translate(64 37)  rotate(0 88.75 117)" opacity="1" d="M11 149.5L11 214.06Q11 217.706 12.2549 219.674Q13.0608 220.938 14.6314 221.759Q16.092 222.523 17.9788 222.852Q18.5647 222.954 19.0699 222.992Q19.1778 223 19.239 223.002Q19.1873 223 19.07 223L69.27 223Q69.5497 223 70.1993 222.983Q71.6212 222.946 73.308 222.852Q78.8222 222.545 84.7615 221.772Q93.0901 220.688 101.006 218.834Q110.813 216.537 119.385 213.191Q129.325 209.31 137.256 204.15Q146.07 198.416 152.224 191.209Q158.972 183.306 162.519 173.611Q166.5 162.734 166.5 149.5L188.5 149.5Q188.5 166.633 183.18 181.172Q178.272 194.583 168.954 205.495Q160.734 215.121 149.254 222.59Q139.429 228.983 127.385 233.684Q117.355 237.6 106.023 240.254Q97.0282 242.361 87.6003 243.588Q80.8566 244.465 74.533 244.818Q71.2677 245 69.27 245L19.07 245Q18.3617 245 17.4313 244.931Q15.8506 244.812 14.2018 244.525Q8.93741 243.608 4.43856 241.256Q1.35092 239.641 -1.19253 237.425Q-4.17631 234.825 -6.29548 231.501Q-8.60718 227.876 -9.79158 223.541Q-11 219.119 -11 214.06L-11 149.5L11 149.5Z M166.5 127Q166.5 105.225 162.767 87.3257Q159.415 71.2505 153.083 58.4576Q142.5 37.0758 123.756 25.1574Q116.083 20.2782 107.129 17.0426Q99.5816 14.3156 91.2741 12.8075Q84.8271 11.6371 78.0601 11.228Q75.5955 11.079 73.0279 11.0289Q71.546 11 69.27 11L16.49 11Q16.6308 11 16.7184 10.9968Q16.7266 10.9965 16.732 10.9962L16.7298 10.9964Q16.7101 10.9975 16.6815 10.9997Q16.3882 11.0227 16.0212 11.0892Q14.7805 11.3142 13.8006 11.8359Q12.7528 12.3937 12.1645 13.2766Q11.1545 14.792 10.9799 17.6749L0 17.01L11 17.01L11 127L-11 127L-11 16.6773L-10.9799 16.3451Q-10.7115 11.9121 -9.47168 8.04064Q-8.2577 4.24969 -6.14229 1.07563Q-4.19158 -1.85129 -1.54348 -4.15157Q0.737537 -6.13299 3.46188 -7.58342Q7.47421 -9.71956 12.0953 -10.5577Q13.5602 -10.8233 14.9659 -10.9333Q15.8189 -11 16.49 -11L69.27 -11Q71.7606 -11 73.4571 -10.9669Q76.4742 -10.908 79.3876 -10.7319Q87.4651 -10.2436 95.2037 -8.83872Q105.325 -7.00138 114.605 -3.64808Q125.841 0.411865 135.561 6.5926Q146.816 13.7494 155.794 23.5936Q165.81 34.5764 172.8 48.6986Q180.378 64.0093 184.304 82.8345Q188.5 102.955 188.5 127L166.5 127Z " /><path  id="路径 1" style="stroke:#000000; stroke-width:22; stroke-opacity:1; stroke-dasharray:0 0" transform="translate(64 37)  rotate(0 88.75 117)" d="" /><path id="路径 2"  style="fill:#000000" transform="translate(34.5 153.5)  rotate(0 119.49999999999997 0.5)" opacity="1" d="M-11 -11L250 -11L250 11L-11 11L-11 -11Z " /><path  id="路径 2" style="stroke:#000000; stroke-width:22; stroke-opacity:1; stroke-dasharray:0 0" transform="translate(34.5 153.5)  rotate(0 119.49999999999997 0.5)" d="" /></g></g></svg>