<svg xmlns="http://www.w3.org/2000/svg" xmlns:xlink="http://www.w3.org/1999/xlink" width="308" height="308" viewBox="0 0 308 308" fill="none"><defs><rect id="path_0" x="0" y="0" width="308" height="308" /></defs><g opacity="1" transform="translate(0 0)  rotate(0 154 154)"><mask id="bg-mask-0" fill="white"><use xlink:href="#path_0"></use></mask><g mask="url(#bg-mask-0)" ><path id="拼合图形" fill-rule="evenodd" style="fill:#000000" transform="translate(22 34)  rotate(0 132 113.5)" opacity="1" d="M44,44L44,183C44,214 64.18,227 92.63,227L170.78,227C205.08,227 219,211 219,183L219,44L44,44Z M219 33L264 33L264 55L219 55L219 33Z M44 55L0 55L0 33L44 33L44 55Z M83 44L83 27.87Q83 20.2722 85.1432 13.6459Q87.4926 6.38212 92.1887 0.965527Q94.6751 -1.90238 97.7302 -4.12687Q100.847 -6.39598 104.469 -7.93301Q111.698 -11 120.5 -11L142.5 -11Q146.731 -11 150.728 -10.1976Q154.683 -9.40353 158.312 -7.84419Q161.879 -6.31139 165.026 -4.08459Q168.103 -1.90709 170.68 0.863841Q173.198 3.57131 175.154 6.75422Q177.073 9.87751 178.385 13.3519Q179.682 16.7885 180.342 20.4513Q181 24.1086 181 27.87L181 44L159 44L159 27.87Q159 24.2937 157.803 21.1237Q156.658 18.0911 154.57 15.8462Q152.474 13.5926 149.626 12.3686Q146.441 11 142.5 11L120.5 11Q112.606 11 108.811 15.377Q107.047 17.4115 106.076 20.4163Q105 23.7416 105 27.87L105 44L83 44Z " /><path  id="拼合图形" style="stroke:#000000; stroke-width:22; stroke-opacity:1; stroke-dasharray:0 0" transform="translate(22 34)  rotate(0 132 113.5)" d="" /></g></g></svg>