<svg xmlns="http://www.w3.org/2000/svg" xmlns:xlink="http://www.w3.org/1999/xlink" width="308" height="308" viewBox="0 0 308 308" fill="none"><defs><rect id="path_0" x="0" y="0" width="308" height="308" /></defs><g opacity="1" transform="translate(0 0)  rotate(0 154 154)"><mask id="bg-mask-0" fill="white"><use xlink:href="#path_0"></use></mask><g mask="url(#bg-mask-0)" ><path  id="减去顶层" style="stroke:#000000; stroke-width:22; stroke-opacity:1; stroke-dasharray:0 0" transform="translate(40.521992400000045 40.5)  rotate(0 113.48900379999999 113.49999999999991)" d="M113.48,227C176.16,227 226.98,176.18 226.98,113.5C226.98,50.82 176.16,0 113.48,0C107.98,0 160.98,28.5 160.98,76.5C160.98,122.89 123.26,160.5 76.73,160.5C28.48,160.5 0,107 0,111.5C0,174.18 50.8,227 113.48,227Z " /><path id="路径 1"  style="fill:#000000" transform="translate(79 88)  rotate(0 38.5 27.5)" opacity="1" d="M-11 -11L77 -11L77 7.33352L37.0662 44L88 44L88 66L0 66L0 48.1665L40.4783 11L-11 11L-11 -11Z " /><path  id="路径 1" style="stroke:#000000; stroke-width:22; stroke-opacity:1; stroke-dasharray:0 0" transform="translate(79 88)  rotate(0 38.5 27.5)" d="" /></g></g></svg>