<svg xmlns="http://www.w3.org/2000/svg" xmlns:xlink="http://www.w3.org/1999/xlink" width="308" height="308" viewBox="0 0 308 308" fill="none"><defs><rect id="path_0" x="0" y="0" width="308" height="308" /></defs><g opacity="1" transform="translate(0 0)  rotate(0 154 154)"><mask id="bg-mask-0" fill="white"><use xlink:href="#path_0"></use></mask><g mask="url(#bg-mask-0)" ><path id="并集" fill-rule="evenodd" style="fill:#000000" transform="translate(120.18585685949672 118.69712433517371)  rotate(90 34.5 70)" opacity="1" d="M-0.254973 -15.5543L7.64964 -7.90462L0 0L7.64971 -7.90455L74.3397 56.6355Q77.1578 59.2687 78.6633 62.9867Q80.0742 66.4709 79.9978 70.2663Q79.925 73.8835 78.5108 77.2318Q77.0687 80.6466 74.4548 83.2515L7.64971 147.905L0.832344 140.86L7.64965 147.905L-0.254967 155.554L-15.5543 139.745L-7.64964 132.095L56.5151 70.0008L-7.64964 7.90462L-7.64971 7.90455L-15.5543 0.254973L-0.254973 -15.5543ZM59.0403 72.4445Q59.009 72.4155 58.9783 72.3846L59.0403 72.4445Z " /><path  id="并集" style="stroke:#000000; stroke-width:22; stroke-opacity:1; stroke-dasharray:0 0" transform="translate(120.18585685949672 118.69712433517371)  rotate(90 34.5 70)" d="" /><path id="路径 1"  style="fill:#000000" transform="translate(154 44)  rotate(0 0.5 87.5)" opacity="1" d="M11 -11L11 186L-11 186L-11 -11L11 -11Z " /><path  id="路径 1" style="stroke:#000000; stroke-width:22; stroke-opacity:1; stroke-dasharray:0 0" transform="translate(154 44)  rotate(0 0.5 87.5)" d="" /><path id="路径 2"  style="fill:#000000" transform="translate(77 264)  rotate(0 77 0.5)" opacity="1" d="M165 -11.0001L154 -11L0 -11L0 0.000999284L-7.14286e-05 -10.999L-11.0001 -10.9989L-10.9999 11.0011L7.14286e-05 11.001L7.14221e-05 11L154 11L165 10.9999L165 -11.0001Z " /><path  id="路径 2" style="stroke:#000000; stroke-width:22; stroke-opacity:1; stroke-dasharray:0 0" transform="translate(77 264)  rotate(0 77 0.5)" d="" /></g></g></svg>