<svg xmlns="http://www.w3.org/2000/svg" xmlns:xlink="http://www.w3.org/1999/xlink" width="308" height="308" viewBox="0 0 308 308" fill="none"><defs><rect id="path_0" x="0" y="0" width="308" height="308" /></defs><g opacity="1" transform="translate(0 0)  rotate(0 154 154)"><mask id="bg-mask-0" fill="white"><use xlink:href="#path_0"></use></mask><g mask="url(#bg-mask-0)" ><path id="路径 2"  style="fill:#000000" transform="translate(124.5170552801319 128.18657189593068)  rotate(0 65.08586335793349 71.07941036365037)" opacity="1" d="" /><path  id="路径 2" style="stroke:#000000; stroke-width:22; stroke-opacity:1; stroke-dasharray:0 0" transform="translate(124.5170552801319 128.18657189593068)  rotate(0 65.08586335793349 71.07941036365037)" d="" /><path id="路径 3"  style="fill:#000000" transform="translate(35.85464008183271 124.48749164223045)  rotate(0 77.82027871980135 73.88536871574138)" opacity="1" d="" /><path  id="路径 3" style="stroke:#000000; stroke-width:22; stroke-opacity:1; stroke-dasharray:0 0" transform="translate(35.85464008183271 124.48749164223045)  rotate(0 77.82027871980135 73.88536871574138)" d="" /><path  id="路径 5" style="stroke:#000000; stroke-width:22; stroke-opacity:1; stroke-dasharray:0 0" transform="translate(35.75785395663388 35.74177092628088)  rotate(0 118.24214604336636 78.74046040747325)" d="M141.19,91.84C146.9,101.7 147.91,114.15 147.91,119.11C147.91,124.07 145.38,131.43 140.71,137.5C139.96,138.47 137.66,139.81 137.66,142.73C137.66,145.14 139.23,147.46 142.02,149.41C155.3,158.65 180.34,157.43 180.41,157.43C190.25,157.4 199.91,154.74 208.37,149.71C225.74,139.57 236.44,120.98 236.48,100.87C236.72,80.17 229.09,66.41 226,60.31C206.43,22.02 164.18,0 118.23,0C53.63,-0.01 1,51.83 0,116.41C0.55,82.73 34.06,55.56 73.9,55.56C77.13,55.56 95.57,55.88 112.69,64.86C127.79,72.79 135.69,82.36 141.19,91.84Z M0,116.41C0,116.46 0,116.52 0,116.57C0,116.52 0,116.46 0,116.41Z " /></g></g></svg>