<svg xmlns="http://www.w3.org/2000/svg" xmlns:xlink="http://www.w3.org/1999/xlink" width="308" height="308" viewBox="0 0 308 308" fill="none"><defs><rect id="path_0" x="0" y="0" width="308" height="308" /></defs><g opacity="1" transform="translate(0 0)  rotate(0 154 154)"><mask id="bg-mask-0" fill="white"><use xlink:href="#path_0"></use></mask><g mask="url(#bg-mask-0)" ><path  id="并集" style="stroke:#000000; stroke-width:22; stroke-opacity:1; stroke-dasharray:0 0" transform="translate(176.8196902489508 40)  rotate(0 49.590154875524604 114)" d="M48.63,0C20.18,0 0,13 0,44L0,109L0,184C0,215 20.18,228 48.63,228L50.96,228C85.26,228 99.18,212 99.18,184L99.18,109L99.18,44C99.18,16 85.26,0 50.96,0L48.63,0Z " /><path  id="并集" style="stroke:#000000; stroke-width:22; stroke-opacity:1; stroke-dasharray:0 0" transform="translate(35 40)  rotate(0 120.5 114)" d="M241,184L241,109L241,44C241,16 227.08,0 192.78,0L48.63,0C20.18,0 0,13 0,44L0,109L0,184C0,215 20.18,228 48.63,228L192.78,228C227.08,228 241,212 241,184Z " /><path  id="并集" style="stroke:#000000; stroke-width:22; stroke-opacity:1; stroke-dasharray:0 0" transform="translate(84.10862135132538 105.29420103774555)  rotate(0 23.94568932433714 48.705798962254605)" d="M0,97.41L46.05,52.99C48.63,50.57 48.38,46.6 46.05,44.28L0,0 " /></g></g></svg>