<svg xmlns="http://www.w3.org/2000/svg" xmlns:xlink="http://www.w3.org/1999/xlink" width="308" height="308" viewBox="0 0 308 308" fill="none"><defs><rect id="path_0" x="0" y="0" width="308" height="308" /></defs><g opacity="1" transform="translate(0 0)  rotate(0 154 154)"><mask id="bg-mask-0" fill="white"><use xlink:href="#path_0"></use></mask><g mask="url(#bg-mask-0)" ><path id="并集" fill-rule="evenodd" style="fill:#000000" transform="translate(120.19 17.5)  rotate(-90 34.5 70)" opacity="1" d="M-15.5543 0.254973L-7.64971 7.90455L-7.64964 7.90462L56.5151 69.9992L-7.64971 132.095L-15.5543 139.745L-0.254982 155.554L7.64964 147.905L-0.832344 139.14L7.64971 147.905L74.3397 83.3645Q77.1578 80.7313 78.6633 77.0133Q80.0742 73.5291 79.9978 69.7337Q79.925 66.1165 78.5108 62.7682Q77.0687 59.3534 74.4548 56.7485L7.64971 -7.90455L0 0L7.64964 -7.90462L-0.254973 -15.5543L-15.5543 0.254973ZM58.9783 67.6155L59.0403 67.5555Q59.009 67.5846 58.9783 67.6155Z " /><path  id="并集" style="stroke:#000000; stroke-width:22; stroke-opacity:1; stroke-dasharray:0 0" transform="translate(120.19 17.5)  rotate(-90 34.5 70)" d="" /><path id="路径 1"  style="fill:#000000" transform="translate(154 57.2)  rotate(0 0.5 89.49999999999999)" opacity="1" d="M-11 -11L-11 190L11 190L11 -11L-11 -11Z " /><path  id="路径 1" style="stroke:#000000; stroke-width:22; stroke-opacity:1; stroke-dasharray:0 0" transform="translate(154 57.2)  rotate(0 0.5 89.49999999999999)" d="" /><path id="路径 2"  style="fill:#000000" transform="translate(77 264)  rotate(0 77 0.5)" opacity="1" d="M165 -11.0001L154 -11L0 -11L0 0.000999284L-7.14286e-05 -10.999L-11.0001 -10.9989L-10.9999 11.0011L7.14286e-05 11.001L7.14221e-05 11L154 11L165 10.9999L165 -11.0001Z " /><path  id="路径 2" style="stroke:#000000; stroke-width:22; stroke-opacity:1; stroke-dasharray:0 0" transform="translate(77 264)  rotate(0 77 0.5)" d="" /></g></g></svg>