<svg xmlns="http://www.w3.org/2000/svg" xmlns:xlink="http://www.w3.org/1999/xlink" width="308" height="308" viewBox="0 0 308 308" fill="none"><defs><rect id="path_0" x="0" y="0" width="308" height="308" /></defs><g opacity="1" transform="translate(0 0)  rotate(0 154 154)"><mask id="bg-mask-0" fill="white"><use xlink:href="#path_0"></use></mask><g mask="url(#bg-mask-0)" ><path  id="路径 1" style="stroke:#000000; stroke-width:22; stroke-opacity:1; stroke-dasharray:0 0" transform="translate(247 162)  rotate(0 20 41.5)" d="M40,19.76C40,6.32 30.1,0 19.41,0C8.71,0 0,8.3 0,19.76L0,24.11L0,66.4C0,73.12 3.17,83 19.41,83C35.64,83 40,73.12 40,66.4L40,63.63L40,19.76Z " /><path  id="路径 1" style="stroke:#000000; stroke-width:22; stroke-opacity:1; stroke-dasharray:0 0" transform="translate(-26 115.5)  rotate(90 89 38.5)" d="M176.12,55.48L140.36,0L41.07,0.32L2.03,54.21C-4.12,65.43 4.53,77 16.89,77C16.89,77 164.8,77 164.8,77C174.18,77 181.63,65.01 176.12,55.48Z " /><path id="路径 1"  style="fill:#000000" transform="translate(79 87.5)  rotate(90 89 66.5)" opacity="1" d="M81.7859 5.93108L87.717 -3.33294L69.1889 -15.1951L63.2578 -5.93109L81.7859 5.93108ZM50.3388 55.0491L81.7841 5.93089L63.2558 -5.93089L31.8105 43.1873L-7.44054 104.502L-7.6239 104.837Q-9.46705 108.212 -10.3126 111.81Q-11.1542 115.393 -10.9659 119.009Q-10.7822 122.536 -9.63091 125.881Q-8.5184 129.113 -6.57298 131.969Q-4.68064 134.748 -2.11982 136.995Q0.412866 139.217 3.4432 140.781Q6.49221 142.355 9.8675 143.171Q13.3003 144 16.89 144L164.8 144Q168.237 144 171.548 142.944Q174.619 141.964 177.372 140.142Q179.95 138.436 182.08 136.103Q184.145 133.841 185.65 131.142Q187.17 128.418 188.016 125.432Q188.9 122.314 188.99 119.116Q189.087 115.721 188.284 112.447Q187.44 109.006 185.653 105.901L173.515 84.9798L154.485 96.0202L166.587 116.879Q167.024 117.637 166.999 118.492Q166.972 119.467 166.437 120.425Q166.176 120.893 165.833 121.269Q165.538 121.592 165.23 121.796Q165.023 121.933 164.863 121.984Q164.813 122 164.8 122L16.89 122Q15.0217 122 13.5346 121.232Q12.2969 120.593 11.6105 119.586Q11.0512 118.764 11.0043 117.865Q10.9513 116.847 11.5456 115.648L50.3388 55.0491ZM148.961 86.5054L154.483 96.0191L173.51 84.9757L167.989 75.462L148.961 86.5054Z " /><path  id="路径 1" style="stroke:#000000; stroke-width:22; stroke-opacity:1; stroke-dasharray:0 0" transform="translate(79 87.5)  rotate(90 89 66.5)" d="" /><path id="路径 1"  style="fill:#000000" transform="translate(173 162)  rotate(0 24.41444444444438 40.749999999999936)" opacity="1" d="M48.8289 92.5L59.8289 92.5L59.8289 70.5L11 70.5L11 70.3531Q11.057 70.2813 11.1465 70.1845Q11.462 69.8438 11.9845 69.4366Q13.3028 68.4095 15.7464 67.1376Q16.8968 66.5387 18.4764 65.793Q19.481 65.3187 21.6068 64.3467Q24.189 63.1661 25.5116 62.5367Q27.8269 61.4347 29.6553 60.4567Q34.6841 57.7667 38.1632 54.8479Q42.9722 50.8134 45.5955 45.7986Q48.67 39.9214 48.67 32.96L48.67 21.73Q48.67 14.2816 46.4394 8.15484Q44.1642 1.90552 39.7518 -2.56548Q37.6131 -4.73259 35.054 -6.38158Q32.5983 -7.96393 29.8312 -9.02024Q24.6451 -11 18.84 -11Q15.9037 -11 13.0809 -10.4269Q10.2112 -9.84436 7.55469 -8.68936Q4.86593 -7.52035 2.48999 -5.80619Q0.103678 -4.08455 -1.88414 -1.87261Q-5.85068 2.54118 -7.90578 8.47314Q-9.91 14.2582 -9.91 21.01L-9.91 24.99L12.09 24.99L12.09 21.01Q12.09 17.9612 12.882 15.675Q13.4826 13.9415 14.4791 12.8326Q16.126 11 18.84 11Q20.5887 11 21.9851 11.5331Q23.2221 12.0053 24.0932 12.888Q25.1338 13.9424 25.7668 15.6811Q26.67 18.1618 26.67 21.73L26.67 32.96Q26.67 34.5146 26.1017 35.6009Q25.4966 36.7577 24.0233 37.9938Q22.2936 39.4449 19.2786 41.0577Q17.9059 41.7919 16.0573 42.6717Q14.8874 43.2285 12.459 44.3388Q10.2108 45.3667 9.08391 45.8987Q7.11767 46.827 5.58844 47.6231Q1.36475 49.8216 -1.53664 52.0821Q-5.72842 55.348 -8.07421 59.3683Q-9.50385 61.8184 -10.2404 64.5181Q-11 67.3024 -11 70.27L-11 92.5L48.8289 92.5ZM-9.91333 24.9933L-9.91333 35.9933L12.0867 35.9933L12.0867 24.9933L-9.91333 24.9933Z " /><path  id="路径 1" style="stroke:#000000; stroke-width:22; stroke-opacity:1; stroke-dasharray:0 0" transform="translate(173 162)  rotate(0 24.41444444444438 40.749999999999936)" d="" /></g></g></svg>