<svg xmlns="http://www.w3.org/2000/svg" xmlns:xlink="http://www.w3.org/1999/xlink" width="308" height="308" viewBox="0 0 308 308" fill="none"><defs><rect id="path_0" x="0" y="0" width="308" height="308" /></defs><g opacity="1" transform="translate(0 0)  rotate(0 154 154)"><mask id="bg-mask-0" fill="white"><use xlink:href="#path_0"></use></mask><g mask="url(#bg-mask-0)" ><path  id="路径 1" style="stroke:#000000; stroke-width:22; stroke-opacity:1; stroke-dasharray:0 0" transform="translate(236 162)  rotate(0 20 41.5)" d="M40,19.76C40,6.32 30.1,0 19.41,0C8.71,0 0,8.3 0,19.76L0,24.11L0,66.4C0,73.12 3.17,83 19.41,83C35.64,83 40,73.12 40,66.4L40,63.63L40,19.76Z " /><path  id="路径 1" style="stroke:#000000; stroke-width:22; stroke-opacity:1; stroke-dasharray:0 0" transform="translate(-26 115.5)  rotate(90 89 38.5)" d="M176.12,55.48L140.36,0L41.07,0.32L2.03,54.21C-4.12,65.43 4.53,77 16.89,77C16.89,77 164.8,77 164.8,77C174.18,77 181.63,65.01 176.12,55.48Z " /><path id="路径 1"  style="fill:#000000" transform="translate(79 87.5)  rotate(90 88.99999999999997 66.5)" opacity="1" d="M81.7859 5.93108L87.717 -3.33294L69.1889 -15.1951L63.2578 -5.93109L81.7859 5.93108ZM50.3388 55.0491L81.7841 5.93089L63.2558 -5.93089L31.8105 43.1873L-7.44054 104.502L-7.6239 104.837Q-9.46705 108.212 -10.3126 111.81Q-11.1542 115.393 -10.9659 119.009Q-10.7822 122.536 -9.63091 125.881Q-8.5184 129.113 -6.57298 131.969Q-4.68064 134.748 -2.11982 136.995Q0.412866 139.217 3.4432 140.781Q6.49221 142.355 9.8675 143.171Q13.3003 144 16.89 144L164.8 144Q168.237 144 171.548 142.944Q174.619 141.964 177.372 140.142Q179.95 138.436 182.08 136.103Q184.145 133.841 185.65 131.142Q187.17 128.418 188.016 125.432Q188.9 122.314 188.99 119.116Q189.087 115.721 188.284 112.447Q187.44 109.006 185.653 105.901L185.381 105.429L162.943 74.0957L145.057 86.9043L166.747 117.195Q167.019 117.813 166.999 118.492Q166.972 119.467 166.437 120.425Q166.176 120.893 165.833 121.269Q165.538 121.592 165.23 121.796Q165.023 121.933 164.863 121.984Q164.813 122 164.8 122L16.89 122Q15.0217 122 13.5346 121.232Q12.2969 120.593 11.6105 119.586Q11.0512 118.764 11.0043 117.865Q10.9513 116.847 11.5456 115.648L50.3388 55.0491ZM138.649 77.9598L145.054 86.9026L162.94 74.0923L156.534 65.1495L138.649 77.9598Z " /><path  id="路径 1" style="stroke:#000000; stroke-width:22; stroke-opacity:1; stroke-dasharray:0 0" transform="translate(79 87.5)  rotate(90 88.99999999999997 66.5)" d="" /><path id="路径 1"  style="fill:#000000" transform="translate(165 162)  rotate(0 14.000000000000002 46.99999999999999)" opacity="1" d="M17 26.7322L17 94L16.9997 94L16.9997 105L38.9997 105L38.9997 94L17 94L39 94L39 -11L19.3889 -11L16.9379 -3.51979Q16.9035 -3.42701 16.8499 -3.29471Q16.5962 -2.66808 16.231 -1.94909Q14.996 0.481901 13.2505 2.49148Q10.9566 5.13233 8.11599 6.58863Q4.56334 8.41 0 8.41L0 8.41304L-11 8.41304L-11 30.413L0 30.413L0 30.41Q5.09104 30.41 9.80284 29.2648Q13.5538 28.3531 17 26.7322Z " /><path  id="路径 1" style="stroke:#000000; stroke-width:22; stroke-opacity:1; stroke-dasharray:0 0" transform="translate(165 162)  rotate(0 14.000000000000002 46.99999999999999)" d="" /></g></g></svg>