<svg xmlns="http://www.w3.org/2000/svg" xmlns:xlink="http://www.w3.org/1999/xlink" width="308" height="308" viewBox="0 0 308 308" fill="none"><defs><rect id="path_0" x="0" y="0" width="308" height="308" /></defs><g opacity="1" transform="translate(0 0)  rotate(0 154 154)"><mask id="bg-mask-0" fill="white"><use xlink:href="#path_0"></use></mask><g mask="url(#bg-mask-0)" ><path  id="拼合图形" style="stroke:#000000; stroke-width:22; stroke-opacity:1; stroke-dasharray:0 0" transform="translate(49 45)  rotate(0 105.05264360083531 106.74591878051076)" d="M176.24,193.07L169.96,146.78C169.22,141.28 170.92,135.74 174.57,131.77L205.33,98.23C209.69,93.47 211.21,86.55 209.28,80.25C207.34,73.93 202.27,69.28 196.1,68.15L152.62,60.17C147.46,59.23 143.02,55.8 140.57,50.91L119.97,9.53C117.05,3.67 111.31,0 105.05,0C98.79,0 93.06,3.67 90.13,9.53L69.53,50.91C67.09,55.8 62.64,59.23 57.49,60.17L14,68.15C7.83,69.28 2.76,73.93 0.82,80.25C-1.11,86.55 0.41,93.47 4.78,98.23L35.54,131.77C39.18,135.74 40.88,141.28 40.14,146.78L33.86,193.07C32.97,199.63 35.58,206.17 40.64,210.08C45.71,213.97 52.39,214.59 58,211.66L97.61,191.02C102.31,188.58 107.8,188.58 112.49,191.02L152.1,211.66C157.72,214.59 164.4,213.97 169.47,210.08C174.53,206.17 177.13,199.63 176.24,193.07Z " /></g></g></svg>