<svg xmlns="http://www.w3.org/2000/svg" xmlns:xlink="http://www.w3.org/1999/xlink" width="308" height="308" viewBox="0 0 308 308" fill="none"><defs><rect id="path_0" x="0" y="0" width="308" height="308" /></defs><g opacity="1" transform="translate(0 0)  rotate(0 154 154)"><mask id="bg-mask-0" fill="white"><use xlink:href="#path_0"></use></mask><g mask="url(#bg-mask-0)" ><path id="路径 1" fill-rule="evenodd" style="fill:#000000" transform="translate(38 51.99999999999997)  rotate(0 79.5 98.70805369127517)" opacity="1" d="M117.64,119.98L94.9,12.6C91.2,-4.2 70.86,-4.2 67.48,12.6L43.4,119.98L117.64,119.98Z M134.64 208.42L103.78 208.42L103.78 186.42L134.64 186.42L134.64 208.42Z M16.472 195.173L32.632 117.733L54.168 122.227L38.008 199.667L16.472 195.173Z M123.896 199.779L106.896 122.339L128.384 117.621L145.384 195.061L123.896 199.779Z M27.24 208.42L0 208.42L0 186.42L27.24 186.42L27.24 208.42Z M134.64 186.42L159 186.42L159 208.42L134.64 208.42L134.64 186.42Z M27.24 186.42L60.3 186.42L60.3 208.42L27.24 208.42L27.24 186.42Z " /><path  id="路径 1" style="stroke:#000000; stroke-width:22; stroke-opacity:1; stroke-dasharray:0 0" transform="translate(38 51.99999999999997)  rotate(0 79.5 98.70805369127517)" d="" /><path id="路径 1" fill-rule="evenodd" style="fill:#000000" transform="translate(172 132.4161073825503)  rotate(0 49.49999999999999 58.50000000000001)" opacity="1" d="M39.89,7.46L25.66,71.1L71.55,71.1L58.1,7.46C55.91,-2.49 41.89,-2.49 39.89,7.46Z M81.6 106L99 106L99 128L81.6 128L81.6 106Z M70.8546 119.353L60.8046 73.4528L82.2954 68.7472L92.3454 114.647L70.8546 119.353Z M5.3311 114.757L14.8911 68.8571L36.4289 73.3429L26.8689 119.243L5.3311 114.757Z M81.6 128L60.36 128L60.36 106L81.6 106L81.6 128Z M16.1 106L39.89 106L39.89 128L16.1 128L16.1 106Z M16.1 128L0 128L0 106L16.1 106L16.1 128Z " /><path  id="路径 1" style="stroke:#000000; stroke-width:22; stroke-opacity:1; stroke-dasharray:0 0" transform="translate(172 132.4161073825503)  rotate(0 49.49999999999999 58.50000000000001)" d="" /></g></g></svg>