<svg xmlns="http://www.w3.org/2000/svg" xmlns:xlink="http://www.w3.org/1999/xlink" width="308" height="308" viewBox="0 0 308 308" fill="none"><defs><rect id="path_0" x="0" y="0" width="308" height="308" /></defs><g opacity="1" transform="translate(0 0)  rotate(0 154 154)"><mask id="bg-mask-0" fill="white"><use xlink:href="#path_0"></use></mask><g mask="url(#bg-mask-0)" ><path  id="路径 1" style="stroke:#000000; stroke-width:22; stroke-opacity:1; stroke-dasharray:0 0" transform="translate(49.5 36)  rotate(0 104.5 116.49999999999999)" d="M0,29.09L0,84C0,143 15.17,209.55 104.5,233C193.95,209.89 209,142 209,84L209,29.09L104.5,0L0,29.09Z " /><path id="路径 1"  style="fill:#000000" transform="translate(115 113)  rotate(0 39.268641350719705 39.43057389237215)" opacity="1" d="M78.5053 -15.5563L70.7431 -7.76215L70.7445 -7.76079L-7.79397 71.0977L7.79397 86.6223L86.334 7.76235L86.3326 7.76099L94.0936 -0.0320091L78.5053 -15.5563ZM-15.5563 78.8932L0.0320091 94.4175L7.79416 86.6233L-7.79416 71.099L-15.5563 78.8932Z " /><path  id="路径 1" style="stroke:#000000; stroke-width:22; stroke-opacity:1; stroke-dasharray:0 0" transform="translate(115 113)  rotate(0 39.268641350719705 39.43057389237215)" d="" /><path id="路径 1"  style="fill:#000000" transform="translate(115.08856116735384 113.08088297228184)  rotate(0 39.1800801833658 39.34969092009028)" opacity="1" d="M-15.5563 -0.0335989L-7.79499 7.76132L-7.79496 7.76136L70.565 86.4613L70.5654 86.4609L78.3266 94.2557L93.9165 78.733L86.1551 70.938L86.1547 70.9384L7.79499 -7.76132L0 0L7.79496 -7.76136L0.0335989 -15.5563L-15.5563 -0.0335989Z " /><path  id="路径 1" style="stroke:#000000; stroke-width:22; stroke-opacity:1; stroke-dasharray:0 0" transform="translate(115.08856116735384 113.08088297228184)  rotate(0 39.1800801833658 39.34969092009028)" d="" /></g></g></svg>