<svg xmlns="http://www.w3.org/2000/svg" xmlns:xlink="http://www.w3.org/1999/xlink" width="308" height="308" viewBox="0 0 308 308" fill="none"><defs><rect id="path_0" x="0" y="0" width="308" height="308" /></defs><g opacity="1" transform="translate(0 0)  rotate(0 154 154)"><mask id="bg-mask-0" fill="white"><use xlink:href="#path_0"></use></mask><g mask="url(#bg-mask-0)" ><path id="路径 1"  style="fill:#000000" transform="translate(48 35.5)  rotate(0 63 118.50000000000001)" opacity="1" d="M11 0L11 118.5L-11 118.5L-11 0L11 0Z M-11 237L-11 118.5L11 118.5L11 237L-11 237Z M0 107.5L126 107.5L126 129.5L0 129.5L0 107.5Z M115 118.5L115 0L137 0L137 118.5L115 118.5Z M137 118.5L137 237L115 237L115 118.5L137 118.5Z " /><path  id="路径 1" style="stroke:#000000; stroke-width:22; stroke-opacity:1; stroke-dasharray:0 0" transform="translate(48 35.5)  rotate(0 63 118.50000000000001)" d="" /><path id="路径 1"  style="fill:#000000" transform="translate(209 147)  rotate(0 25.25000000000001 57.5)" opacity="1" d="M-11 30.5L-11 25Q-11 21.2531 -10.2969 17.6539Q-9.60307 14.1016 -8.24504 10.7962Q-6.90472 7.53397 -4.96121 4.61763Q-3.0378 1.73145 -0.590674 -0.715674Q1.84397 -3.15032 4.70898 -5.06248Q7.5782 -6.97743 10.7747 -8.29865Q13.9955 -9.62992 17.4344 -10.3109Q20.9138 -11 24.5 -11Q31.4481 -11 37.7124 -8.92784Q41.0143 -7.83562 43.972 -6.20421Q47.0827 -4.48838 49.7212 -2.22682Q52.4851 0.142202 54.6473 3.03824Q56.8791 6.02739 58.4033 9.48923Q61.5 16.5224 61.5 25L61.5 31Q61.5 54.1744 46.9154 64.1921Q40.6552 68.4921 31.6864 70.2099Q28.0116 70.9137 23.6892 71.2287Q19.9667 71.5 15.5 71.5L15.5 49.5Q22.8626 49.5 27.548 48.6026Q31.9946 47.751 34.4596 46.0579Q35.5266 45.3249 36.3048 44.3703Q37.1693 43.3097 37.7962 41.8401Q39.5 37.8461 39.5 31L39.5 25Q39.5 17.9879 35.4038 14.4768Q33.5117 12.855 30.8032 11.9591Q27.9038 11 24.5 11Q21.6777 11 19.1784 12.033Q16.7834 13.023 14.9657 14.8407Q13.119 16.6873 12.1044 19.1569Q11 21.845 11 25L11 30.5L-11 30.5Z M15.5 49.5Q16.3833 49.5 17.6761 49.5792Q20.0337 49.7235 22.5244 50.0793Q25.9939 50.575 29.3137 51.4286Q33.5493 52.5178 37.3331 54.1394Q41.9807 56.1312 45.8194 58.8731Q50.4055 62.1489 53.7141 66.4029Q57.4686 71.2301 59.4316 77.1191Q61.5 83.3243 61.5 90.5L61.5 94Q61.5 96.5667 61.0772 99.1318Q60.6205 101.902 59.6926 104.53Q58.6758 107.409 57.1324 110.004Q55.451 112.83 53.2012 115.223Q48.2934 120.442 41.1534 123.183Q33.8165 126 24.5 126Q15.1113 126 7.93392 123.126Q4.34352 121.688 1.34832 119.55Q-1.54516 117.484 -3.81575 114.815Q-7.79701 110.136 -9.60882 103.967Q-11 99.231 -11 94L-11 87L11 87L11 94Q11 96.0668 11.4994 97.7671Q11.9922 99.4448 12.9407 100.56Q14.0664 101.883 16.113 102.703Q19.3528 104 24.5 104Q29.7386 104 33.2685 102.645Q35.7121 101.707 37.1738 100.152Q38.3481 98.9034 38.9481 97.2044Q39.5 95.6414 39.5 94L39.5 90.5Q39.5 86.8944 38.5606 84.0762Q37.7892 81.7621 36.3484 79.9096Q33.7153 76.5242 28.6669 74.3606Q26.4351 73.4041 23.8348 72.7355Q21.6858 72.1829 19.4131 71.8582Q17.8022 71.6281 16.3317 71.538Q15.9126 71.5124 15.5789 71.5028Q15.4995 71.5006 15.4483 71.4999Q15.4583 71.5 15.5 71.5L15.5 49.5Z M15.5 71.5L10.5 71.5L10.5 49.5L15.5 49.5L15.5 71.5Z " /><path  id="路径 1" style="stroke:#000000; stroke-width:22; stroke-opacity:1; stroke-dasharray:0 0" transform="translate(209 147)  rotate(0 25.25000000000001 57.5)" d="" /></g></g></svg>