<svg xmlns="http://www.w3.org/2000/svg" xmlns:xlink="http://www.w3.org/1999/xlink" width="308" height="308" viewBox="0 0 308 308" fill="none"><defs><rect id="path_0" x="0" y="0" width="308" height="308" /></defs><g opacity="1" transform="translate(0 0)  rotate(0 154 154)"><mask id="bg-mask-0" fill="white"><use xlink:href="#path_0"></use></mask><g mask="url(#bg-mask-0)" ><path id="路径 1"  style="fill:#000000" transform="translate(48 35.5)  rotate(0 59.5 118.50000000000001)" opacity="1" d="M11 0L11 118.5L-11 118.5L-11 0L11 0Z M-11 237L-11 118.5L11 118.5L11 237L-11 237Z M0 107.5L119 107.5L119 129.5L0 129.5L0 107.5Z M108 118.5L108 0L130 0L130 118.5L108 118.5Z M130 118.5L130 237L108 237L108 118.5L130 118.5Z " /><path  id="路径 1" style="stroke:#000000; stroke-width:22; stroke-opacity:1; stroke-dasharray:0 0" transform="translate(48 35.5)  rotate(0 59.5 118.50000000000001)" d="" /><path id="路径 1" fill-rule="evenodd" style="fill:#000000" transform="translate(200.5 154)  rotate(0 37.75 59.999999999999986)" opacity="1" d="M0,78L49.5,78L49.5,0L38,0C38,0 31.5,39 0,69L0,78Z M38.5 120L38.5 78L60.5 78L60.5 120L38.5 120Z M49.5 67L75.5 67L75.5 89L49.5 89L49.5 67Z " /><path  id="路径 1" style="stroke:#000000; stroke-width:22; stroke-opacity:1; stroke-dasharray:0 0" transform="translate(200.5 154)  rotate(0 37.75 59.999999999999986)" d="" /></g></g></svg>