<svg xmlns="http://www.w3.org/2000/svg" xmlns:xlink="http://www.w3.org/1999/xlink" width="308" height="308" viewBox="0 0 308 308" fill="none"><defs><rect id="path_0" x="0" y="0" width="308" height="308" /></defs><g opacity="1" transform="translate(0 0)  rotate(0 154 154)"><mask id="bg-mask-0" fill="white"><use xlink:href="#path_0"></use></mask><g mask="url(#bg-mask-0)" ><path id="并集" fill-rule="evenodd" style="fill:#000000" transform="translate(127 112)  rotate(-180 21.5 43.5)" opacity="1" d="M50.6389 7.91502L58.5539 0.276953L43.2769 -15.5539L35.3615 -7.91542L42.9631 -0.0382593L35.3611 -7.91502L-6.19887 32.195Q-8.57069 34.3999 -9.85744 37.5634Q-11.063 40.5272 -10.9977 43.7491Q-10.9359 46.802 -9.73966 49.6242Q-8.5224 52.496 -6.31671 54.6896L35.3611 94.915L42.9815 87.0191L35.3615 94.9154L43.2769 102.554L58.5539 86.723L50.6389 79.085L50.6385 79.0846L13.7667 43.5008L50.6385 7.91542L50.6389 7.91502ZM9.21799 47.8908L9.07887 48.025Q9.14952 47.9595 9.21799 47.8908Z " /><path  id="并集" style="stroke:#000000; stroke-width:22; stroke-opacity:1; stroke-dasharray:0 0" transform="translate(127 112)  rotate(-180 21.5 43.5)" d="" /><path id="并集" fill-rule="evenodd" style="fill:#000000" transform="translate(142.04999999999927 76.64999999999998)  rotate(-180 34.15357615144767 78.85446789190703)" opacity="1" d="M75.9079 7.95166L83.8595 0.353291L68.6604 -15.5523L60.7076 -7.95281L60.709 -7.95139L1.37075 48.7469Q-2.09935 52.2055 -4.56579 56.1303Q-6.91877 59.8746 -8.43655 64.0716Q-9.88121 68.0664 -10.5174 72.3266Q-11.1278 76.4145 -10.9696 80.5801Q-10.8151 84.6451 -9.93631 88.5974Q-9.05877 92.5439 -7.5029 96.1818Q-5.9073 99.9126 -3.67945 103.129Q-1.38416 106.442 1.47008 109.048L60.7084 165.661L60.7076 165.662L68.6604 173.261L83.8595 157.356L75.9091 149.758L75.91 149.758L16.4588 92.9413L16.3446 92.8382Q15.3028 91.8968 14.4056 90.6016Q13.4451 89.215 12.7248 87.5307Q11.9729 85.7728 11.5392 83.8221Q11.0933 81.8168 11.0146 79.7449Q10.8506 75.4291 12.2522 71.5534Q13.7172 67.5023 16.5693 64.6531L75.9092 7.95308L75.9079 7.95166Z " /><path  id="并集" style="stroke:#000000; stroke-width:22; stroke-opacity:1; stroke-dasharray:0 0" transform="translate(142.04999999999927 76.64999999999998)  rotate(-180 34.15357615144767 78.85446789190703)" d="" /><path id="路径 2"  style="fill:#000000" transform="translate(252 44)  rotate(0 0.0005 110)" opacity="1" d="M11.001 5e-05L11.001 -11L-10.999 -11L-10.999 -5e-05L0.000994002 0L-11 0L-11 220L-11 231L11 231L11 220L11 4.99955e-05L11.001 5e-05Z " /><path  id="路径 2" style="stroke:#000000; stroke-width:22; stroke-opacity:1; stroke-dasharray:0 0" transform="translate(252 44)  rotate(0 0.0005 110)" d="" /><path id="路径 1"  style="fill:#000000" transform="translate(100.25 91.25)  rotate(90 0.5 63.25)" opacity="1" d="M11 -11L11 137.5L-11 137.5L-11 -11L11 -11Z " /><path  id="路径 1" style="stroke:#000000; stroke-width:22; stroke-opacity:1; stroke-dasharray:0 0" transform="translate(100.25 91.25)  rotate(90 0.5 63.25)" d="" /></g></g></svg>