<svg xmlns="http://www.w3.org/2000/svg" xmlns:xlink="http://www.w3.org/1999/xlink" width="308" height="308" viewBox="0 0 308 308" fill="none"><defs><rect id="path_0" x="0" y="0" width="308" height="308" /></defs><g opacity="1" transform="translate(0 0)  rotate(0 154 154)"><mask id="bg-mask-0" fill="white"><use xlink:href="#path_0"></use></mask><g mask="url(#bg-mask-0)" ><path id="拼合图形" fill-rule="evenodd" style="fill:#000000" transform="translate(42 38)  rotate(0 109.24999944388108 113.00017616060686)" opacity="1" d="M178.62,28.08L135.58,76.41L175.5,113L218.5,64L178.62,28.08Z M67.71,224.18C86.51,219.19 101.19,204.51 106.18,185.7C111.18,166.9 105.71,146.87 91.87,133.21L91.86,133.22C70.59,112.67 36.78,112.97 15.88,133.88C-5.03,154.79 -5.33,188.59 15.22,209.86C28.88,223.71 48.91,229.18 67.71,224.18Z M211.306 7.21167L186.926 35.2917L170.314 20.8683L194.694 -7.21167L211.306 7.21167Z M79.8084 122.159L127.388 69.0685L143.772 83.7515L96.1916 136.841L79.8084 122.159Z " /><path  id="拼合图形" style="stroke:#000000; stroke-width:22; stroke-opacity:1; stroke-dasharray:0 0" transform="translate(42 38)  rotate(0 109.24999944388108 113.00017616060686)" d="" /></g></g></svg>