<svg xmlns="http://www.w3.org/2000/svg" xmlns:xlink="http://www.w3.org/1999/xlink" width="308" height="308" viewBox="0 0 308 308" fill="none"><defs><rect id="path_0" x="0" y="0" width="308" height="308" /></defs><g opacity="1" transform="translate(0 0)  rotate(0 154 154)"><mask id="bg-mask-0" fill="white"><use xlink:href="#path_0"></use></mask><g mask="url(#bg-mask-0)" ><path id="并集" fill-rule="evenodd" style="fill:#000000" transform="translate(47.1200000000008 162.93157287525378)  rotate(135 50.95956338708672 46.82842712474621)" opacity="1" d="M101.92,46.83Z M-11 11L0 11L0 -11L-11 -11L-11 11ZM108.536 71.3092Q112.92 60.345 112.92 46.83L90.92 46.83Q90.92 56.1098 88.1085 63.1415Q85.5924 69.4343 80.8675 73.7369Q76.1792 78.0062 69.4055 80.2689Q62.2477 82.66 53.29 82.66L0 82.66L0 82.6569L-11 82.6569L-11 104.657L0 104.657L0 104.66L53.29 104.66Q65.8251 104.66 76.376 101.135Q81.855 99.3052 86.6452 96.5624Q91.5796 93.737 95.68 90.0031Q99.8696 86.188 103.092 81.5127Q106.342 76.7971 108.536 71.3092Z M88.1085 30.5185Q90.92 37.5502 90.92 46.83L112.92 46.83Q112.92 33.315 108.536 22.3509Q106.342 16.8629 103.092 12.1473Q99.8696 7.47201 95.68 3.65687Q91.5796 -0.076996 86.6452 -2.90243Q81.855 -5.6452 76.376 -7.47546Q65.8251 -11 53.29 -11L0 -11L-11 -11L-11 11L0 11L53.29 11Q62.2477 11 69.4055 13.3911Q76.1792 15.6538 80.8675 19.9231Q85.5924 24.2258 88.1085 30.5185ZM-11 82.6569L-11 104.657L0 104.657L0 82.6569L-11 82.6569Z " /><path  id="并集" style="stroke:#000000; stroke-width:22; stroke-opacity:1; stroke-dasharray:0 0" transform="translate(47.1200000000008 162.93157287525378)  rotate(135 50.95956338708672 46.82842712474621)" d="" /><path id="并集" fill-rule="evenodd" style="fill:#000000" transform="translate(158.54000000000087 50.99157287525384)  rotate(135 50.95956338708672 46.82842712474621)" opacity="1" d="M0,46.83Z M112.919 -11L101.919 -11L101.919 11L112.919 11L112.919 -11ZM13.8115 63.1415Q11 56.1098 11 46.83L-11 46.83Q-11 60.345 -6.61617 71.3092Q-4.42189 76.7971 -1.17183 81.5127Q2.05045 86.188 6.24003 90.0031Q10.3404 93.737 15.2748 96.5624Q20.065 99.3052 25.544 101.135Q36.0949 104.66 48.63 104.66L101.92 104.66L101.92 104.657L112.919 104.657L112.919 82.6569L101.919 82.6569L101.919 82.66L48.63 82.66Q39.6723 82.66 32.5145 80.2689Q25.7408 78.0062 21.0525 73.7369Q16.3275 69.4342 13.8115 63.1415Z M-6.61617 22.3509Q-11 33.315 -11 46.83L11 46.83Q11 37.5501 13.8115 30.5185Q16.3275 24.2258 21.0525 19.9231Q25.7408 15.6538 32.5145 13.3911Q39.6723 11 48.63 11L101.919 11L112.919 11L112.919 -11L101.919 -11L48.63 -11Q36.0949 -11 25.544 -7.47546Q20.065 -5.6452 15.2748 -2.90243Q10.3404 -0.0769985 6.24003 3.65687Q2.05045 7.47199 -1.17183 12.1473Q-4.4219 16.8629 -6.61617 22.3509ZM101.919 104.657L112.919 104.657L112.919 82.6569L101.919 82.6569L101.919 104.657Z " /><path  id="并集" style="stroke:#000000; stroke-width:22; stroke-opacity:1; stroke-dasharray:0 0" transform="translate(158.54000000000087 50.99157287525384)  rotate(135 50.95956338708672 46.82842712474621)" d="" /><path id="路径 1"  style="fill:#000000" transform="translate(153.28988778237 77.08703133016434)  rotate(45 0.5 77)" opacity="1" d="M11 -11L11 165L-11 165L-11 -11L11 -11Z " /><path  id="路径 1" style="stroke:#000000; stroke-width:22; stroke-opacity:1; stroke-dasharray:0 0" transform="translate(153.28988778237 77.08703133016434)  rotate(45 0.5 77)" d="" /></g></g></svg>