<svg xmlns="http://www.w3.org/2000/svg" xmlns:xlink="http://www.w3.org/1999/xlink" width="308" height="308" viewBox="0 0 308 308" fill="none"><defs><rect id="path_0" x="0" y="0" width="308" height="308" /></defs><g opacity="1" transform="translate(0 0)  rotate(0 154 154)"><mask id="bg-mask-0" fill="white"><use xlink:href="#path_0"></use></mask><g mask="url(#bg-mask-0)" ><path id="拼合图形" fill-rule="evenodd" style="fill:#000000" transform="translate(33 67)  rotate(0 121 87.49999999999999)" opacity="1" d="M0 -11L242 -11L242 11L0 11L0 -11Z M0 77.25L229 77.25L229 99.25L0 99.25L0 77.25Z M0 164L242 164L242 186L0 186L0 164Z " /><path  id="拼合图形" style="stroke:#000000; stroke-width:22; stroke-opacity:1; stroke-dasharray:0 0" transform="translate(33 67)  rotate(0 121 87.49999999999999)" d="" /><path id="并集" fill-rule="evenodd" style="fill:#000000" transform="translate(229 106.35)  rotate(0 22.5 47.64705882352941)" opacity="1" d="M0.0776391 -15.5562L7.8169 -7.73926L0 0L7.81722 -7.73893L51.3072 36.1911Q53.6457 38.4605 54.9033 41.6903Q56.0617 44.6653 55.9992 47.8885Q55.9398 50.9495 54.7859 53.7915Q53.5922 56.7316 51.4069 58.997L7.81722 103.029L-7.81722 87.5511L31.6897 47.6456L-7.8169 7.73926L-7.81722 7.73893L-15.5562 -0.0776391L0.0776391 -15.5562ZM35.6728 51.6689Q35.6052 51.6035 35.54 51.5348L35.6728 51.6689ZM0.0776367 110.85L7.81689 103.033L-7.8169 87.5549L-15.5562 95.3718L0.0776367 110.85Z " /><path  id="并集" style="stroke:#000000; stroke-width:22; stroke-opacity:1; stroke-dasharray:0 0" transform="translate(229 106.35)  rotate(0 22.5 47.64705882352941)" d="" /></g></g></svg>