<svg xmlns="http://www.w3.org/2000/svg" xmlns:xlink="http://www.w3.org/1999/xlink" width="308" height="308" viewBox="0 0 308 308" fill="none"><defs><rect id="path_0" x="0" y="0" width="308" height="308" /></defs><g opacity="1" transform="translate(0 0)  rotate(0 154 154)"><mask id="bg-mask-0" fill="white"><use xlink:href="#path_0"></use></mask><g mask="url(#bg-mask-0)" ><path id="并集"  style="fill:#000000" transform="translate(40 40)  rotate(0 76.21249999999998 114)" opacity="1" d="" /><path  id="并集" style="stroke:#000000; stroke-width:22; stroke-opacity:1; stroke-dasharray:0 0" transform="translate(40 40)  rotate(0 76.21249999999998 114)" d="" /><path id="圆形 2" fill-rule="evenodd" style="fill:#000000" transform="translate(152.81155681598284 166.9622569005105)  rotate(313.5713313303658 45.5 51)" opacity="1" d="M38.51,63.59C34.43,59.52 28.79,57 22.56,57C10.1,57 0,67.08 0,79.5C0,91.93 10.1,102 22.56,102C35.02,102 45.12,91.93 45.12,79.5C45.12,73.29 42.59,67.66 38.51,63.59Z M35.5927 74.0017L81.4727 -5.49826L100.527 5.49826L54.6473 84.9983L35.5927 74.0017Z " /><path  id="圆形 2" style="stroke:#000000; stroke-width:22; stroke-opacity:1; stroke-dasharray:0 0" transform="translate(152.81155681598284 166.9622569005105)  rotate(313.5713313303658 45.5 51)" d="" /><path id="圆形 2" fill-rule="evenodd" style="fill:#000000" transform="translate(173.81155681598284 142.9622569005105)  rotate(313.5713313303658 45.5 51.5)" opacity="1" d="M68.57,57.8C62.38,57.8 56.77,60.33 52.71,64.42C48.66,68.51 46.15,74.16 46.15,80.4C46.15,92.88 56.19,103 68.57,103C80.96,103 91,92.88 91,80.4C91,67.92 80.96,57.8 68.57,57.8Z M36.6099 85.876L-9.54007 5.47605L9.54007 -5.47605L55.6901 74.924L36.6099 85.876Z " /><path  id="圆形 2" style="stroke:#000000; stroke-width:22; stroke-opacity:1; stroke-dasharray:0 0" transform="translate(173.81155681598284 142.9622569005105)  rotate(313.5713313303658 45.5 51.5)" d="" /></g></g></svg>