<svg xmlns="http://www.w3.org/2000/svg" xmlns:xlink="http://www.w3.org/1999/xlink" width="308" height="308" viewBox="0 0 308 308" fill="none"><defs><rect id="path_0" x="0" y="0" width="308" height="308" /></defs><g opacity="1" transform="translate(0 0)  rotate(0 154 154)"><mask id="bg-mask-0" fill="white"><use xlink:href="#path_0"></use></mask><g mask="url(#bg-mask-0)" ><path  id="并集" style="stroke:#000000; stroke-width:22; stroke-opacity:1; stroke-dasharray:0 0" transform="translate(37.85 188)  rotate(0 116.14675830102223 33.90693671299104)" d="M177.35,42.67C176.57,42.52 175.81,42.38 175.07,42.26C157.9,39.28 151.27,5.66 134.27,0.73C124.95,-1.92 117.47,5.18 116.26,6.41C115.67,5.8 107.83,-2.19 98.1,0.59C81.11,5.51 74.48,39.14 57.23,42.12C56.49,42.24 55.72,42.39 54.92,42.55C51.98,43.12 48.69,43.76 45.07,43.56C36.32,43.13 15.27,38.21 0.48,17.3C-3.85,11.09 21.36,67.07 59.35,67.67C74.89,67.9 82.8,59.4 89.98,51.68C95.67,45.55 100.92,39.91 109.15,39.54C114.46,39.27 116.26,41.73 116.26,41.73C116.26,41.73 117.84,39.47 123.22,39.68C131.46,40.05 136.69,45.69 142.37,51.82C149.52,59.54 157.4,68.05 172.94,67.81C211.02,67.21 236.14,11.24 231.81,17.44C217.11,38.35 196.06,43.28 187.3,43.7C183.6,43.84 180.33,43.22 177.35,42.67Z " /><path  id="并集" style="stroke:#000000; stroke-width:22; stroke-opacity:1; stroke-dasharray:0 0" transform="translate(44.96 116.06)  rotate(0 32.275042093343835 38.94547059729106)" d="M3.71,0.52C1.44,-6.81 -8.83,65.09 19.17,76.97C23.3,78.72 30.91,78.1 32.67,74.06C34.44,70 35.5,65.33 42.92,59.71C50.49,54 69.54,59.99 63.32,43.86C59.15,25.61 15.07,29.55 3.71,0.52Z " /><path  id="并集" style="stroke:#000000; stroke-width:22; stroke-opacity:1; stroke-dasharray:0 0" transform="translate(198.51 116.06)  rotate(0 32.2622926395347 38.9300861563655)" d="M21.62,59.68C29.04,65.31 30.1,69.97 31.87,74.03C33.63,78.07 41.23,78.69 45.36,76.94C73.35,65.06 63.09,-6.8 60.81,0.52C49.46,29.54 5.4,25.6 1.23,43.84C-4.99,59.97 14.05,53.97 21.62,59.68Z " /><path  id="并集" style="stroke:#000000; stroke-width:22; stroke-opacity:1; stroke-dasharray:0 0" transform="translate(168.21 48.74)  rotate(0 36.91521838171567 52.62811596887335)" d="M59.7,18.15C49.86,9.01 34.46,0.01 12.58,0C1.87,6.84 -1.06,13.06 0.32,29.32C0.83,35.65 0.95,48.71 1.08,62.24C1.28,83.49 1.49,105.91 3.22,105.24L3.22,105.17C3.22,105.17 14.4,71.47 48.43,64.97C62.29,61.12 72.74,51.76 73.83,41.89C69.54,27.28 59.7,18.15 59.7,18.15Z " /><path  id="并集" style="stroke:#000000; stroke-width:22; stroke-opacity:1; stroke-dasharray:0 0" transform="translate(65.96 48.74)  rotate(0 36.91521838171567 52.62811596887335)" d="M25.4,64.97C59.43,71.47 70.61,105.17 70.61,105.17L70.61,105.24C72.34,105.91 72.55,83.49 72.75,62.24C72.88,48.71 73,35.65 73.51,29.32C74.89,13.06 71.96,6.84 61.25,0C39.37,0.01 23.97,9.01 14.13,18.15C14.13,18.15 4.29,27.28 0,41.89C1.09,51.76 11.54,61.12 25.4,64.97Z " /></g></g></svg>