<svg xmlns="http://www.w3.org/2000/svg" xmlns:xlink="http://www.w3.org/1999/xlink" width="308" height="308" viewBox="0 0 308 308" fill="none"><defs><rect id="path_0" x="0" y="0" width="308" height="308" /></defs><g opacity="1" transform="translate(0 0)  rotate(0 154 154)"><mask id="bg-mask-0" fill="white"><use xlink:href="#path_0"></use></mask><g mask="url(#bg-mask-0)" ><path id="并集" fill-rule="evenodd" style="fill:#000000" transform="translate(192.26 149.29)  rotate(90 13.743681940922087 29.45074701626162)" opacity="1" d="M-0.266843 -15.5541L7.64309 -7.91095L7.64361 -7.91045L33.9598 17.5147L34.2593 17.8562Q36.443 20.3455 37.5366 23.5832Q38.49 26.406 38.49 29.4387Q38.49 32.4629 37.5419 35.284Q36.4606 38.5018 34.3061 40.9901L33.9855 41.3605L7.64309 66.811L-7.64309 50.9891L14.6508 29.45L-7.64309 7.91095L0 0L-7.64361 7.91045L-15.5541 0.266843L-0.266843 -15.5541ZM-0.266842 74.4556L7.64361 66.8119L-7.64361 50.991L-15.5541 58.6346L-0.266842 74.4556Z " /><path  id="并集" style="stroke:#000000; stroke-width:22; stroke-opacity:1; stroke-dasharray:0 0" transform="translate(192.26 149.29)  rotate(90 13.743681940922087 29.45074701626162)" d="" /><path id="路径 1"  style="fill:#000000" transform="translate(205.44 116.5)  rotate(0 0.0005 35.48)" opacity="1" d="M-11 -11L-11 70.96L11 70.96L11 -11L-11 -11ZM11 81.9638L11 70.9638L-11 70.9638L-11 81.9638L11 81.9638Z " /><path  id="路径 1" style="stroke:#000000; stroke-width:22; stroke-opacity:1; stroke-dasharray:0 0" transform="translate(205.44 116.5)  rotate(0 0.0005 35.48)" d="" /><path id="路径 1"  style="fill:#000000" transform="translate(80 118)  rotate(0 30.500000000000014 36)" opacity="1" d="M50 25.4718L50 83L72 83L72 -11L56.0836 -11L30.8569 13.3769L4.81506 -11L-11 -11L-11 83L11 83L11 24.924L26.1549 39.11L35.8863 39.11L50 25.4718Z " /><path  id="路径 1" style="stroke:#000000; stroke-width:22; stroke-opacity:1; stroke-dasharray:0 0" transform="translate(80 118)  rotate(0 30.500000000000014 36)" d="" /><path  id="并集" style="stroke:#000000; stroke-width:22; stroke-opacity:1; stroke-dasharray:0 0" transform="translate(29 60)  rotate(0 124.99999999999996 93.99999999999999)" d="M250,69L250,44C250,16 236.2,0 202.2,0L48.2,0C20,0 0,13 0,44L0,69L0,144C0,175 20,188 48.2,188L202.2,188C236.2,188 250,172 250,144L250,69Z " /></g></g></svg>