<svg xmlns="http://www.w3.org/2000/svg" xmlns:xlink="http://www.w3.org/1999/xlink" width="308" height="308" viewBox="0 0 308 308" fill="none"><defs><rect id="path_0" x="0" y="0" width="308" height="308" /></defs><g opacity="1" transform="translate(0 0)  rotate(0 154 154)"><mask id="bg-mask-0" fill="white"><use xlink:href="#path_0"></use></mask><g mask="url(#bg-mask-0)" ><path  id="路径 1" style="stroke:#000000; stroke-width:22; stroke-opacity:1; stroke-dasharray:0 0" transform="translate(-6.22 114.54)  rotate(90 91.0916851995739 39.459668589734775)" d="M180.26,56.87L143.66,0L42.04,0.33L2.08,55.56C-4.22,67.06 4.64,78.92 17.28,78.92C17.28,78.92 168.68,78.92 168.68,78.92C178.28,78.92 185.9,66.63 180.26,56.87Z " /><path  id="路径 1" style="stroke:#000000; stroke-width:22; stroke-opacity:1; stroke-dasharray:0 0" transform="translate(111.11 76.21)  rotate(90 91.09168519957392 77.78625510528222)" d="M180.26,133.52C180.26,133.52 107.06,7.79 107.06,7.79C101.13,-2.69 88.14,-2.5 82,7.76L2.08,132.21C-4.22,143.71 4.64,155.57 17.28,155.57C17.28,155.57 168.68,155.57 168.68,155.57C178.28,155.57 185.9,143.28 180.26,133.52Z " /></g></g></svg>