<svg xmlns="http://www.w3.org/2000/svg" xmlns:xlink="http://www.w3.org/1999/xlink" width="308" height="308" viewBox="0 0 308 308" fill="none"><defs><rect id="path_0" x="0" y="0" width="308" height="308" /></defs><g opacity="1" transform="translate(0 0)  rotate(0 154 154)"><mask id="bg-mask-0" fill="white"><use xlink:href="#path_0"></use></mask><g mask="url(#bg-mask-0)" ><path  id="路径 1" style="stroke:#000000; stroke-width:22; stroke-opacity:1; stroke-dasharray:0 0" transform="translate(97.17004133251976 227.05028218630105)  rotate(0 43.40608201942024 27.151382323432475)" d="M86.81,0C86.74,0.07 13.19,0.07 13.12,0.07L13.12,0.07C5.89,0.07 0,5.69 0,12.68C0,17.42 2.74,21.49 6.81,23.66L47.53,50.85C51.55,53.11 56.09,54.3 60.71,54.3C63.8,54.3 66.75,53.76 69.48,52.81L86.81,48L86.81,0Z M86.81,0L86.81,0C86.81,0 86.81,0 86.81,0Z " /><path  id="路径 3" style="stroke:#000000; stroke-width:22; stroke-opacity:1; stroke-dasharray:0 0" transform="translate(49.5 26.646953166829917)  rotate(0 67.3856752392727 90.23615593054548)" d="M8.07,51.66C7.72,52 7.37,52.34 7.09,52.68C6.11,53.69 4.42,55.86 4.42,55.86C1.53,59.97 -0.01,64.87 0,69.9L0,167.86C0,174.84 5.89,180.47 13.12,180.47C14.94,180.47 16.63,180.13 18.17,179.45L41.53,166.78C45.74,164.74 49.11,161.28 50.86,157.01C51.28,156.13 51.63,155.05 51.85,153.96C51.91,153.69 51.99,153.35 51.99,153.08C51.99,152.95 52.06,152.74 52.06,152.61C52.13,152.13 52.2,151.59 52.2,151.12C52.2,150.71 52.27,150.37 52.27,149.96L52.27,107.18L52.27,87.59C52.27,82.1 54.72,77.15 58.58,73.69C60.41,72.07 62.79,70.64 65.6,69.69C68.4,68.68 134.77,45.49 134.77,45.49L134.77,6.37L116.04,1.02C113.64,0.33 111.16,-0.01 108.67,0C104.53,0 100.39,0.81 96.67,2.71C95.9,3.05 14.17,47.46 14.17,47.46C13.05,48 12,48.68 11.01,49.35C10.88,49.42 10.8,49.49 10.66,49.56C10.03,50.03 9.47,50.51 8.84,50.98C8.56,51.19 8.28,51.46 8.07,51.66Z " /><path  id="路径 5" style="stroke:#000000; stroke-width:22; stroke-opacity:1; stroke-dasharray:0 0" transform="translate(166.66480674683785 27.99233311832475)  rotate(0 45.91759662658106 125.96266880749548)" d="M0,0C10.66,4 17.33,13.02 17.33,24C17.33,24 17.26,223.52 17.33,228.33C17.4,239.18 10.24,248.47 0,251.93C2.24,251.32 73.59,231.45 73.59,231.45C84.19,228.2 91.83,218.7 91.83,207.39L91.83,44.87C91.9,33.62 84.19,24.06 73.59,20.81L0,0Z " /></g></g></svg>