<svg xmlns="http://www.w3.org/2000/svg" xmlns:xlink="http://www.w3.org/1999/xlink" width="308" height="308" viewBox="0 0 308 308" fill="none"><defs><rect id="path_0" x="0" y="0" width="308" height="308" /></defs><g opacity="1" transform="translate(0 0)  rotate(0 154 154)"><mask id="bg-mask-0" fill="white"><use xlink:href="#path_0"></use></mask><g mask="url(#bg-mask-0)" ><path id="路径 1"  style="fill:#000000" transform="translate(191.5 108.5)  rotate(-90 0.5 82)" opacity="1" d="M11 -11L11 175L-11 175L-11 -11L11 -11Z " /><path  id="路径 1" style="stroke:#000000; stroke-width:22; stroke-opacity:1; stroke-dasharray:0 0" transform="translate(191.5 108.5)  rotate(-90 0.5 82)" d="" /><path id="路径 1"  style="fill:#000000" transform="translate(181.5 161.5)  rotate(-90 0.5 72)" opacity="1" d="M-11 -11L-11 155L11 155L11 -11L-11 -11Z " /><path  id="路径 1" style="stroke:#000000; stroke-width:22; stroke-opacity:1; stroke-dasharray:0 0" transform="translate(181.5 161.5)  rotate(-90 0.5 72)" d="" /><path id="路径 1"  style="fill:#000000" transform="translate(192.5 -8.5)  rotate(-90 0.5 82)" opacity="1" d="M11 -11L11 175L-11 175L-11 -11L11 -11Z " /><path  id="路径 1" style="stroke:#000000; stroke-width:22; stroke-opacity:1; stroke-dasharray:0 0" transform="translate(192.5 -8.5)  rotate(-90 0.5 82)" d="" /><path id="路径 1"  style="fill:#000000" transform="translate(192.5 36.5)  rotate(-90 0.5 82)" opacity="1" d="M11 -11L11 175L-11 175L-11 -11L11 -11Z " /><path  id="路径 1" style="stroke:#000000; stroke-width:22; stroke-opacity:1; stroke-dasharray:0 0" transform="translate(192.5 36.5)  rotate(-90 0.5 82)" d="" /><path id="路径 1"  style="fill:#000000" transform="translate(35 60)  rotate(0 17.000000000000888 38.999999999999986)" opacity="1" d="M23 23.929L23 78L22.9996 77.9999L22.9995 88.9999L44.9995 89.0001L44.9996 78.0001L23 78L45 78L45 -11L26.4418 -11L23.367 -5.31163Q23.3069 -5.20919 23.2156 -5.06412Q22.8144 -4.42658 22.2686 -3.69667Q20.3964 -1.19287 17.9503 0.91188Q14.578 3.81362 10.6367 5.45216Q5.71081 7.5 0 7.5L-11 7.5L-11 29.5L0 29.5Q10.1017 29.5 19.082 25.7666Q21.0857 24.9336 23 23.929Z " /><path  id="路径 1" style="stroke:#000000; stroke-width:22; stroke-opacity:1; stroke-dasharray:0 0" transform="translate(35 60)  rotate(0 17.000000000000888 38.999999999999986)" d="" /><path id="路径 1"  style="fill:#000000" transform="translate(51 174)  rotate(0 20.999999999999996 35.5)" opacity="1" d="M-11 82L53 82L53 60L12.3001 60Q13.2814 59.1225 14.8353 58.023Q15.7537 57.3732 17.021 56.541Q17.8294 56.0102 19.5486 54.9081Q21.7929 53.4693 22.951 52.7015Q24.9814 51.3553 26.5912 50.1776Q30.9908 46.959 34.0203 43.6826Q38.0822 39.2897 40.2658 34.2496Q42.8 28.4001 42.8 21.77L42.8 18.93Q42.8 12.2478 40.8504 6.72231Q38.835 1.0103 34.8966 -3.1072Q32.9667 -5.12482 30.6506 -6.66455Q28.4184 -8.14849 25.8998 -9.14036Q21.1778 -11 15.9 -11Q13.2139 -11 10.6295 -10.4586Q8.00167 -9.90818 5.57138 -8.81767Q3.12022 -7.71779 0.960065 -6.10902Q-1.19558 -4.50362 -2.98458 -2.44834Q-6.51407 1.60652 -8.32974 7.01875Q-10.08 12.236 -10.08 18.3L-10.08 21.77L11.92 21.77L11.92 18.3Q11.92 15.8279 12.5279 14.0159Q12.9522 12.7511 13.6096 11.9958Q14.0482 11.492 14.578 11.2542Q15.1446 11 15.9 11Q17.9466 11 18.9984 12.0997Q19.664 12.7955 20.1039 14.0424Q20.8 16.0151 20.8 18.93L20.8 21.77Q20.8 23.8393 20.0788 25.5039Q19.385 27.1053 17.8673 28.7467Q16.2831 30.46 13.6016 32.4217Q12.4014 33.2997 10.7938 34.3656Q9.77679 35.0399 7.67516 36.3872Q5.85471 37.5543 4.94542 38.1514Q3.3586 39.1934 2.12854 40.0637Q-1.2597 42.461 -3.56904 44.7278Q-6.86272 47.9608 -8.69115 51.5779Q-11 56.1453 -11 61.22L-11 82ZM-10.0826 21.7733L-10.0826 32.7733L11.9174 32.7733L11.9174 21.7733L-10.0826 21.7733Z " /><path  id="路径 1" style="stroke:#000000; stroke-width:22; stroke-opacity:1; stroke-dasharray:0 0" transform="translate(51 174)  rotate(0 20.999999999999996 35.5)" d="" /></g></g></svg>