<svg xmlns="http://www.w3.org/2000/svg" xmlns:xlink="http://www.w3.org/1999/xlink" width="308" height="308" viewBox="0 0 308 308" fill="none"><defs><rect id="path_0" x="0" y="0" width="308" height="308" /></defs><g opacity="1" transform="translate(0 0)  rotate(0 154 154)"><mask id="bg-mask-0" fill="white"><use xlink:href="#path_0"></use></mask><g mask="url(#bg-mask-0)" ><path id="拼合图形" fill-rule="evenodd" style="fill:#000000" transform="translate(81 95.5)  rotate(0 59 59)" opacity="1" d="M69.75 0L69.75 118L47.75 118L47.75 0L69.75 0Z M0 48L118 48L118 70L0 70L0 48Z M25.0582 9.50183L108.498 92.9418L92.9418 108.498L9.50183 25.0582L25.0582 9.50183Z M9.50183 92.9418L92.9418 9.50183L108.498 25.0582L25.0582 108.498L9.50183 92.9418Z " /><path  id="拼合图形" style="stroke:#000000; stroke-width:22; stroke-opacity:1; stroke-dasharray:0 0" transform="translate(81 95.5)  rotate(0 59 59)" d="" /><path id="并集"  style="fill:#000000" transform="translate(37 55)  rotate(0 99 99)" opacity="1" d="" /><path  id="并集" style="stroke:#000000; stroke-width:22; stroke-opacity:1; stroke-dasharray:0 0" transform="translate(37 55)  rotate(0 99 99)" d="" /><path  id="路径 1" style="stroke:#000000; stroke-width:22; stroke-opacity:1; stroke-dasharray:0 0" transform="translate(210 193)  rotate(0 34.5343347639485 38.49999999999999)" d="M0,27.76C0,47.26 5.01,69.25 34.53,77C64.1,69.36 69.07,46.93 69.07,27.76L69.07,9.61L34.53,0L0,9.61L0,27.76Z " /></g></g></svg>