<svg xmlns="http://www.w3.org/2000/svg" xmlns:xlink="http://www.w3.org/1999/xlink" width="308" height="308" viewBox="0 0 308 308" fill="none"><defs><rect id="path_0" x="0" y="0" width="308" height="308" /></defs><g opacity="1" transform="translate(0 0)  rotate(0 154 154)"><mask id="bg-mask-0" fill="white"><use xlink:href="#path_0"></use></mask><g mask="url(#bg-mask-0)" ><path  id="路径 1" style="stroke:#000000; stroke-width:22; stroke-opacity:1; stroke-dasharray:0 0" transform="translate(55 64)  rotate(0 93.5 100)" d="M155.95,116.22C152.66,114.32 148.68,114.23 145.31,115.98L118.44,129.95C118.44,129.95 98.49,125.97 82.2,109.02C65.91,92.07 62.01,71.25 62.01,71.25L75.45,43.3C77.13,39.8 77.04,35.66 75.22,32.24L61.27,6.1C59.26,2.34 55.45,0 51.3,0L33.89,0C-10.71,0 -14.12,99.31 40.71,156.34C95.53,213.38 187,213.99 187,161.36L187,141.16C187,136.85 184.76,132.88 181.14,130.79L155.95,116.22Z " /><path id="并集" fill-rule="evenodd" style="fill:#000000" transform="translate(213.73 34.63)  rotate(-45 19.5 41.5)" opacity="1" d="M-15.5559 -0.116318L-7.83612 7.7198L0 0L-7.8353 7.72062L25.4509 41.4987L-7.8353 75.2794L0.0275659 83.0272L-7.83612 75.2802L-15.5559 83.1163L0.116314 98.5559L7.83531 90.7206L7.83611 90.7198L45.5353 52.4606Q47.7861 50.2359 48.9695 47.1492Q50.0538 44.3207 49.9955 41.2638Q49.9401 38.3632 48.8619 35.6659Q47.7417 32.8638 45.6831 30.6923L7.83612 -7.7198L7.8353 -7.72062L0.116318 -15.5559L-15.5559 -0.116318ZM29.7566 37.1291L29.8647 37.0194Q29.8099 37.0735 29.7566 37.1291Z " /><path  id="并集" style="stroke:#000000; stroke-width:22; stroke-opacity:1; stroke-dasharray:0 0" transform="translate(213.73 34.63)  rotate(-45 19.5 41.5)" d="" /><path id="路径 1"  style="fill:#000000" transform="translate(170 64.13)  rotate(0 37.65051497579374 37.750383715782604)" opacity="1" d="M83.0895 7.76787L90.8574 -0.0206032L75.2804 -15.5563L67.5126 -7.76786L83.0895 7.76787ZM7.78848 83.2679L83.0885 7.76785L67.5115 -7.76785L-7.78848 67.7321L7.78848 83.2679ZM0.0205994 91.0571L7.78846 83.2686L-7.78848 67.7329L-15.5563 75.5214L0.0205994 91.0571Z " /><path  id="路径 1" style="stroke:#000000; stroke-width:22; stroke-opacity:1; stroke-dasharray:0 0" transform="translate(170 64.13)  rotate(0 37.65051497579374 37.750383715782604)" d="" /></g></g></svg>