<svg xmlns="http://www.w3.org/2000/svg" xmlns:xlink="http://www.w3.org/1999/xlink" width="308" height="308" viewBox="0 0 308 308" fill="none"><defs><rect id="path_0" x="0" y="0" width="308" height="308" /></defs><g opacity="1" transform="translate(0 0)  rotate(0 154 154)"><mask id="bg-mask-0" fill="white"><use xlink:href="#path_0"></use></mask><g mask="url(#bg-mask-0)" ><path id="路径 1"  style="fill:#000000" transform="translate(66 44)  rotate(0 0.5 110.00000000000003)" opacity="1" d="M11 -11L11 231L-11 231L-11 -11L11 -11Z " /><path  id="路径 1" style="stroke:#000000; stroke-width:22; stroke-opacity:1; stroke-dasharray:0 0" transform="translate(66 44)  rotate(0 0.5 110.00000000000003)" d="" /><path  id="路径 1" style="stroke:#000000; stroke-width:22; stroke-opacity:1; stroke-dasharray:0 0" transform="translate(64.57186315478293 66.12841279701388)  rotate(-90 96.28478723303708 82.75495547256541)" d="M174.3,165.51C187.67,165.51 197.03,152.97 190.37,140.82L103.09,6.13C98.54,-2.04 86.77,-2.05 81.88,6.13L2.03,142.2C-3.92,152.52 4.13,165.51 14.28,165.51C14.28,165.51 174.3,165.51 174.3,165.51Z " /></g></g></svg>