<svg xmlns="http://www.w3.org/2000/svg" xmlns:xlink="http://www.w3.org/1999/xlink" width="308" height="308" viewBox="0 0 308 308" fill="none"><defs><rect id="path_0" x="0" y="0" width="308" height="308" /></defs><g opacity="1" transform="translate(0 0)  rotate(0 154 154)"><mask id="bg-mask-0" fill="white"><use xlink:href="#path_0"></use></mask><g mask="url(#bg-mask-0)" ><path  id="路径 1" style="stroke:#000000; stroke-width:22; stroke-opacity:1; stroke-dasharray:0 0" transform="translate(57.75 37)  rotate(0 96.25 117.50000000000001)" d="M18.12,108.49Z M168.61,196.45C172.28,190.27 174.37,183.76 174.7,177.67C176.37,178.42 179.96,182.26 184.05,182.26C185.05,182.26 186.05,182.09 187.05,181.59C192.39,178.92 192.23,168.49 192.39,165.57C192.89,155.55 192.31,119.75 174.87,108.49L174.7,108.49C174.7,37.52 145.22,0 96.24,0C47.26,0 18.12,37.52 18.12,108.49C0.67,119.75 -0.41,155.55 0.09,165.57C0.26,168.49 0.09,178.92 5.43,181.51C6.43,182.01 7.43,182.26 8.35,182.26C12.61,182.26 16.28,178.34 18.12,177.5C18.37,183.59 20.37,190.1 24.04,196.19C20.87,200.12 17.62,205.71 17.62,212.38C17.62,228.32 29.3,235 51.59,235C69.62,235 88.98,224.82 93.57,213.64L98.91,213.64C103.5,224.82 122.87,235 140.9,235C163.18,235 174.87,228.32 174.87,212.38C174.87,205.88 171.78,200.37 168.61,196.45Z " /></g></g></svg>