<svg xmlns="http://www.w3.org/2000/svg" xmlns:xlink="http://www.w3.org/1999/xlink" width="308" height="308" viewBox="0 0 308 308" fill="none"><defs><rect id="path_0" x="0" y="0" width="308" height="308" /></defs><g opacity="1" transform="translate(0 0)  rotate(0 154 154)"><mask id="bg-mask-0" fill="white"><use xlink:href="#path_0"></use></mask><g mask="url(#bg-mask-0)" ><path id="圆形 1" fill-rule="evenodd" style="fill:#000000" transform="translate(33 63.5)  rotate(0 51.25 86.5)" opacity="1" d="M51.25,70.5C10.5,70.5 0,86.5 0,121.75C0,121.75 0,121.75 0,121.75C0,157 6.5,173 51.25,173C96,173 102.5,161.5 102.5,121.75C102.5,82 92,70.5 51.25,70.5Z  M-11 121.75L-11 53.5Q-11 52.2717 -10.8676 50.4175Q-10.6218 46.9765 -10.0144 43.3322Q-9.16859 38.2574 -7.7148 33.4114Q-5.87461 27.2775 -3.1512 21.8307Q0.136547 15.2552 4.61109 9.88571Q9.8121 3.6445 16.4686 -0.793179Q23.8534 -5.71636 32.8189 -8.27794Q42.3461 -11 53.5 -11L64 -11L64 11L53.5 11Q38.4399 11 28.672 17.5119Q21.0714 22.579 16.5262 31.6693Q14.652 35.4178 13.3574 39.7331Q12.3034 43.2465 11.6863 46.949Q11.2487 49.5743 11.0765 51.9849Q11.0261 52.6908 11.007 53.2656Q11.0019 53.416 11.0002 53.5239Q10.9999 53.5421 10.9999 53.5485Q11 53.5306 11 53.5L11 121.75L-11 121.75Z " /><path  id="圆形 1" style="stroke:#000000; stroke-width:22; stroke-opacity:1; stroke-dasharray:0 0" transform="translate(33 63.5)  rotate(0 51.25 86.5)" d="" /><path id="圆形 1" fill-rule="evenodd" style="fill:#000000" transform="translate(171 63.5)  rotate(0 51.25 86.5)" opacity="1" d="M51.25,70.5C10.5,70.5 0,86.5 0,121.75C0,121.75 0,121.75 0,121.75C0,157 6.5,173 51.25,173C96,173 102.5,161.5 102.5,121.75C102.5,82 92,70.5 51.25,70.5Z  M-11 121.75L-11 53.5Q-11 52.2717 -10.8676 50.4175Q-10.6218 46.9765 -10.0144 43.3322Q-9.16859 38.2574 -7.7148 33.4114Q-5.87461 27.2775 -3.1512 21.8307Q0.136547 15.2552 4.61109 9.88571Q9.8121 3.6445 16.4686 -0.793179Q23.8534 -5.71636 32.8189 -8.27794Q42.3461 -11 53.5 -11L64 -11L64 11L53.5 11Q38.4399 11 28.672 17.5119Q21.0714 22.579 16.5262 31.6693Q14.652 35.4178 13.3574 39.7331Q12.3034 43.2465 11.6863 46.949Q11.2487 49.5743 11.0765 51.9849Q11.0261 52.6908 11.007 53.2656Q11.0019 53.416 11.0002 53.5239Q10.9999 53.5421 10.9999 53.5485Q11 53.5306 11 53.5L11 121.75L-11 121.75Z " /><path  id="圆形 1" style="stroke:#000000; stroke-width:22; stroke-opacity:1; stroke-dasharray:0 0" transform="translate(171 63.5)  rotate(0 51.25 86.5)" d="" /></g></g></svg>