<svg xmlns="http://www.w3.org/2000/svg" xmlns:xlink="http://www.w3.org/1999/xlink" width="308" height="308" viewBox="0 0 308 308" fill="none"><defs><rect id="path_0" x="0" y="0" width="308" height="308" /></defs><g opacity="1" transform="translate(0 0)  rotate(0 154 154)"><mask id="bg-mask-0" fill="white"><use xlink:href="#path_0"></use></mask><g mask="url(#bg-mask-0)" ><path id="并集" fill-rule="evenodd" style="fill:#000000" transform="translate(80.98 30.5)  rotate(683.6331356844196 19 45)" opacity="1" d="M46.2364 7.29118L53.5276 -0.945236L37.0548 -15.5276L29.7637 -7.29136L29.7636 -7.29119L-6.96627 34.1986Q-9.03512 36.4632 -10.1031 39.5552Q-11.0475 42.2891 -10.9958 45.2237Q-10.9466 48.0141 -10.0027 50.6309Q-8.98993 53.4386 -7.08813 55.6613L29.7636 97.2912L29.7637 97.2914L37.0548 105.528L53.5276 90.9452L46.2364 82.7088L38.1062 89.9059L46.2363 82.7086L12.8529 45.0011L46.2363 7.29135L37.9217 -0.0693101L46.2364 7.29118ZM9.61816 48.655L9.50627 48.7814Q9.56319 48.7191 9.61816 48.655Z " /><path  id="并集" style="stroke:#000000; stroke-width:22; stroke-opacity:1; stroke-dasharray:0 0" transform="translate(80.98 30.5)  rotate(683.6331356844196 19 45)" d="" /><path id="圆形 1"  style="fill:#000000" transform="translate(56.20483531107698 71.10624027661106)  rotate(291.7324236903412 105.5 96.5)" opacity="1" d="M148.859 3.02963L158.003 9.14406L158.004 9.14268Q165.761 14.3372 172.328 20.9043Q178.774 27.3406 183.871 34.8742Q189.012 42.4753 192.579 50.8993Q196.211 59.4749 198.08 68.5993Q200 77.9701 200 87.63Q200 97.2882 198.081 106.657Q196.212 115.779 192.581 124.354Q189.014 132.777 183.872 140.379Q178.776 147.913 172.328 154.354Q165.879 160.794 158.335 165.885Q150.722 171.022 142.286 174.586Q133.698 178.214 124.56 180.082Q115.176 182 105.5 182Q95.8244 182 86.4396 180.082Q77.3022 178.214 68.7137 174.586Q60.278 171.022 52.6651 165.885Q45.1207 160.794 38.6723 154.354Q32.2245 147.913 27.1282 140.379Q21.9862 132.777 18.4194 124.354Q14.7883 115.779 12.9194 106.657Q11 97.2882 11 87.63Q11 77.97 12.9198 68.5993Q14.7891 59.475 18.4205 50.8993Q21.9877 42.4753 27.1295 34.8742Q32.2256 27.3406 38.6782 20.8982Q45.2391 14.3373 52.9965 9.14267L52.9974 9.14406L62.1415 3.02963L49.9126 -15.2585L40.7686 -9.14406L49.1392 3.37419L40.76 -9.14031Q31.2089 -2.74523 23.1218 5.34182Q15.1867 13.2645 8.90708 22.5477Q2.56475 31.9235 -1.838 42.3207Q-6.32365 52.9136 -8.63259 64.1839Q-11 75.7396 -11 87.63Q-11 99.5187 -8.63294 111.072Q-6.32433 122.341 -1.83906 132.932Q2.56313 143.328 8.90522 152.704Q15.184 161.987 23.1252 169.919Q31.0662 177.851 40.3593 184.122Q49.7457 190.455 60.1522 194.852Q70.7547 199.331 82.0342 201.636Q93.5992 204 105.5 204Q117.401 204 128.966 201.636Q140.245 199.331 150.848 194.852Q161.254 190.455 170.641 184.122Q179.934 177.851 187.875 169.919Q195.816 161.987 202.095 152.704Q208.437 143.328 212.839 132.932Q217.324 122.341 219.633 111.072Q222 99.5187 222 87.63Q222 75.7396 219.633 64.1839Q217.324 52.9135 212.838 42.3207Q208.435 31.9235 202.093 22.5477Q195.813 13.2645 187.872 5.33571Q179.791 -2.74523 170.24 -9.14031L161.861 3.37318L170.231 -9.14406L161.087 -15.2585L148.859 3.02963Z " /><path  id="圆形 1" style="stroke:#000000; stroke-width:22; stroke-opacity:1; stroke-dasharray:0 0" transform="translate(56.20483531107698 71.10624027661106)  rotate(291.7324236903412 105.5 96.5)" d="" /></g></g></svg>