<svg xmlns="http://www.w3.org/2000/svg" xmlns:xlink="http://www.w3.org/1999/xlink" width="308" height="308" viewBox="0 0 308 308" fill="none"><defs><rect id="path_0" x="0" y="0" width="308" height="308" /></defs><g opacity="1" transform="translate(0 0)  rotate(0 154 154)"><mask id="bg-mask-0" fill="white"><use xlink:href="#path_0"></use></mask><g mask="url(#bg-mask-0)" ><path  id="并集" style="stroke:#000000; stroke-width:22; stroke-opacity:1; stroke-dasharray:0 0" transform="translate(33 55)  rotate(0 89.5 99)" d="M179,44C179,13 158.82,0 130.37,0L48.22,0C13.92,0 0,16 0,44L0,99L0,154C0,182 13.92,198 48.22,198L130.37,198C158.82,198 179,185 179,154L179,99L179,44Z " /><path  id="圆形 1" style="stroke:#000000; stroke-width:22; stroke-opacity:1; stroke-dasharray:0 0" transform="translate(73 104.5)  rotate(0 49.5 49.5)" d="M49.5,0C22.16,0 0,22.16 0,49.5C0,76.84 22.16,99 49.5,99C76.84,99 99,76.84 99,49.5C99,22.16 76.84,0 49.5,0Z " /><path id="圆形 1" fill-rule="evenodd" style="fill:#000000" transform="translate(112.5 144)  rotate(0 10 10)" opacity="1" d="M10,0C4.48,0 0,4.48 0,10C0,15.52 4.48,20 10,20C15.52,20 20,15.52 20,10C20,4.48 15.52,0 10,0Z " /><path  id="圆形 1" style="stroke:#000000; stroke-width:22; stroke-opacity:1; stroke-dasharray:0 0" transform="translate(112.5 144)  rotate(0 10 10)" d="M10,0C4.48,0 0,4.48 0,10C0,15.52 4.48,20 10,20C15.52,20 20,15.52 20,10C20,4.48 15.52,0 10,0Z " /><path  id="路径 1" style="stroke:#000000; stroke-width:22; stroke-opacity:1; stroke-dasharray:0 0" transform="translate(185.67 121.67)  rotate(-90 59.000000000000014 32.326174348750975)" d="M29.5,0L1.31,54.19C-2.23,58.98 1.72,64.65 9.31,64.65L108.41,64.65C116.09,64.65 120.04,58.74 116.94,53.77L88.54,0.15L29.5,0Z " /></g></g></svg>