<svg xmlns="http://www.w3.org/2000/svg" xmlns:xlink="http://www.w3.org/1999/xlink" width="308" height="308" viewBox="0 0 308 308" fill="none"><defs><rect id="path_0" x="0" y="0" width="308" height="308" /></defs><g opacity="1" transform="translate(0 0)  rotate(0 154 154)"><mask id="bg-mask-0" fill="white"><use xlink:href="#path_0"></use></mask><g mask="url(#bg-mask-0)" ><path id="拼合图形" fill-rule="evenodd" style="fill:#000000" transform="translate(22 34)  rotate(0 132 113.5)" opacity="1" d="M44,44L44,183C44,214 64.18,227 92.63,227L170.78,227C205.08,227 219,211 219,183L219,44L44,44Z M219 33L264 33L264 55L219 55L219 33Z M44 55L0 55L0 33L44 33L44 55Z M83 44L83 27.87Q83 20.2722 85.1432 13.6459Q87.4926 6.38212 92.1887 0.965527Q94.6751 -1.90238 97.7302 -4.12687Q100.847 -6.39598 104.469 -7.93301Q111.698 -11 120.5 -11L142.5 -11Q146.731 -11 150.728 -10.1976Q154.683 -9.40353 158.312 -7.84419Q161.879 -6.31139 165.026 -4.08459Q168.103 -1.90709 170.68 0.863841Q173.198 3.57131 175.154 6.75422Q177.073 9.87751 178.385 13.3519Q179.682 16.7885 180.342 20.4513Q181 24.1086 181 27.87L181 44L159 44L159 27.87Q159 24.2937 157.803 21.1237Q156.658 18.0911 154.57 15.8462Q152.474 13.5926 149.626 12.3686Q146.441 11 142.5 11L120.5 11Q112.606 11 108.811 15.377Q107.047 17.4115 106.076 20.4163Q105 23.7416 105 27.87L105 44L83 44Z " /><path  id="拼合图形" style="stroke:#000000; stroke-width:22; stroke-opacity:1; stroke-dasharray:0 0" transform="translate(22 34)  rotate(0 132 113.5)" d="" /><path id="圆形 1"  style="fill:#000000" transform="translate(105.24286087316432 116)  rotate(0 49.5 49.5)" opacity="1" d="M29.4874 69.6552L-2.18426 82.8395L-6.40206 72.661Q-8.65295 67.2291 -9.81143 61.4708Q-11 55.5629 -11 49.5Q-11 35.6342 -7.09926 24.5538Q-5.084 18.8293 -2.0508 13.9265Q1.02958 8.94748 5.10988 4.89386Q9.18184 0.848521 14.1743 -2.20022Q19.0719 -5.19109 24.7804 -7.17546Q35.7826 -11 49.5 -11Q55.5629 -11 61.4708 -9.81143Q67.2291 -8.65295 72.661 -6.40206L64.239 13.9221Q60.7879 12.492 57.1317 11.7564Q53.3718 11 49.5 11Q39.4974 11 32.004 13.6048Q25.1632 15.9828 20.6151 20.5011Q16.0566 25.0298 13.6524 31.8593Q11 39.3936 11 49.5Q11 53.3718 11.7564 57.1317Q12.492 60.7879 13.9221 64.239L3.76 68.45L-0.467414 58.2948L21.0326 49.3448L29.4874 69.6552Z M66.6181 30.3096L101.22 16.2457L105.402 26.339Q107.653 31.7709 108.811 37.5292Q110 43.4371 110 49.5Q110 63.2174 106.095 74.2715Q104.081 79.9736 101.055 84.8732Q97.9809 89.8504 93.9157 93.9157Q89.8504 97.9809 84.8732 101.055Q79.9736 104.081 74.2715 106.095Q63.2174 110 49.5 110Q43.4371 110 37.5292 108.811Q31.7709 107.653 26.339 105.402L34.761 85.0779Q38.2121 86.508 41.8683 87.2436Q45.6282 88 49.5 88Q59.4461 88 66.9442 85.3515Q73.7827 82.9359 78.3593 78.3593Q82.9359 73.7827 85.3515 66.9442Q88 59.4461 88 49.5Q88 45.6282 87.2436 41.8683Q86.508 38.2121 85.0779 34.761L95.24 30.55L99.3819 40.7404L74.9019 50.6904L66.6181 30.3096Z " /><path  id="圆形 1" style="stroke:#000000; stroke-width:22; stroke-opacity:1; stroke-dasharray:0 0" transform="translate(105.24286087316432 116)  rotate(0 49.5 49.5)" d="" /></g></g></svg>