<svg xmlns="http://www.w3.org/2000/svg" xmlns:xlink="http://www.w3.org/1999/xlink" width="308" height="308" viewBox="0 0 308 308" fill="none"><defs><rect id="path_0" x="0" y="0" width="308" height="308" /></defs><g opacity="1" transform="translate(0 0)  rotate(0 154 154)"><mask id="bg-mask-0" fill="white"><use xlink:href="#path_0"></use></mask><g mask="url(#bg-mask-0)" ><path id="路径 1"  style="fill:#000000" transform="translate(199.25 91.25)  rotate(90 0.5 63.25)" opacity="1" d="M11 -11L11 137.5L-11 137.5L-11 -11L11 -11Z " /><path  id="路径 1" style="stroke:#000000; stroke-width:22; stroke-opacity:1; stroke-dasharray:0 0" transform="translate(199.25 91.25)  rotate(90 0.5 63.25)" d="" /><path id="并集" fill-rule="evenodd" style="fill:#000000" transform="translate(134 112)  rotate(180 21.5 43.5)" opacity="1" d="M-0.276952 -15.5539L7.63847 -7.91542L0 0L7.63887 -7.91502L49.1989 32.195Q51.5707 34.3999 52.8574 37.5634Q54.063 40.5272 53.9977 43.7491Q53.9359 46.802 52.7397 49.6242Q51.5224 52.496 49.3167 54.6896L7.63887 94.915L-0.0184638 86.9809L7.63847 94.9154L-0.276951 102.554L-15.5539 86.723L-7.63888 79.085L-7.63847 79.0846L29.2333 43.5008L-7.63847 7.91542L-7.63887 7.91502L-15.5539 0.276952L-0.276952 -15.5539ZM33.9211 48.025Q33.8504 47.9594 33.782 47.8907L33.9211 48.025Z " /><path  id="并集" style="stroke:#000000; stroke-width:22; stroke-opacity:1; stroke-dasharray:0 0" transform="translate(134 112)  rotate(180 21.5 43.5)" d="" /><path id="并集" fill-rule="evenodd" style="fill:#000000" transform="translate(93.64 76.65)  rotate(180 34.15357615144767 78.85446789190703)" opacity="1" d="M-0.353288 -15.5523L7.59925 -7.95308L7.59952 -7.95281L66.9392 48.7469Q70.4101 52.2087 72.8746 56.1337Q75.2256 59.8778 76.742 64.0745Q78.1852 68.0687 78.8206 72.3282Q79.4303 76.4153 79.2721 80.5801Q79.1176 84.6443 78.2396 88.5957Q77.3629 92.5415 75.8085 96.1788Q74.2145 99.9091 71.9887 103.125Q69.6947 106.44 66.8418 109.046L7.59995 165.662L7.59941 165.662L-0.353294 173.261L-15.5523 157.356L-7.59953 149.756L-7.59898 149.757L51.8494 92.9431L51.9616 92.8417Q53.0022 91.9005 53.8985 90.6054Q54.8584 89.2185 55.5783 87.5337Q56.3298 85.7751 56.7634 83.8238Q57.2092 81.8176 57.2879 79.7449Q57.452 75.4274 56.0512 71.5505Q54.5873 67.499 51.7408 64.6531L-7.59925 7.95308L0 0L-7.59952 7.95281L-15.5523 0.353288L-0.353288 -15.5523Z " /><path  id="并集" style="stroke:#000000; stroke-width:22; stroke-opacity:1; stroke-dasharray:0 0" transform="translate(93.64 76.65)  rotate(180 34.15357615144767 78.85446789190703)" d="" /><path id="路径 2"  style="fill:#000000" transform="translate(52 44)  rotate(0 0.0005 110)" opacity="1" d="M11 -11L11 -5e-05L0 0L11 0L11 220L-11 220L-11 0L-11 -11L11 -11ZM11 220L11.001 220L11.0011 231L-10.9989 231L-10.999 220L11 220Z " /><path  id="路径 2" style="stroke:#000000; stroke-width:22; stroke-opacity:1; stroke-dasharray:0 0" transform="translate(52 44)  rotate(0 0.0005 110)" d="" /></g></g></svg>