<svg xmlns="http://www.w3.org/2000/svg" xmlns:xlink="http://www.w3.org/1999/xlink" width="308" height="308" viewBox="0 0 308 308" fill="none"><defs><rect id="path_0" x="0" y="0" width="308" height="308" /></defs><g opacity="1" transform="translate(0 0)  rotate(0 154 154)"><mask id="bg-mask-0" fill="white"><use xlink:href="#path_0"></use></mask><g mask="url(#bg-mask-0)" ><path id="圆形 1"  style="fill:#000000" transform="translate(54.948171241634554 55)  rotate(0 99.5 99.5)" opacity="1" d="M-2.61049 141.805Q-6.72282 131.891 -8.83601 121.367Q-11 110.589 -11 99.5Q-11 73.5286 -3.78955 53.0472Q-0.13784 42.6745 5.32672 33.8416Q10.8296 24.9469 18.1022 17.7215Q25.3613 10.5097 34.2824 5.06146Q43.1102 -0.329759 53.4592 -3.92755Q73.8031 -11 99.5 -11Q110.589 -11 121.367 -8.83601Q131.891 -6.72282 141.805 -2.61049L133.375 17.7105Q125.45 14.4229 117.036 12.7335Q108.402 11 99.5 11Q77.5181 11 60.6833 16.8526Q44.5442 22.4632 33.6077 33.3285Q22.6397 44.2252 16.962 60.3528Q11 77.2881 11 99.5Q11 108.402 12.7335 117.036Q14.4229 125.45 17.7105 133.375L-2.61049 141.805Z M201.61 57.1952Q205.723 67.1087 207.836 77.6333Q210 88.4109 210 99.5Q210 125.169 202.786 145.592Q199.134 155.93 193.678 164.765Q188.179 173.667 180.923 180.923Q173.667 188.179 164.765 193.678Q155.93 199.134 145.592 202.786Q125.169 210 99.5 210Q88.4109 210 77.6333 207.836Q67.1087 205.723 57.1952 201.61L65.6248 181.29Q73.55 184.577 81.9642 186.266Q90.5978 188 99.5 188Q121.397 188 138.265 182.042Q154.386 176.347 165.367 165.367Q176.347 154.386 182.042 138.265Q188 121.397 188 99.5Q188 90.5978 186.266 81.9642Q184.577 73.55 181.29 65.6248L201.61 57.1952Z " /><path  id="圆形 1" style="stroke:#000000; stroke-width:22; stroke-opacity:1; stroke-dasharray:0 0" transform="translate(54.948171241634554 55)  rotate(0 99.5 99.5)" d="" /><path id="并集" fill-rule="evenodd" style="fill:#000000" transform="translate(42.95 150)  rotate(72.0633651701369 17.5 36.5)" opacity="1" d="M-15.5563 0.0405426L-7.75788 7.79842L0 0L-7.7574 7.79889L21.0981 36.4991L-7.7574 65.2011L0 73L-7.75788 65.2016L-15.5563 72.9595L-0.0405426 88.5563L7.7574 80.7989L7.75788 80.7984L41.5874 47.1489Q43.7882 45.0305 44.9674 42.031Q46.0557 39.2624 45.998 36.2655Q45.9432 33.4246 44.8642 30.7904Q43.7501 28.0702 41.7112 25.9762L7.75788 -7.79842L7.7574 -7.79889L-0.0405426 -15.5563L-15.5563 0.0405426ZM25.9303 31.6926L26.0726 31.5511Q26.0004 31.6206 25.9303 31.6926Z " /><path  id="并集" style="stroke:#000000; stroke-width:22; stroke-opacity:1; stroke-dasharray:0 0" transform="translate(42.95 150)  rotate(72.0633651701369 17.5 36.5)" d="" /><path id="并集" fill-rule="evenodd" style="fill:#000000" transform="translate(229.95 86)  rotate(71.99910626137417 17.5 36.5)" opacity="1" d="M42.7579 7.79842L50.5563 0.0405426L35.0405 -15.5563L27.2426 -7.7989L27.2421 -7.79842L-6.5874 25.8511Q-8.78824 27.9695 -9.96739 30.969Q-11.0557 33.7376 -10.998 36.7345Q-10.9432 39.5754 -9.86423 42.2096Q-8.75008 44.9298 -6.71118 47.0238L27.2421 80.7984L27.2426 80.7989L35.0405 88.5563L50.5563 72.9595L42.7579 65.2016L35.0231 72.9768L42.7574 65.2011L13.9019 36.5009L42.7574 7.79889L35.0001 0.0001222L42.7579 7.79842ZM9.06966 41.3074L8.9274 41.4489Q8.99963 41.3795 9.06966 41.3074Z " /><path  id="并集" style="stroke:#000000; stroke-width:22; stroke-opacity:1; stroke-dasharray:0 0" transform="translate(229.95 86)  rotate(71.99910626137417 17.5 36.5)" d="" /></g></g></svg>