<svg xmlns="http://www.w3.org/2000/svg" xmlns:xlink="http://www.w3.org/1999/xlink" width="308" height="308" viewBox="0 0 308 308" fill="none"><defs><rect id="path_0" x="0" y="0" width="308" height="308" /></defs><g opacity="1" transform="translate(0 0)  rotate(0 154 154)"><mask id="bg-mask-0" fill="white"><use xlink:href="#path_0"></use></mask><g mask="url(#bg-mask-0)" ><path  id="并集" style="stroke:#000000; stroke-width:22; stroke-opacity:1; stroke-dasharray:0 0" transform="translate(40 53)  rotate(0 114 109.00000000000001)" d="M228,147L228,109L228,44C228,16 214.08,0 179.78,0L48.63,0C20.18,0 0,13 0,44L0,109L0,147C0,178 20.18,191 48.63,191L81,191L103.5,213.5C109.5,219.5 118.5,219.5 124.75,213.5L147.5,191L179.78,191C214.08,191 228,175 228,147Z " /><path id="路径 1"  style="fill:#000000" transform="translate(154 208.5)  rotate(0 0.0005 0.25)" opacity="1" d="M-10.999 -11L-10.999 0L-11 0L-11 0.5L-10.999 0.5L-10.999 11.5L11.001 11.5L11.001 0.5L11 0.5L11 0L11.001 0L11.001 -11L-10.999 -11Z " /><path  id="路径 1" style="stroke:#000000; stroke-width:22; stroke-opacity:1; stroke-dasharray:0 0" transform="translate(154 208.5)  rotate(0 0.0005 0.25)" d="" /><path id="路径 1"  style="fill:#000000" transform="translate(154 98)  rotate(0 0.0005 35)" opacity="1" d="M10.9998 -11.0002L11 -0.000157143L0 0L11 0L11 69.9998L11.001 69.9998L11.0012 80.9998L-10.9988 81.0002L-10.999 70.0002L0.269292 70L-11 70L-11 0L-11.0002 -10.9998L10.9998 -11.0002Z " /><path  id="路径 1" style="stroke:#000000; stroke-width:22; stroke-opacity:1; stroke-dasharray:0 0" transform="translate(154 98)  rotate(0 0.0005 35)" d="" /></g></g></svg>