<svg xmlns="http://www.w3.org/2000/svg" xmlns:xlink="http://www.w3.org/1999/xlink" width="308" height="308" viewBox="0 0 308 308" fill="none"><defs><rect id="path_0" x="0" y="0" width="308" height="308" /></defs><g opacity="1" transform="translate(0 0)  rotate(0 154 154)"><mask id="bg-mask-0" fill="white"><use xlink:href="#path_0"></use></mask><g mask="url(#bg-mask-0)" ><path id="并集" fill-rule="evenodd" style="fill:#000000" transform="translate(135 44)  rotate(-180 31 63)" opacity="1" d="M69.656 7.89845L77.5545 0.242447L62.2424 -15.5545L54.344 -7.89845L-5.58598 50.1915Q-8.28397 52.72 -9.72338 56.2924Q-11.0676 59.6287 -10.994 63.2605Q-10.924 66.7133 -9.58109 69.9115Q-8.21 73.1768 -5.72304 75.6733L54.344 133.898L62.2424 141.554L77.5545 125.758L69.656 118.102L61.7914 126.215L69.656 118.102L12.808 63.0011L69.656 7.89848L62.3183 0.328402L69.656 7.89845ZM9.80529 65.9116L9.72598 65.9885Q9.76615 65.9509 9.80529 65.9116Z " /><path  id="并集" style="stroke:#000000; stroke-width:22; stroke-opacity:1; stroke-dasharray:0 0" transform="translate(135 44)  rotate(-180 31 63)" d="" /><path id="并集" fill-rule="evenodd" style="fill:#000000" transform="translate(181 168)  rotate(-180 21.5 43.5)" opacity="1" d="M50.6389 7.91502L58.5539 0.276953L43.2769 -15.5539L35.3615 -7.91542L42.9631 -0.0382593L35.3611 -7.91502L-6.19887 32.195Q-8.57069 34.3999 -9.85744 37.5634Q-11.063 40.5272 -10.9977 43.7491Q-10.9359 46.802 -9.73966 49.6242Q-8.5224 52.496 -6.31671 54.6896L35.3611 94.915L42.9815 87.0191L35.3615 94.9154L43.2769 102.554L58.5539 86.723L50.6389 79.085L50.6385 79.0846L13.7667 43.5008L50.6385 7.91542L50.6389 7.91502ZM9.21799 47.8908L9.07887 48.025Q9.14952 47.9595 9.21799 47.8908Z " /><path  id="并集" style="stroke:#000000; stroke-width:22; stroke-opacity:1; stroke-dasharray:0 0" transform="translate(181 168)  rotate(-180 21.5 43.5)" d="" /><path id="路径 1"  style="fill:#000000" transform="translate(165.78 155.4)  rotate(-90 0 55.914785329359795)" opacity="1" d="M11 -11L11 122.83L-11 122.83L-11 -11L11 -11Z " /><path  id="路径 1" style="stroke:#000000; stroke-width:22; stroke-opacity:1; stroke-dasharray:0 0" transform="translate(165.78 155.4)  rotate(-90 0 55.914785329359795)" d="" /><path id="路径 1"  style="fill:#000000" transform="translate(113.41 26.16)  rotate(-90 0 80.41495198902605)" opacity="1" d="M11 -11L11 171.83L-11 171.83L-11 -11L11 -11Z " /><path  id="路径 1" style="stroke:#000000; stroke-width:22; stroke-opacity:1; stroke-dasharray:0 0" transform="translate(113.41 26.16)  rotate(-90 0 80.41495198902605)" d="" /><path id="路径 2"  style="fill:#000000" transform="translate(264 44)  rotate(0 0.0005 110)" opacity="1" d="M11 -11L11 -5e-05L0 0L11 0L11 220L-11 220L-11 0L-11 -11L11 -11ZM11 220L11.001 220L11.0011 231L-10.9989 231L-10.999 220L11 220Z " /><path  id="路径 2" style="stroke:#000000; stroke-width:22; stroke-opacity:1; stroke-dasharray:0 0" transform="translate(264 44)  rotate(0 0.0005 110)" d="" /></g></g></svg>