<svg xmlns="http://www.w3.org/2000/svg" xmlns:xlink="http://www.w3.org/1999/xlink" width="308" height="308" viewBox="0 0 308 308" fill="none"><defs><rect id="path_0" x="0" y="0" width="308" height="308" /></defs><g opacity="1" transform="translate(-0.000012207031204525265 0)  rotate(0 154 154)"><mask id="bg-mask-0" fill="white"><use xlink:href="#path_0"></use></mask><g mask="url(#bg-mask-0)" ><path  id="圆形 1" style="stroke:#000000; stroke-width:22; stroke-opacity:1; stroke-dasharray:0 0" transform="translate(47.8 48)  rotate(0 73 73)" d="M73,0C32.68,0 0,32.68 0,73C0,113.32 32.68,146 73,146C113.32,146 146,113.32 146,73C146,32.68 113.32,0 73,0Z " /><path id="路径 1"  style="fill:#000000" transform="translate(171.8 175)  rotate(0 41.45 41.45)" opacity="1" d="M0 -15.5563L98.4563 82.9L82.9 98.4563L75.1218 90.6782L-15.5563 0L0 -15.5563Z " /><path  id="路径 1" style="stroke:#000000; stroke-width:22; stroke-opacity:1; stroke-dasharray:0 0" transform="translate(171.8 175)  rotate(0 41.45 41.45)" d="" /></g></g></svg>