<svg xmlns="http://www.w3.org/2000/svg" xmlns:xlink="http://www.w3.org/1999/xlink" width="308" height="308" viewBox="0 0 308 308" fill="none"><defs><rect id="path_0" x="0" y="0" width="308" height="308" /></defs><g opacity="1" transform="translate(0 0)  rotate(0 154 154)"><mask id="bg-mask-0" fill="white"><use xlink:href="#path_0"></use></mask><g mask="url(#bg-mask-0)" ><path  id="并集" style="stroke:#000000; stroke-width:22; stroke-opacity:1; stroke-dasharray:0 0" transform="translate(58 46.5)  rotate(0 96 107.5)" d="M192,149.89L192,65.11C192,56.99 187.68,49.49 180.66,45.44L107.34,3.04C100.32,-1.01 91.68,-1.01 84.66,3.04L11.34,45.44C4.32,49.49 0,56.99 0,65.11L0,149.89C0,158.01 4.32,165.51 11.34,169.56L84.66,211.96C91.68,216.02 100.32,216.02 107.34,211.96L180.66,169.56C187.68,165.51 192,158.01 192,149.89Z " /><path  id="圆形 1" style="stroke:#000000; stroke-width:22; stroke-opacity:1; stroke-dasharray:0 0" transform="translate(112.5 112.5)  rotate(0 41.5 41.5)" d="M41.5,0C18.58,0 0,18.58 0,41.5C0,64.42 18.58,83 41.5,83C64.42,83 83,64.42 83,41.5C83,18.58 64.42,0 41.5,0Z " /></g></g></svg>