<svg xmlns="http://www.w3.org/2000/svg" xmlns:xlink="http://www.w3.org/1999/xlink" width="308" height="308" viewBox="0 0 308 308" fill="none"><defs><rect id="path_0" x="0" y="0" width="308" height="308" /></defs><g opacity="1" transform="translate(0 0)  rotate(0 154 154)"><mask id="bg-mask-0" fill="white"><use xlink:href="#path_0"></use></mask><g mask="url(#bg-mask-0)" ><path id="拼合图形" fill-rule="evenodd" style="fill:#000000" transform="translate(40 40)  rotate(0 114 114)" opacity="1" d="M102.78 11L48.63 11Q39.2908 11 32.0835 13.0831Q25.2288 15.0643 20.6634 18.8461Q16.1285 22.6027 13.7436 28.2965Q11 34.8468 11 44L11 109L11 184Q11 193.153 13.7436 199.703Q16.1285 205.397 20.6634 209.154Q25.2288 212.936 32.0835 214.917Q39.2908 217 48.63 217L179.78 217Q190.796 217 198.469 214.574Q205.073 212.486 209.112 208.587Q212.925 204.905 214.87 199.16Q217 192.869 217 184L217 119L217 114L239 114L239 119L239 184Q239 210.309 224.393 224.413Q216.635 231.904 205.101 235.551Q194.191 239 179.78 239L48.63 239Q36.1753 239 25.975 236.052Q14.721 232.799 6.62908 226.096Q2.333 222.537 -0.959249 218.085Q-4.30337 213.563 -6.5483 208.203Q-11 197.574 -11 184L-11 109L-11 44Q-11 30.4256 -6.54831 19.7972Q-4.30337 14.4375 -0.959251 9.91499Q2.33301 5.46264 6.62907 1.90392Q14.721 -4.79917 25.975 -8.05185Q36.1753 -11 48.63 -11L102.78 -11L102.78 11Z M158.332 101.114L208.592 52.2435Q207.855 52.9322 207.397 54.0687Q206.981 55.1015 207.002 56.1856Q207.021 57.1511 207.391 58.0305Q207.774 58.94 208.482 59.6482L158.332 10.8865L173.668 -4.88646L224.038 44.0918Q226.381 46.4348 227.671 49.503Q228.933 52.5038 228.998 55.7469Q229.066 59.1587 227.8 62.2966Q226.446 65.6562 223.928 68.0165L173.668 116.886L158.332 101.114Z M46.12 189.27L46.12 114Q46.12 102.134 48.9191 92.0125Q51.5499 82.4998 56.6086 74.6605Q61.181 67.5749 67.6239 62.028Q73.1877 57.2381 80.0117 53.7131Q85.6774 50.7865 92.0628 48.8074Q97.1125 47.2424 102.402 46.3316Q106.202 45.6773 109.789 45.4126Q111.721 45.27 113 45.27L209.969 45L210.031 67L113 67.27Q113.031 67.27 113.05 67.2699Q113.042 67.2699 113.023 67.2702Q112.909 67.2721 112.751 67.2776Q112.148 67.2983 111.408 67.3529Q108.884 67.5392 106.135 68.0125Q102.257 68.6803 98.5756 69.8213Q94.047 71.2249 90.1083 73.2594Q80.4893 78.2281 75.0939 86.5892Q68.12 97.3964 68.12 114L68.12 189.27L46.12 189.27Z " /><path  id="拼合图形" style="stroke:#000000; stroke-width:22; stroke-opacity:1; stroke-dasharray:0 0" transform="translate(40 40)  rotate(0 114 114)" d="" /></g></g></svg>