<svg xmlns="http://www.w3.org/2000/svg" xmlns:xlink="http://www.w3.org/1999/xlink" width="308" height="308" viewBox="0 0 308 308" fill="none"><defs><rect id="path_0" x="0" y="0" width="308" height="308" /></defs><g opacity="1" transform="translate(0 0)  rotate(0 154 154)"><mask id="bg-mask-0" fill="white"><use xlink:href="#path_0"></use></mask><g mask="url(#bg-mask-0)" ><path id="路径 1" fill-rule="evenodd" style="fill:#000000" transform="translate(44 40)  rotate(0 83 103)" opacity="1" d="M122.81,125.19L99.08,13.14C95.21,-4.38 73.98,-4.38 70.45,13.14L45.31,125.19L122.81,125.19Z M140.57 217L108.35 217L108.35 195L140.57 195L140.57 217Z M17.6721 203.752L34.5421 122.942L56.0779 127.438L39.2079 208.248L17.6721 203.752Z M129.826 208.361L112.066 127.551L133.554 122.829L151.314 203.639L129.826 208.361Z M28.44 217L0 217L0 195L28.44 195L28.44 217Z M140.57 195L166 195L166 217L140.57 217L140.57 195Z M28.44 195L62.96 195L62.96 217L28.44 217L28.44 195Z " /><path  id="路径 1" style="stroke:#000000; stroke-width:22; stroke-opacity:1; stroke-dasharray:0 0" transform="translate(44 40)  rotate(0 83 103)" d="" /><path id="路径 1"  style="fill:#000000" transform="translate(221 160)  rotate(0 16.25 52)" opacity="1" d="M21.5 27.7399L21.5 104L21.4996 104L21.4995 115L43.4995 115L43.4996 104L21.5 104L43.5 104L43.5 -11L23.8046 -11L21.1535 -3.92401Q21.1509 -3.91758 21.1474 -3.90922Q21.0812 -3.74711 20.983 -3.52786Q20.6078 -2.68967 20.0949 -1.74864Q18.3926 1.37463 16.1058 3.95632Q13.0852 7.36643 9.5077 9.24143Q5.19834 11.5 0 11.5L-11 11.5L-11 33.5L0 33.5Q5.50278 33.5 10.6521 32.1972Q15.3844 30.9999 19.7204 28.7273Q20.6218 28.2549 21.5 27.7399Z " /><path  id="路径 1" style="stroke:#000000; stroke-width:22; stroke-opacity:1; stroke-dasharray:0 0" transform="translate(221 160)  rotate(0 16.25 52)" d="" /></g></g></svg>