<svg xmlns="http://www.w3.org/2000/svg" xmlns:xlink="http://www.w3.org/1999/xlink" width="308" height="308" viewBox="0 0 308 308" fill="none"><defs><rect id="path_0" x="0" y="0" width="308" height="308" /></defs><g opacity="1" transform="translate(0 0)  rotate(0 154 154)"><mask id="bg-mask-0" fill="white"><use xlink:href="#path_0"></use></mask><g mask="url(#bg-mask-0)" ><path id="路径 1" fill-rule="evenodd" style="fill:#000000" transform="translate(51 54)  rotate(0 86 105.5)" opacity="1" d="M125.81,120.19L102.08,13.14C98.21,-4.38 76.98,-4.38 73.45,13.14L48.31,120.19L125.81,120.19Z M146.57 222L114.35 222L114.35 200L146.57 200L146.57 222Z M17.6942 208.649L37.5642 117.839L59.0558 122.541L39.1858 213.351L17.6942 208.649Z M135.847 213.451L115.087 122.641L136.533 117.739L157.293 208.549L135.847 213.451Z M28.44 222L0 222L0 200L28.44 200L28.44 222Z M146.57 200L172 200L172 222L146.57 222L146.57 200Z M28.44 200L62.96 200L62.96 222L28.44 222L28.44 200Z " /><path  id="路径 1" style="stroke:#000000; stroke-width:22; stroke-opacity:1; stroke-dasharray:0 0" transform="translate(51 54)  rotate(0 86 105.5)" d="" /><path id="路径 1"  style="fill:#000000" transform="translate(192.5 49)  rotate(0 16.25 52)" opacity="1" d="M21.5 27.7399L21.5 104L21.4996 104L21.4995 115L43.4995 115L43.4996 104L21.5 104L43.5 104L43.5 -11L23.8046 -11L21.1535 -3.92401Q21.1509 -3.91758 21.1474 -3.90922Q21.0812 -3.74711 20.983 -3.52786Q20.6078 -2.68967 20.0949 -1.74864Q18.3926 1.37463 16.1058 3.95632Q13.0852 7.36643 9.5077 9.24143Q5.19834 11.5 0 11.5L-11 11.5L-11 33.5L0 33.5Q5.50278 33.5 10.6521 32.1972Q15.3844 30.9999 19.7204 28.7273Q20.6218 28.2549 21.5 27.7399Z " /><path  id="路径 1" style="stroke:#000000; stroke-width:22; stroke-opacity:1; stroke-dasharray:0 0" transform="translate(192.5 49)  rotate(0 16.25 52)" d="" /></g></g></svg>