<svg xmlns="http://www.w3.org/2000/svg" xmlns:xlink="http://www.w3.org/1999/xlink" width="308" height="308" viewBox="0 0 308 308" fill="none"><defs><rect id="path_0" x="0" y="0" width="308" height="308" /></defs><g opacity="1" transform="translate(0 0)  rotate(0 154 154)"><mask id="bg-mask-0" fill="white"><use xlink:href="#path_0"></use></mask><g mask="url(#bg-mask-0)" ><path  id="减去顶层" style="stroke:#000000; stroke-width:22; stroke-opacity:1; stroke-dasharray:0 0" transform="translate(60.5 25.333232674194733)  rotate(0 93.50085382599872 129.26746371142923)" d="M92.65,80.45C87.52,79.24 82.12,80.45 77.99,83.74C73.86,87.01 71.45,92.01 71.45,97.29L71.45,228.63L127,245.67L127.06,88.54L92.65,80.45Z M127.06,72.79C127.06,67.51 129.47,62.51 133.6,59.24C137.73,55.95 143.13,54.74 148.26,55.95L187,65.06L187,16.49C187,2.67 175.5,-1.83 164.86,0.65L13.38,34.9C5.54,36.72 0,43.7 0,51.76L0,193.84C0,201.43 4.95,208.13 12.18,210.37L71.45,228.63L71.45,97.29C71.45,92.01 73.86,87.01 77.99,83.74C82.12,80.45 87.52,79.24 92.65,80.45L127.06,88.54L127.06,72.79Z M127,245.67L164.66,257.36C177,261.67 187,253.67 187,240.83L187,103.51L127.06,88.54L127,245.67Z M187,103.51L187,65.06L148.26,55.95C143.13,54.74 137.73,55.95 133.6,59.24C129.47,62.51 127.06,67.51 127.06,72.79L127.06,88.54L187,103.51Z " /></g></g></svg>