<svg xmlns="http://www.w3.org/2000/svg" xmlns:xlink="http://www.w3.org/1999/xlink" width="308" height="308" viewBox="0 0 308 308" fill="none"><defs><rect id="path_0" x="0" y="0" width="308" height="308" /></defs><g opacity="1" transform="translate(0 0)  rotate(0 154 154)"><mask id="bg-mask-0" fill="white"><use xlink:href="#path_0"></use></mask><g mask="url(#bg-mask-0)" ><path id="并集" fill-rule="evenodd" style="fill:#000000" transform="translate(77 54)  rotate(0 77 100)" opacity="1" d="M0 89L154 89L154 111L0 111L0 89Z M0 139L154 139L154 161L0 161L0 139Z M0 189L154 189L154 211L0 211L0 189Z M0 -11L154 -11L154 11L0 11L0 -11Z M0 39L154 39L154 61L0 61L0 39Z " /><path  id="并集" style="stroke:#000000; stroke-width:22; stroke-opacity:1; stroke-dasharray:0 0" transform="translate(77 54)  rotate(0 77 100)" d="" /><path id="路径 2"  style="fill:#000000" transform="translate(44 44)  rotate(0 0.0005 110)" opacity="1" d="M11.001 5e-05L11.001 -11L-10.999 -11L-10.999 -5e-05L0.000994002 0L-11 0L-11 220L-11 231L11 231L11 220L11 4.99955e-05L11.001 5e-05Z " /><path  id="路径 2" style="stroke:#000000; stroke-width:22; stroke-opacity:1; stroke-dasharray:0 0" transform="translate(44 44)  rotate(0 0.0005 110)" d="" /><path id="路径 2"  style="fill:#000000" transform="translate(264 44)  rotate(0 0.0005 110)" opacity="1" d="M11.001 5e-05L11.001 -11L-10.999 -11L-10.999 -5e-05L0.000994002 0L-11 0L-11 220L-11 231L11 231L11 220L11 4.99955e-05L11.001 5e-05Z " /><path  id="路径 2" style="stroke:#000000; stroke-width:22; stroke-opacity:1; stroke-dasharray:0 0" transform="translate(264 44)  rotate(0 0.0005 110)" d="" /></g></g></svg>