<svg xmlns="http://www.w3.org/2000/svg" xmlns:xlink="http://www.w3.org/1999/xlink" width="308" height="308" viewBox="0 0 308 308" fill="none"><defs><rect id="path_0" x="0" y="0" width="308" height="308" /></defs><g opacity="1" transform="translate(0 0)  rotate(0 154 154)"><mask id="bg-mask-0" fill="white"><use xlink:href="#path_0"></use></mask><g mask="url(#bg-mask-0)" ><path id="路径 1"  style="fill:#000000" transform="translate(172.88 152)  rotate(90 0.5 101.5)" opacity="1" d="M-11 -11L-11 214L11 214L11 -11L-11 -11Z " /><path  id="路径 1" style="stroke:#000000; stroke-width:22; stroke-opacity:1; stroke-dasharray:0 0" transform="translate(172.88 152)  rotate(90 0.5 101.5)" d="" /><path id="路径 1"  style="fill:#000000" transform="translate(144.38 131)  rotate(90 0.5 73)" opacity="1" d="M11 -11L11 157L-11 157L-11 -11L11 -11Z " /><path  id="路径 1" style="stroke:#000000; stroke-width:22; stroke-opacity:1; stroke-dasharray:0 0" transform="translate(144.38 131)  rotate(90 0.5 73)" d="" /><path id="路径 1"  style="fill:#000000" transform="translate(164.88 61)  rotate(90 0.5 93.5)" opacity="1" d="M-11 -11L-11 198L11 198L11 -11L-11 -11Z " /><path  id="路径 1" style="stroke:#000000; stroke-width:22; stroke-opacity:1; stroke-dasharray:0 0" transform="translate(164.88 61)  rotate(90 0.5 93.5)" d="" /><path id="路径 1"  style="fill:#000000" transform="translate(144.88 31.5)  rotate(90 0.5 73.5)" opacity="1" d="M11 -11L11 158L-11 158L-11 -11L11 -11Z " /><path  id="路径 1" style="stroke:#000000; stroke-width:22; stroke-opacity:1; stroke-dasharray:0 0" transform="translate(144.88 31.5)  rotate(90 0.5 73.5)" d="" /><path id="路径 2"  style="fill:#000000" transform="translate(44 44)  rotate(0 0.0005 110)" opacity="1" d="M11.001 5e-05L11.001 -11L-10.999 -11L-10.999 -5e-05L0.000994002 0L-11 0L-11 220L-11 231L11 231L11 220L11 4.99955e-05L11.001 5e-05Z " /><path  id="路径 2" style="stroke:#000000; stroke-width:22; stroke-opacity:1; stroke-dasharray:0 0" transform="translate(44 44)  rotate(0 0.0005 110)" d="" /><path id="路径 1"  style="fill:#000000" transform="translate(165.1299999999992 -38.25)  rotate(90 0.5 93.75)" opacity="1" d="M-11 -11L-11 198L11 198L11 -11L-11 -11Z " /><path  id="路径 1" style="stroke:#000000; stroke-width:22; stroke-opacity:1; stroke-dasharray:0 0" transform="translate(165.1299999999992 -38.25)  rotate(90 0.5 93.75)" d="" /></g></g></svg>