<svg xmlns="http://www.w3.org/2000/svg" xmlns:xlink="http://www.w3.org/1999/xlink" width="308" height="308" viewBox="0 0 308 308" fill="none"><defs><rect id="path_0" x="0" y="0" width="308" height="308" /></defs><g opacity="1" transform="translate(0 0)  rotate(0 154 154)"><mask id="bg-mask-0" fill="white"><use xlink:href="#path_0"></use></mask><g mask="url(#bg-mask-0)" ><path id="并集" fill-rule="evenodd" style="fill:#000000" transform="translate(44 88)  rotate(0 66 66)" opacity="1" d="M0,66C0,102.45 29.55,132 66,132C102.45,132 132,102.45 132,66C132,29.55 102.45,0 66,0C29.55,0 0,29.55 0,66Z M54.9212 14.3154L54.9157 25.3154L54.92 25.3154L54.8903 70.0723Q54.8669 73.3753 56.1354 76.3748Q57.367 79.2874 59.6356 81.4903Q61.8304 83.6216 64.6685 84.7698Q67.5486 85.9349 70.5551 85.91L92.7851 85.92L92.7851 85.9155L103.784 85.9193L103.791 63.9193L92.7914 63.9155L92.7914 63.92L76.894 63.9128L76.92 25.3274L71.8016 25.3239L76.9157 25.3265L76.9212 14.3265L54.9212 14.3154ZM70.6674 63.91Q70.6162 63.9096 70.5649 63.91L70.6674 63.91Z " /><path  id="并集" style="stroke:#000000; stroke-width:22; stroke-opacity:1; stroke-dasharray:0 0" transform="translate(44 88)  rotate(0 66 66)" d="" /><path id="路径 2"  style="fill:#000000" transform="translate(109.5 34)  rotate(0 0.5 120)" opacity="1" d="M11 0L11 55L-11 55L-11 0L11 0Z M-11 240L-11 185L11 185L11 240L-11 240Z " /><path  id="路径 2" style="stroke:#000000; stroke-width:22; stroke-opacity:1; stroke-dasharray:0 0" transform="translate(109.5 34)  rotate(0 0.5 120)" d="" /><path  id="并集" style="stroke:#000000; stroke-width:22; stroke-opacity:1; stroke-dasharray:0 0" transform="translate(217 41)  rotate(0 24 24)" d="M0,38.74C0,45.26 4.25,48 10.24,48L37.85,48C45.07,48 48,44.63 48,38.74L48,22.95L48,9.26C48,3.37 45.07,0 37.85,0L10.24,0C4.25,0 0,2.74 0,9.26L0,22.95L0,38.74Z " /><path  id="并集" style="stroke:#000000; stroke-width:22; stroke-opacity:1; stroke-dasharray:0 0" transform="translate(217 130)  rotate(0 24 24)" d="M0,38.74C0,45.26 4.25,48 10.24,48L37.85,48C45.07,48 48,44.63 48,38.74L48,22.95L48,9.26C48,3.37 45.07,0 37.85,0L10.24,0C4.25,0 0,2.74 0,9.26L0,22.95L0,38.74Z " /><path  id="并集" style="stroke:#000000; stroke-width:22; stroke-opacity:1; stroke-dasharray:0 0" transform="translate(217 220)  rotate(0 24 24)" d="M0,38.74C0,45.26 4.25,48 10.24,48L37.85,48C45.07,48 48,44.63 48,38.74L48,22.95L48,9.26C48,3.37 45.07,0 37.85,0L10.24,0C4.25,0 0,2.74 0,9.26L0,22.95L0,38.74Z " /></g></g></svg>