<svg xmlns="http://www.w3.org/2000/svg" xmlns:xlink="http://www.w3.org/1999/xlink" width="308" height="308" viewBox="0 0 308 308" fill="none"><defs><rect id="path_0" x="0" y="0" width="308" height="308" /></defs><g opacity="1" transform="translate(0 0)  rotate(0 154 154)"><mask id="bg-mask-0" fill="white"><use xlink:href="#path_0"></use></mask><g mask="url(#bg-mask-0)" ><path id="路径 1 (轮廓)"  style="fill:#000000" transform="translate(77.07999999999993 43)  rotate(0 76.41811987829614 91.5)" opacity="1" d="M141.823 -11L141.823 0L141.82 0L141.82 110.125L141.836 110.442Q141.837 110.473 141.837 110.502Q141.84 110.589 141.84 110.61Q141.84 111.277 141.798 112.423Q141.655 115.924 141.111 119.719Q140.346 125.158 138.875 130.291Q137.098 136.524 134.367 142Q131.312 148.11 127.129 153.002Q122.494 158.404 116.434 162.26Q109.417 166.717 100.433 169.125Q89.7669 172 76.39 172Q63.0231 172 52.373 169.129Q43.3727 166.717 36.3482 162.255Q30.3173 158.417 25.6758 152.996Q21.5303 148.174 18.4387 141.991Q15.7459 136.605 13.9468 130.308Q12.4849 125.159 11.7221 119.753Q11.1712 115.91 11.0425 112.433Q11.0033 111.624 11.0003 110.757L11.01 110.669L11.01 0L11.0132 0L11.0132 -11L-10.9868 -11L-10.9868 0L-10.99 0L-10.99 109.889Q-11 110.225 -11 110.61Q-11 112.099 -10.9425 113.247Q-10.7707 117.883 -10.0621 122.827Q-9.08921 129.721 -7.20676 136.352Q-4.84591 144.615 -1.2387 151.829Q3.07141 160.45 8.96419 167.304Q15.7389 175.217 24.5518 180.825Q34.4219 187.095 46.647 190.371Q60.1099 194 76.39 194Q92.6802 194 106.127 190.375Q118.368 187.095 128.246 180.82Q137.061 175.21 143.851 167.298Q149.784 160.358 154.053 151.82Q157.695 144.519 160.025 136.349Q161.917 129.743 162.889 122.841Q163.592 117.936 163.782 113.237Q163.84 111.684 163.84 110.61Q163.84 110.297 163.83 109.927L163.83 109.775L163.82 109.575L163.82 0L163.823 0L163.823 -11L141.823 -11Z " /><path  id="路径 1 (轮廓)" style="stroke:#000000; stroke-width:22; stroke-opacity:1; stroke-dasharray:0 0" transform="translate(77.07999999999993 43)  rotate(0 76.41811987829614 91.5)" d="" /><path id="路径 2"  style="fill:#000000" transform="translate(54.5 265)  rotate(0 99.5 0.5)" opacity="1" d="M-11 -11L210 -11L210 11L-11 11L-11 -11Z " /><path  id="路径 2" style="stroke:#000000; stroke-width:22; stroke-opacity:1; stroke-dasharray:0 0" transform="translate(54.5 265)  rotate(0 99.5 0.5)" d="" /></g></g></svg>