<svg xmlns="http://www.w3.org/2000/svg" xmlns:xlink="http://www.w3.org/1999/xlink" width="308" height="308" viewBox="0 0 308 308" fill="none"><defs><rect id="path_0" x="0" y="0" width="308" height="308" /></defs><g opacity="1" transform="translate(0 0)  rotate(0 154 154)"><mask id="bg-mask-0" fill="white"><use xlink:href="#path_0"></use></mask><g mask="url(#bg-mask-0)" ><path  id="路径 1" style="stroke:#000000; stroke-width:22; stroke-opacity:1; stroke-dasharray:0 0" transform="translate(33 47.69359116757347)  rotate(0 121 106.30640883242654)" d="M77.95,194.78C79.18,194.78 80.37,194.97 81.5,195.31C93.86,198.84 107.19,200.81 121,200.81C187.82,200.81 242,155.86 242,100.4C242,44.95 187.82,0 121,0C54.17,0 0,44.95 0,100.4C0,130.66 16.3,157.89 41.8,176.3C43.86,177.75 45.2,180.15 45.2,182.85C45.17,183.71 45.03,184.57 44.77,185.4L39.32,205.65C39.07,206.61 38.67,207.59 38.67,208.6C38.67,210.82 40.47,212.61 42.7,212.61C43.58,212.61 44.29,212.27 45.04,211.86L71.52,196.63C73.52,195.48 75.62,194.78 77.95,194.78Z " /><path id="路径 1"  style="fill:#000000" transform="translate(121 95)  rotate(0 0 24.00000000000054)" opacity="1" d="M11 -11L11 59L-11 59L-11 -11L11 -11Z " /><path  id="路径 1" style="stroke:#000000; stroke-width:22; stroke-opacity:1; stroke-dasharray:0 0" transform="translate(121 95)  rotate(0 0 24.00000000000054)" d="" /><path id="路径 1"  style="fill:#000000" transform="translate(187 95)  rotate(0 0 24.00000000000054)" opacity="1" d="M11 -11L11 59L-11 59L-11 -11L11 -11Z " /><path  id="路径 1" style="stroke:#000000; stroke-width:22; stroke-opacity:1; stroke-dasharray:0 0" transform="translate(187 95)  rotate(0 0 24.00000000000054)" d="" /></g></g></svg>