<svg xmlns="http://www.w3.org/2000/svg" xmlns:xlink="http://www.w3.org/1999/xlink" width="308" height="308" viewBox="0 0 308 308" fill="none"><defs><rect id="path_0" x="0" y="0" width="308" height="308" /></defs><g opacity="1" transform="translate(0 0)  rotate(0 154 154)"><mask id="bg-mask-0" fill="white"><use xlink:href="#path_0"></use></mask><g mask="url(#bg-mask-0)" ><path id="圆形 1"  style="fill:#000000" transform="translate(33 70.45000000000073)  rotate(0 121 32.5)" opacity="1" d="M160.074 16.7926Q153.67 14.8416 147.289 13.5816Q134.324 11 121 11Q107.241 11 93.8913 13.7459Q80.8877 16.4204 68.665 21.6169Q56.6587 26.7213 45.8241 34.0792Q35.086 41.3715 25.9088 50.5975Q16.5232 60.025 9.15784 71.0938L-9.15785 58.9062Q-0.594057 46.0364 10.3112 35.0825Q20.9785 24.3585 33.4644 15.8793Q46.0753 7.31511 60.0575 1.37064Q74.3028 -4.68569 89.4591 -7.80305Q105.002 -11 121 -11Q136.494 -11 151.551 -8.00164Q159.02 -6.52683 166.486 -4.25257L160.074 16.7926Z M214.293 19.9845Q217.542 22.4174 220.348 24.7482Q226.228 29.5891 231.691 35.0849Q242.594 46.0364 251.158 58.9062L232.842 71.0938Q225.477 60.025 216.089 50.5951Q211.398 45.8764 206.292 41.6718Q203.913 39.6957 201.107 37.5955L214.293 19.9845Z " /><path  id="圆形 1" style="stroke:#000000; stroke-width:22; stroke-opacity:1; stroke-dasharray:0 0" transform="translate(33 70.45000000000073)  rotate(0 121 32.5)" d="" /><path id="圆形 1"  style="fill:#000000" transform="translate(73 128.90825787510403)  rotate(0 81 21.270871062448172)" opacity="1" d="M132.066 1.2284Q136.794 3.74354 141.196 6.66683Q150.114 12.6013 157.651 20.1046Q165.204 27.6072 171.123 36.3944L152.877 48.6856Q148.166 41.6916 142.129 35.6954Q136.126 29.7185 129.024 24.9932Q125.516 22.6632 121.734 20.6516L132.066 1.2284Z M72.5207 10.9487Q68.256 11.3619 64.1338 12.173Q55.8416 13.7974 47.9124 17.048Q40.0354 20.2926 32.9212 25.032Q25.8706 29.7291 19.8664 35.6999Q13.8344 41.6916 9.12315 48.6856L-9.12315 36.3944Q-3.20385 27.6072 4.35357 20.1001Q11.883 12.6126 20.7238 6.72295Q29.6467 0.778557 39.5676 -3.30795Q49.494 -7.37727 59.8862 -9.41303Q65.064 -10.4319 70.3993 -10.9487L72.5207 10.9487Z " /><path  id="圆形 1" style="stroke:#000000; stroke-width:22; stroke-opacity:1; stroke-dasharray:0 0" transform="translate(73 128.90825787510403)  rotate(0 81 21.270871062448172)" d="" /><path id="圆形 1"  style="fill:#000000" transform="translate(168.51933066341007 189.54785532925962)  rotate(0 8.740334668294878 7.451072335369809)" opacity="1" d="M-14.4586 5.74005L-4.35929 10.0993L0 0L-4.35876 10.0996Q-1.82984 11.191 0.455473 12.7814Q2.73389 14.3669 4.68438 16.3883Q6.66131 18.4304 8.23938 20.8675L8.23888 20.8678L14.2046 30.1096L32.6881 18.1782L26.7225 8.93646L15.8127 15.9789L26.7153 8.92423Q23.967 4.67684 20.5156 1.11175Q17.069 -2.46005 13.022 -5.27637Q8.92016 -8.1309 4.35929 -10.0993L4.35876 -10.0996L-5.74005 -14.4586L-14.4586 5.74005Z " /><path  id="圆形 1" style="stroke:#000000; stroke-width:22; stroke-opacity:1; stroke-dasharray:0 0" transform="translate(168.51933066341007 189.54785532925962)  rotate(0 8.740334668294878 7.451072335369809)" d="" /><path id="路径 1"  style="fill:#000000" transform="translate(153.88 224.28)  rotate(0 0.0005493803279819076 12.635747543522939)" opacity="1" d="M10.9995 -11.0005L11 -0.000478261L0 0L11 0L11 25.27L-11 25.27L-11 0L-11.0005 -10.9995L10.9995 -11.0005ZM11.0016 36.271L11.0011 25.271L-10.9989 25.272L-10.9984 36.272L11.0016 36.271Z " /><path  id="路径 1" style="stroke:#000000; stroke-width:22; stroke-opacity:1; stroke-dasharray:0 0" transform="translate(153.88 224.28)  rotate(0 0.0005493803279819076 12.635747543522939)" d="" /><path id="路径 2"  style="fill:#000000" transform="translate(44.5 44.5)  rotate(0 109.75 109.75)" opacity="1" d="M227.278 7.77815L235.056 -1.52588e-05L219.5 -15.5564L211.722 -7.77818L-7.77817 211.722L-15.5563 219.5L1.52588e-05 235.056L7.77818 227.278L227.278 7.77815Z " /><path  id="路径 2" style="stroke:#000000; stroke-width:22; stroke-opacity:1; stroke-dasharray:0 0" transform="translate(44.5 44.5)  rotate(0 109.75 109.75)" d="" /></g></g></svg>